<svg width="34" height="26" viewBox="0 0 34 26" fill="none" xmlns="http://www.w3.org/2000/svg">
<rect x="0.936707" width="32.2775" height="25.2168" rx="3.02602" fill="white"/>
<path d="M9.0915 8.74513C8.79663 9.09786 8.32483 9.3753 7.85303 9.33566C7.79406 8.86006 8.02602 8.35276 8.29731 8.04362C8.59218 7.68295 9.10722 7.42533 9.52791 7.40552C9.57509 7.89697 9.38244 8.38446 9.0915 8.74513ZM9.52005 9.42682C8.83594 9.38719 8.25013 9.81919 7.92773 9.81919C7.59748 9.81919 7.10209 9.44664 6.55953 9.45853C5.85576 9.47042 5.20311 9.87071 4.84533 10.5088C4.10618 11.789 4.65268 13.6795 5.36824 14.7218C5.71816 15.2371 6.13491 15.8038 6.68534 15.784C7.20825 15.7642 7.41269 15.4432 8.04175 15.4432C8.67474 15.4432 8.85953 15.784 9.40996 15.7761C9.98005 15.7642 10.3378 15.2609 10.6877 14.7456C11.0848 14.159 11.25 13.5923 11.2578 13.5606C11.246 13.5487 10.157 13.1286 10.1452 11.8603C10.1334 10.7981 11.0062 10.2948 11.0455 10.2631C10.5541 9.5259 9.7874 9.44664 9.52005 9.42682ZM13.4674 7.99209V15.7166H14.6587V13.0771H16.306C17.8119 13.0771 18.8655 12.0347 18.8655 10.5286C18.8655 9.02256 17.8276 7.99209 16.3454 7.99209H13.4674ZM14.6587 9.00274H16.0308C17.0649 9.00274 17.6546 9.55761 17.6546 10.5326C17.6546 11.5076 17.0649 12.0704 16.0269 12.0704H14.6587V9.00274ZM21.0358 15.7761C21.7828 15.7761 22.4748 15.3956 22.7893 14.7892H22.8129V15.7166H23.9138V11.8722C23.9138 10.7585 23.0291 10.0372 21.6688 10.0372C20.4067 10.0372 19.471 10.7664 19.4356 11.7652H20.509C20.5994 11.2896 21.0358 10.9765 21.6334 10.9765C22.3608 10.9765 22.7697 11.3173 22.7697 11.9475V12.3755L21.2835 12.4667C19.9035 12.5499 19.1565 13.1207 19.1565 14.1115C19.1604 15.1102 19.931 15.7761 21.0358 15.7761ZM21.3582 14.8606C20.7252 14.8606 20.3202 14.5514 20.3202 14.0837C20.3202 13.5963 20.7095 13.3149 21.4526 13.2713L22.7736 13.188V13.624C22.7736 14.3453 22.1642 14.8606 21.3582 14.8606ZM25.3881 17.8172C26.548 17.8172 27.0945 17.3694 27.5702 16.0179L29.6579 10.1125H28.4469L27.0473 14.6743H27.0237L25.624 10.1125H24.3816L26.3946 15.7365L26.2845 16.0773C26.1037 16.656 25.8088 16.8819 25.282 16.8819C25.1876 16.8819 25.0068 16.87 24.9321 16.862V17.7895C25.0028 17.8053 25.2977 17.8172 25.3881 17.8172Z" fill="#231F20"/>
</svg>
