<svg width="33" height="26" viewBox="0 0 33 26" fill="none" xmlns="http://www.w3.org/2000/svg">
<rect x="0.40509" width="32.2775" height="25.2168" rx="3.02602" fill="white"/>
<path d="M4.11023 2.73535H28.9775V22.243H4.11023V2.73535Z" fill="#231F20"/>
<path d="M26.1003 20.2079C26.1003 20.5428 25.8747 20.7841 25.5511 20.7841C25.2177 20.7841 25.0019 20.528 25.0019 20.2079C25.0019 19.8877 25.2177 19.6316 25.5511 19.6316C25.8747 19.6316 26.1003 19.8877 26.1003 20.2079ZM10.8609 19.6316C10.5128 19.6316 10.3117 19.8877 10.3117 20.2079C10.3117 20.528 10.5128 20.7841 10.8609 20.7841C11.1796 20.7841 11.3954 20.5428 11.3954 20.2079C11.3904 19.8877 11.1796 19.6316 10.8609 19.6316ZM16.6222 19.6169C16.3575 19.6169 16.1957 19.7892 16.1564 20.0454H17.093C17.0488 19.7646 16.8772 19.6169 16.6222 19.6169ZM21.908 19.6316C21.5745 19.6316 21.3735 19.8877 21.3735 20.2079C21.3735 20.528 21.5745 20.7841 21.908 20.7841C22.2414 20.7841 22.4571 20.5428 22.4571 20.2079C22.4571 19.8877 22.2414 19.6316 21.908 19.6316ZM27.1005 20.9171C27.1005 20.9319 27.1152 20.9417 27.1152 20.9713C27.1152 20.9861 27.1005 20.9959 27.1005 21.0255C27.0858 21.0402 27.0858 21.0501 27.076 21.0649C27.0613 21.0796 27.0515 21.0895 27.0221 21.0895C27.0074 21.1043 26.9976 21.1043 26.9681 21.1043C26.9534 21.1043 26.9436 21.1043 26.9142 21.0895C26.8995 21.0895 26.8897 21.0747 26.875 21.0649C26.8603 21.0501 26.8505 21.0402 26.8505 21.0255C26.8358 21.0008 26.8358 20.9861 26.8358 20.9713C26.8358 20.9467 26.8358 20.9319 26.8505 20.9171C26.8505 20.8925 26.8652 20.8777 26.875 20.8629C26.8897 20.8482 26.8995 20.8482 26.9142 20.8383C26.9387 20.8235 26.9534 20.8235 26.9681 20.8235C26.9927 20.8235 27.0074 20.8235 27.0221 20.8383C27.0466 20.8531 27.0613 20.8531 27.076 20.8629C27.0907 20.8728 27.0858 20.8925 27.1005 20.9171ZM26.9927 20.9861C27.0172 20.9861 27.0172 20.9713 27.0319 20.9713C27.0466 20.9565 27.0466 20.9467 27.0466 20.9319C27.0466 20.9171 27.0466 20.9073 27.0319 20.8925C27.0172 20.8925 27.0074 20.8777 26.978 20.8777H26.8995V21.0501H26.9387V20.9811H26.9534L27.0074 21.0501H27.0466L26.9927 20.9861ZM30.6652 3.98932V21.3259C30.6652 22.6311 29.611 23.69 28.3116 23.69H4.77593C3.47657 23.69 2.42236 22.6311 2.42236 21.3259V3.98932C2.42236 2.68415 3.47657 1.62524 4.77593 1.62524H28.3116C29.611 1.62524 30.6652 2.68415 30.6652 3.98932ZM5.56046 10.8648C5.56046 14.6326 8.60539 17.6862 12.3515 17.6862C13.6852 17.6862 14.9944 17.2823 16.1025 16.5485C12.528 13.6279 12.5525 8.11661 16.1025 5.19599C14.9944 4.45721 13.6852 4.05827 12.3515 4.05827C8.60539 4.05335 5.56046 7.11188 5.56046 10.8648ZM16.5438 16.2234C20.0006 13.5146 19.9859 8.23481 16.5438 5.5112C13.1017 8.23481 13.087 13.5195 16.5438 16.2234ZM9.56643 19.9813C9.56643 19.5528 9.28695 19.2721 8.84565 19.2573C8.6201 19.2573 8.37984 19.3263 8.21803 19.5775C8.10035 19.3755 7.89932 19.2573 7.61983 19.2573C7.43351 19.2573 7.24718 19.3263 7.10009 19.5233V19.3066H6.69802V21.1141H7.10009C7.10009 20.1833 6.9775 19.6267 7.54138 19.6267C8.04151 19.6267 7.94345 20.1291 7.94345 21.1141H8.33081C8.33081 20.2128 8.20823 19.6267 8.7721 19.6267C9.27224 19.6267 9.17417 20.1192 9.17417 21.1141H9.57624V19.9813H9.56643ZM11.768 19.3066H11.3806V19.5233C11.2483 19.3608 11.0619 19.2573 10.807 19.2573C10.3019 19.2573 9.91457 19.6612 9.91457 20.2079C9.91457 20.7595 10.3019 21.1584 10.807 21.1584C11.0619 21.1584 11.2483 21.0649 11.3806 20.8925V21.119H11.768V19.3066ZM13.7538 20.5674C13.7538 19.8286 12.631 20.1636 12.631 19.8188C12.631 19.5381 13.2145 19.5824 13.5381 19.7646L13.6999 19.4445C13.239 19.144 12.2191 19.149 12.2191 19.8483C12.2191 20.5526 13.342 20.2571 13.342 20.5871C13.342 20.8974 12.68 20.8728 12.327 20.6265L12.1554 20.9368C12.7045 21.3111 13.7538 21.2323 13.7538 20.5674ZM15.4896 21.0255L15.3817 20.6905C15.1954 20.794 14.7835 20.9073 14.7835 20.4886V19.671H15.4258V19.3066H14.7835V18.755H14.3814V19.3066H14.0088V19.6661H14.3814V20.4886C14.3814 21.3554 15.2297 21.1978 15.4896 21.0255ZM16.1417 20.3655H17.4901C17.4901 19.5676 17.1273 19.2524 16.637 19.2524C16.1172 19.2524 15.7446 19.6415 15.7446 20.203C15.7446 21.2126 16.8527 21.3801 17.4019 20.9023L17.2155 20.6068C16.8331 20.922 16.2545 20.8925 16.1417 20.3655ZM19.0396 19.3066C18.814 19.2081 18.4708 19.2179 18.2943 19.5233V19.3066H17.8922V21.1141H18.2943V20.0946C18.2943 19.5233 18.7601 19.5972 18.9219 19.6809L19.0396 19.3066ZM19.5593 20.2079C19.5593 19.6464 20.1281 19.4642 20.5743 19.7942L20.7606 19.474C20.1918 19.0258 19.1572 19.2721 19.1572 20.2128C19.1572 21.188 20.2556 21.385 20.7606 20.9516L20.5743 20.6314C20.1232 20.9516 19.5593 20.7595 19.5593 20.2079ZM22.8298 19.3066H22.4277V19.5233C22.0207 18.9815 20.9616 19.2869 20.9616 20.2079C20.9616 21.1535 22.06 21.4244 22.4277 20.8925V21.119H22.8298V19.3066ZM24.4822 19.3066C24.3645 19.2475 23.9428 19.1637 23.7369 19.5233V19.3066H23.3495V21.1141H23.7369V20.0946C23.7369 19.5528 24.1782 19.5873 24.3645 19.6809L24.4822 19.3066ZM26.4582 18.5727H26.0708V19.5233C25.6688 18.9864 24.6048 19.2721 24.6048 20.2079C24.6048 21.1634 25.708 21.4195 26.0708 20.8925V21.119H26.4582V18.5727ZM26.8309 14.8739V15.1005H26.8701V14.8739H26.9632V14.8345H26.7377V14.8739H26.8309ZM27.1545 20.9713C27.1545 20.9467 27.1545 20.9171 27.1398 20.8925C27.1251 20.8777 27.1152 20.8531 27.1005 20.8383C27.0858 20.8235 27.0613 20.8137 27.0466 20.7989C27.0221 20.7989 26.9927 20.7841 26.9681 20.7841C26.9534 20.7841 26.9289 20.7989 26.8995 20.7989C26.875 20.8137 26.8603 20.8235 26.8456 20.8383C26.8211 20.8531 26.8063 20.8777 26.8063 20.8925C26.7916 20.9171 26.7916 20.9467 26.7916 20.9713C26.7916 20.9861 26.7916 21.0107 26.8063 21.0402C26.8063 21.055 26.8211 21.0796 26.8456 21.0944C26.8603 21.1092 26.8701 21.119 26.8995 21.1338C26.924 21.1486 26.9534 21.1486 26.9681 21.1486C26.9927 21.1486 27.0221 21.1486 27.0466 21.1338C27.0613 21.119 27.0858 21.1092 27.1005 21.0944C27.1152 21.0796 27.1251 21.055 27.1398 21.0402C27.1545 21.0107 27.1545 20.9861 27.1545 20.9713ZM27.3114 14.8296H27.2427L27.1643 15.002L27.0858 14.8296H27.0172V15.0956H27.0564V14.8936L27.1349 15.066H27.1888L27.2574 14.8936V15.0956H27.3114V14.8296ZM27.5271 10.8648C27.5271 7.11188 24.4822 4.05335 20.7361 4.05335C19.4024 4.05335 18.0932 4.45721 16.9851 5.19106C20.5203 8.11168 20.5743 13.6377 16.9851 16.5436C18.0932 17.2823 19.4122 17.6813 20.7361 17.6813C24.4822 17.6862 27.5271 14.6326 27.5271 10.8648Z" fill="white"/>
</svg>
