<svg width="34" height="26" viewBox="0 0 34 26" fill="none" xmlns="http://www.w3.org/2000/svg">
<rect x="0.873413" width="32.2775" height="25.2168" rx="3.02602" fill="white"/>
<path d="M3.98669 2.73535H30.0385V22.243H3.98669V2.73535Z" fill="#231F20"/>
<path d="M12.0258 12.7167C12.0258 13.3176 11.5502 13.7756 10.9471 13.7756C10.496 13.7756 10.1625 13.5195 10.1625 13.0368C10.1625 12.436 10.6284 11.9533 11.2266 11.9533C11.6826 11.9533 12.0258 12.234 12.0258 12.7167ZM6.83813 10.328H6.60767C6.53412 10.328 6.46057 10.3773 6.45077 10.461L6.23993 11.776L6.64199 11.7612C7.18135 11.7612 7.59813 11.6873 7.6962 11.0619C7.80897 10.4019 7.3922 10.328 6.83813 10.328ZM20.7634 10.328H20.5428C20.4545 10.328 20.3957 10.3773 20.3859 10.461L20.1799 11.776L20.5722 11.7612C21.2096 11.7612 21.6509 11.6135 21.6509 10.8747C21.646 10.3526 21.1802 10.328 20.7634 10.328ZM31.1338 3.94007V21.2766C31.1338 22.5818 30.0796 23.6407 28.7803 23.6407H5.24456C3.94519 23.6407 2.89099 22.5818 2.89099 21.2766V3.94007C2.89099 2.6349 3.94519 1.57599 5.24456 1.57599H28.7803C30.0796 1.57599 31.1338 2.6349 31.1338 3.94007ZM9.18189 10.6087C9.18189 9.57445 8.38756 9.22969 7.48045 9.22969H5.51915C5.39656 9.22969 5.27398 9.32819 5.26418 9.46117L4.46004 14.4898C4.44533 14.5883 4.51888 14.6868 4.61694 14.6868H5.54857C5.68095 14.6868 5.80354 14.5439 5.81825 14.406L6.03889 13.0959C6.08792 12.7413 6.68612 12.8645 6.92148 12.8645C8.32382 12.8645 9.18189 12.0272 9.18189 10.6087ZM13.3104 11.0422H12.3788C12.1925 11.0422 12.1827 11.313 12.1729 11.446C11.8885 11.0274 11.4766 10.9535 11.0108 10.9535C9.80951 10.9535 8.8926 12.0124 8.8926 13.1797C8.8926 14.1401 9.4908 14.7656 10.4469 14.7656C10.8882 14.7656 11.4374 14.5242 11.7463 14.1795C11.7218 14.2534 11.6973 14.411 11.6973 14.4848C11.6973 14.5981 11.7463 14.6818 11.8542 14.6818H12.6975C12.8299 14.6818 12.9427 14.539 12.9672 14.4011L13.4674 11.2342C13.4821 11.1407 13.4085 11.0422 13.3104 11.0422ZM15.2963 15.8639L18.4197 11.3032C18.4442 11.2786 18.4442 11.2539 18.4442 11.2195C18.4442 11.1357 18.3706 11.0471 18.2873 11.0471H17.3458C17.2625 11.0471 17.1742 11.0963 17.1252 11.1702L15.8258 13.091L15.2865 11.2441C15.2472 11.1357 15.1394 11.0471 15.0168 11.0471H14.0999C14.0165 11.0471 13.943 11.1357 13.943 11.2195C13.943 11.2786 14.8991 14.0169 14.9825 14.278C14.8501 14.4651 13.9773 15.6866 13.9773 15.8343C13.9773 15.923 14.0508 15.9919 14.1342 15.9919H15.0756C15.1639 15.987 15.2472 15.9378 15.2963 15.8639ZM23.1072 10.6087C23.1072 9.57445 22.3129 9.22969 21.4058 9.22969H19.4592C19.3268 9.22969 19.2042 9.32819 19.1895 9.46117L18.3951 14.4848C18.3853 14.5833 18.4589 14.6818 18.552 14.6818H19.5572C19.6553 14.6818 19.7288 14.608 19.7533 14.5242L19.974 13.0959C20.023 12.7413 20.6212 12.8645 20.8566 12.8645C22.2491 12.8645 23.1072 12.0272 23.1072 10.6087ZM27.2357 11.0422H26.3041C26.1178 11.0422 26.108 11.313 26.0933 11.446C25.8236 11.0274 25.4068 10.9535 24.9312 10.9535C23.7299 10.9535 22.813 12.0124 22.813 13.1797C22.813 14.1401 23.4112 14.7656 24.3673 14.7656C24.8233 14.7656 25.3725 14.5242 25.6667 14.1795C25.652 14.2534 25.6177 14.411 25.6177 14.4848C25.6177 14.5981 25.6667 14.6818 25.7746 14.6818H26.6228C26.7552 14.6818 26.868 14.539 26.8925 14.4011L27.3926 11.2342C27.4074 11.1407 27.3338 11.0422 27.2357 11.0422ZM29.5648 9.40207C29.5648 9.30357 29.4912 9.22969 29.4079 9.22969H28.5008C28.4272 9.22969 28.3537 9.28879 28.3439 9.36267L27.5496 14.4848L27.5348 14.5095C27.5348 14.5981 27.6084 14.6818 27.7065 14.6818H28.5155C28.6381 14.6818 28.7607 14.539 28.7705 14.4011L29.5648 9.41685V9.40207ZM25.1518 11.9533C24.5537 11.9533 24.0878 12.431 24.0878 13.0368C24.0878 13.5146 24.4311 13.7756 24.8822 13.7756C25.4706 13.7756 25.9462 13.3225 25.9462 12.7167C25.9511 12.234 25.6079 11.9533 25.1518 11.9533Z" fill="white"/>
</svg>
