<svg width="33" height="26" viewBox="0 0 33 26" fill="none" xmlns="http://www.w3.org/2000/svg">
<rect width="32.2775" height="25.2168" rx="3.02602" fill="white"/>
<rect x="2.97247" y="6.48785" width="26.3327" height="12.731" fill="#231F20"/>
<path d="M25.0679 11.3918C25.0679 11.3918 25.4405 13.2239 25.5239 13.6081H23.8862C24.048 13.1698 24.6707 11.4657 24.6707 11.4657C24.6609 11.4804 24.8325 11.0175 24.9306 10.7318L25.0679 11.3918ZM30.2604 3.94001V21.2766C30.2604 22.5817 29.2062 23.6407 27.9069 23.6407H4.37115C3.07178 23.6407 2.01758 22.5817 2.01758 21.2766V3.94001C2.01758 2.63484 3.07178 1.57593 4.37115 1.57593H27.9069C29.2062 1.57593 30.2604 2.63484 30.2604 3.94001ZM9.49507 16.312L12.5939 8.66816H10.51L8.58306 13.8888L8.37222 12.8299L7.68576 9.31336C7.57299 8.82577 7.22485 8.68786 6.79337 8.66816H3.62095L3.58663 8.82084C4.36134 9.01785 5.0527 9.30351 5.65581 9.66304L7.41118 16.312H9.49507ZM14.1238 16.3219L15.3594 8.66816H13.3883L12.1575 16.3219H14.1238ZM20.9834 13.8199C20.9932 12.9481 20.4637 12.2832 19.331 11.7365C18.6397 11.3869 18.218 11.1504 18.218 10.7909C18.2278 10.4658 18.5759 10.1309 19.3506 10.1309C19.993 10.1162 20.4637 10.2688 20.8167 10.4215L20.9932 10.5052L21.2629 8.85039C20.8756 8.69771 20.2578 8.52533 19.4977 8.52533C17.5511 8.52533 16.1831 9.56947 16.1733 11.0569C16.1586 12.1552 17.154 12.7659 17.8993 13.1353C18.6593 13.5096 18.9192 13.7559 18.9192 14.0858C18.9094 14.5981 18.3013 14.8345 17.7375 14.8345C16.9529 14.8345 16.5313 14.7113 15.8889 14.4257L15.6291 14.3025L15.3545 16.0214C15.8154 16.2332 16.6686 16.4204 17.5511 16.4302C19.6203 16.4351 20.9687 15.4058 20.9834 13.8199ZM27.9069 16.3219L26.3182 8.66816H24.7933C24.3226 8.66816 23.9646 8.80607 23.7636 9.30351L20.8363 16.3219H22.9055C22.9055 16.3219 23.2438 15.3762 23.3174 15.1743H25.8475C25.9063 15.4452 26.0828 16.3219 26.0828 16.3219H27.9069Z" fill="white"/>
</svg>
