<svg width="365" height="365" viewBox="0 0 365 365" fill="none" xmlns="http://www.w3.org/2000/svg">
<path d="M99.9393 87.6192C112.056 77.0364 126.189 68.7636 141.716 63.4248L100.573 40.4529L99.9393 87.6192Z" fill="#F9A31D"/>
<path d="M264.246 40.4492L223.103 63.4211C238.63 68.7603 252.771 77.0327 264.885 87.6242L264.246 40.4492Z" fill="#F9A31D"/>
<path d="M270.319 22.679C245.23 8.78964 216.537 0.685584 186.026 0.0911865L217.22 52.3221L270.319 22.679ZM213.817 18.8401H226.38V31.4028H213.817V18.8401Z" fill="#F9A31D"/>
<path d="M364.475 178.538C363.88 148.028 355.777 119.341 341.896 94.2523L312.253 147.35L364.475 178.538ZM345.833 138.575L334.952 144.856L328.671 133.976L339.551 127.695L345.833 138.575Z" fill="#F9A31D"/>
<path d="M346.033 182.156L305.656 158.048C307.189 165.855 308.036 173.909 308.036 182.156C308.036 190.403 307.189 198.456 305.661 206.263L346.033 182.156Z" fill="#F9A31D"/>
<path d="M338.265 87.9493C322.988 62.7736 301.797 41.5734 276.621 26.305L277.451 87.1331L338.265 87.9493ZM291.267 56.4247L302.147 62.7061L295.866 73.5862L284.985 67.3048L291.267 56.4247Z" fill="#F9A31D"/>
<path d="M324.109 263.993L301.137 222.85C298.7 229.942 295.703 236.771 292.099 243.229C291.796 243.806 291.533 244.404 291.207 244.976C290.666 245.918 290.021 246.754 289.418 247.64C285.72 253.657 281.566 259.347 276.937 264.645L324.109 263.993Z" fill="#F9A31D"/>
<path d="M177.914 56.7578C179.392 56.6064 180.893 56.5307 182.407 56.5307C183.921 56.5307 185.421 56.6064 186.899 56.7578C193.576 56.9962 200.14 57.6635 206.517 58.9058L182.407 18.5284L158.299 58.9058C164.673 57.6607 171.237 56.9961 177.914 56.7578H177.914Z" fill="#F9A31D"/>
<path d="M100.571 323.864L141.714 300.892C126.187 295.552 112.045 287.28 99.9314 276.689L100.571 323.864Z" fill="#F9A31D"/>
<path d="M292.099 121.086C295.711 127.544 298.7 134.373 301.145 141.465L324.117 100.322L276.945 99.6825C281.255 104.621 285.167 109.884 288.672 115.448C289.57 116.684 290.425 117.98 291.205 119.337C291.535 119.912 291.799 120.501 292.099 121.087L292.099 121.086Z" fill="#F9A31D"/>
<path d="M264.877 276.692C252.76 287.275 238.628 295.548 223.101 300.887L264.243 323.858L264.877 276.692Z" fill="#F9A31D"/>
<path d="M72.7176 121.086C73.0204 120.509 73.284 119.911 73.6093 119.339C74.3945 117.982 75.2413 116.689 76.1414 115.45C79.6523 109.878 83.5671 104.609 87.8743 99.6711L40.7023 100.31L63.6742 141.453C66.1166 134.37 69.1059 127.541 72.7179 121.086L72.7176 121.086Z" fill="#F9A31D"/>
<path d="M186.902 307.553C185.425 307.705 183.924 307.781 182.41 307.781C180.896 307.781 179.396 307.705 177.918 307.553C171.241 307.315 164.677 306.648 158.3 305.405L182.41 345.783L206.518 305.405C200.144 306.651 193.58 307.315 186.903 307.553H186.902Z" fill="#F9A31D"/>
<path d="M94.4977 341.631C119.587 355.52 148.279 363.621 178.79 364.219L147.596 311.988L94.4977 341.631ZM150.999 345.47H138.436V332.907H150.999V345.47Z" fill="#F9A31D"/>
<path d="M26.5511 276.362C41.8282 301.538 63.0197 322.738 88.1955 338.006L87.3655 277.178L26.5511 276.362ZM73.5495 307.887L62.6694 301.605L68.9508 290.725L79.8309 297.006L73.5495 307.887Z" fill="#F9A31D"/>
<path d="M0.343872 185.774C0.938363 216.283 9.04232 244.97 22.9231 270.059L52.5662 216.962L0.343872 185.774ZM18.9863 225.736L29.8663 219.455L36.1477 230.335L25.2677 236.616L18.9863 225.736Z" fill="#F9A31D"/>
<path d="M276.607 338.013C301.783 322.744 322.983 301.544 338.252 276.368L277.429 277.184L276.607 338.013ZM297.261 284.733L308.141 291.014L301.859 301.895L290.979 295.613L297.261 284.733Z" fill="#F9A31D"/>
<path d="M186.026 364.222C216.527 363.625 245.217 355.524 270.304 341.64L217.216 311.991L186.026 364.222ZM230.588 328.413L236.869 339.293L225.989 345.574L219.707 334.694L230.588 328.413Z" fill="#F9A31D"/>
<path d="M341.884 270.066C355.773 244.977 363.874 216.285 364.471 185.774L312.24 216.962L341.884 270.066ZM345.723 213.565V226.127H333.16V213.565H345.723Z" fill="#F9A31D"/>
<path d="M88.2093 26.3022C63.0335 41.5713 41.8334 62.7708 26.5649 87.9465L87.3881 87.1305L88.2093 26.3022ZM67.5561 79.5819L56.6761 73.3005L62.9575 62.4205L73.8375 68.7018L67.5561 79.5819Z" fill="#F9A31D"/>
<path d="M22.9332 94.245C9.04379 119.334 0.939735 148.027 0.345337 178.538L52.5762 147.35L22.9332 94.245ZM19.0942 150.747V138.184H31.657V150.747H19.0942Z" fill="#F9A31D"/>
<path d="M178.79 0.0911865C148.287 0.685678 119.6 8.78964 94.5122 22.6704L147.601 52.3192L178.79 0.0911865ZM134.229 35.9008L127.948 25.0207L138.828 18.7393L145.109 29.6194L134.229 35.9008Z" fill="#F9A31D"/>
<path d="M87.872 264.632C83.2479 259.338 79.0896 253.651 75.3961 247.636C74.7932 246.749 74.151 245.914 73.607 244.972C73.2733 244.4 73.0153 243.811 72.7153 243.225C69.1035 236.767 66.1142 229.938 63.6687 222.846L40.6968 263.989L87.872 264.632Z" fill="#F9A31D"/>
<path d="M18.7841 182.156L59.1615 206.263C57.6276 198.456 56.7807 190.402 56.7807 182.156C56.7807 173.909 57.6276 165.855 59.1559 158.048L18.7841 182.156Z" fill="#F9A31D"/>
</svg>
