<svg width="33" height="26" viewBox="0 0 33 26" fill="none" xmlns="http://www.w3.org/2000/svg">
<rect x="0.468384" width="32.2775" height="25.2168" rx="3.02602" fill="white"/>
<path d="M8.21015 10.989V12.6185H10.4478C10.4026 12.8783 10.306 13.1262 10.1637 13.3475C10.0213 13.5687 9.83619 13.7588 9.61933 13.9063C9.24548 14.1651 8.76818 14.3124 8.20858 14.3124C7.12701 14.3124 6.21277 13.5654 5.88477 12.5656C5.71313 12.0396 5.71313 11.4719 5.88477 10.9459C6.21277 9.94017 7.12701 9.19316 8.20858 9.19316C8.50175 9.18765 8.79308 9.24098 9.06562 9.35003C9.33815 9.45908 9.58645 9.62168 9.79607 9.82837L10.9827 8.61878C10.2353 7.903 9.24096 7.50856 8.21015 7.519C7.43903 7.52198 6.68409 7.74221 6.03055 8.15482C5.37702 8.56743 4.85092 9.15598 4.51164 9.85405C4.21939 10.444 4.06726 11.0944 4.06726 11.7538C4.06726 12.4132 4.21939 13.0636 4.51164 13.6535V13.6594C4.85101 14.3571 5.37725 14.9451 6.03085 15.357C6.68446 15.7689 7.43935 15.9882 8.21015 15.9901C9.32582 15.9901 10.2695 15.6137 10.9533 14.9666C11.737 14.2314 12.1841 13.1435 12.1841 11.8494C12.1846 11.5612 12.1617 11.2734 12.1156 10.989H8.21015ZM23.4701 10.831C23.0732 10.4604 22.5324 10.2724 21.8482 10.2724C20.968 10.2724 20.3065 10.6019 19.8692 11.2544L20.6863 11.7783C20.9854 11.3306 21.3937 11.1067 21.9113 11.1067C22.2408 11.1075 22.5583 11.2312 22.8028 11.4539C22.9219 11.5582 23.0174 11.687 23.0829 11.8317C23.1484 11.9764 23.1824 12.1336 23.1825 12.2926V12.5103C22.8259 12.31 22.3772 12.2041 21.825 12.2041C21.1808 12.2041 20.6631 12.3574 20.2775 12.6691C19.8919 12.9808 19.6968 13.3924 19.6968 13.9158C19.6907 14.1497 19.7367 14.382 19.8312 14.5958C19.9257 14.8095 20.0664 14.9992 20.243 15.1511C20.6055 15.4805 21.066 15.6453 21.6064 15.6453C22.2447 15.6453 22.751 15.3569 23.1347 14.7805H23.1739V15.4805H24.0599V12.3716C24.0626 11.7178 23.8671 11.1999 23.4701 10.831ZM22.7166 14.3586C22.5807 14.498 22.4186 14.6088 22.2399 14.6845C22.0611 14.7601 21.8692 14.7992 21.6753 14.7995C21.4147 14.8039 21.1607 14.7166 20.957 14.5526C20.862 14.4808 20.7849 14.3875 20.7321 14.2803C20.6792 14.1731 20.652 14.0549 20.6526 13.9352C20.6526 13.6586 20.7787 13.4291 21.0264 13.247C21.2741 13.0649 21.5958 12.9705 21.9696 12.9705C22.4854 12.9642 22.889 13.0827 23.1766 13.3173C23.1766 13.7175 23.0214 14.0643 22.7166 14.3586ZM19.0467 8.74914C18.8387 8.53957 18.5909 8.37451 18.3181 8.26386C18.0453 8.15321 17.7532 8.09926 17.4592 8.10523H15.0033V15.4821H15.9293V12.4941H17.4576C18.0846 12.4941 18.6136 12.2823 19.0451 11.8648C19.0796 11.8296 19.1141 11.7941 19.1489 11.7589C19.5265 11.3435 19.7274 10.7953 19.7082 10.2322C19.6891 9.66905 19.4516 9.13598 19.0467 8.74756V8.74914ZM18.3969 11.2074C18.2802 11.3331 18.1382 11.4321 17.9805 11.4981C17.8228 11.564 17.6529 11.5953 17.4823 11.5898H15.9293V9.01381H17.4823C17.8137 9.0126 18.1321 9.14369 18.3679 9.37843C18.6078 9.61927 18.7451 9.94494 18.7505 10.2862C18.7559 10.6275 18.6291 10.9574 18.3969 11.2059V11.2074ZM28.1405 10.4359L26.7086 14.0584H26.6909L25.2246 10.4359H24.2178L26.2473 15.1586L25.0972 17.6994H26.0514L29.1472 10.4359H28.1405Z" fill="#231F20"/>
</svg>
