<svg viewBox="0 0 457 328" fill="none" xmlns="http://www.w3.org/2000/svg">
  <g clip-path="url(#a)">
    <path fill="#000" d="M0 0h456.929v327.819H0z"/>
    <path fill="#F9A31D" d="M0-17h475v350H0z"/>
    <path d="M-8.42947-44.7989C9.39581-49.7174-27.4842-4.5-7.8147-4.5-276.441 94.2919-125.5 41.8736-125.5 158.062c.004 116.186 33 164.938 174.2414 210.858-19.6739 0-38.7298-2.457-56.55614-7.993C41.3656 406.419 107.756 434.695 180.296 434.695c153.07 0 276.633-123.563 276.633-276.633 0-153.07067-124.792-276.634-277.248-276.634-72.537 0-138.9312 27.6627-188.11047 73.7682v.0049Z" fill="#000"/>
  </g>
  <defs>
    <clipPath id="a">
      <path fill="#fff" d="M0 0h456.929v327.819H0z"/>
    </clipPath>
  </defs>
</svg>
