<svg viewBox="0 0 662 485" fill="none" xmlns="http://www.w3.org/2000/svg">
  <path d="M464.616 63.6007c10.137-7.9063 20.273-15.8126 30.409-23.7189 5.879-4.46 11.758-9.1227 17.435-13.5826 4.257-3.2436 8.717-6.8927 10.136-12.1636 2.635-9.73078-7.095-15.40708-15.407-11.75802-5.271 2.22998-9.123 6.89267-12.772 10.94722-4.257 4.8654-8.312 10.3389-11.758 15.8125-7.095 10.7445-13.177 22.2998-18.853 33.6525-1.42 1.0136.202 2.0272.81.8109ZM570.087 141.682c12.771-1.014 25.746-2.028 38.315-4.46 6.487-1.217 12.772-2.838 19.056-4.866 5.271-1.824 10.947-3.649 15.002-7.501 6.69-6.284 5.271-17.434-4.866-18.853-5.473-.608-10.541 2.027-15.204 4.663-6.487 3.649-12.975 7.298-19.259 10.947-11.15 6.284-22.3 12.569-33.45 19.056-1.216 0-1.013 2.027.406 1.014ZM656.043 266.561c-4.663-3.041-10.745-3.852-16.218-4.663-6.487-.811-13.177-1.216-19.665-1.216-12.974 0-25.746 1.216-38.518 2.635-1.621-.608-1.419 1.419-.202 1.216 12.163 4.055 24.327 8.312 36.49 12.367 7.096 2.432 13.988 4.865 21.084 7.095 5.068 1.622 10.542 3.446 15.812 1.825 9.529-3.041 8.92-14.191 1.217-19.259ZM587.555 414.06c-6.285-3.852-12.772-7.501-19.056-11.353-11.15-6.487-22.097-12.974-33.247-19.461-.811-1.014-2.23 0-.811 1.013 7.298 10.745 14.596 21.287 23.111 31.017 4.257 4.866 8.919 9.731 13.785 13.988 4.054 3.649 8.514 7.704 13.988 9.326 8.717 2.635 17.84-4.257 13.785-13.583-2.027-5.271-7.095-8.312-11.555-10.947ZM163.824 421.038c-9.933 8.109-19.664 16.42-29.598 24.529-5.676 4.663-11.352 9.528-17.029 14.191-4.054 3.446-8.514 7.095-9.731 12.569-2.432 9.934 7.501 15.204 15.813 11.15 5.068-2.433 8.92-7.095 12.366-11.353 4.055-5.068 7.907-10.541 11.353-16.015 6.69-10.947 12.366-22.705 17.84-34.261 1.216-1.013-.406-2.027-1.014-.81ZM88.2082 312.174c-12.7717 1.013-25.7461 2.23-38.3151 4.865-6.4872 1.217-12.7717 3.041-19.0562 5.068-5.2708 1.825-10.9472 3.649-15.0017 7.704-6.48718 6.487-5.0681 17.637 5.0682 18.853 5.4736.609 10.5417-2.23 15.2044-4.865 6.4872-3.649 12.7717-7.501 19.2589-11.15 11.1499-6.487 22.2998-12.772 33.247-19.259 1.4191-.203 1.2163-2.027-.4055-1.216ZM40.9731 169.05c12.7717 1.013 25.7461.608 38.7206.202 1.6218.609 1.6218-1.216.2027-1.216-11.7581-5.068-23.5162-10.136-35.477-15.204-6.8926-2.839-13.5826-5.879-20.4752-8.718-4.8655-2.027-10.3391-4.257-15.60991-3.041-9.93355 2.433-9.93355 13.583-2.83816 19.259 4.45996 3.447 10.33897 4.663 15.81257 5.879 6.4872 1.42 13.1772 2.23 19.6644 2.839ZM84.9647 25.5201c6.2845 3.8517 12.569 7.7035 19.0563 11.5553 10.947 6.6899 21.894 13.3799 32.841 20.0698.811 1.0137 2.23 0 .811-1.0136-7.095-10.7445-14.393-21.4889-22.705-31.4225-4.257-5.0681-8.717-9.7308-13.583-14.1907-4.054-3.6491-8.514-7.90633-13.9876-9.528134C78.6802-1.64517 69.5576 5.04477 73.4094 14.3701c2.2299 5.2709 7.0954 8.3118 11.5553 11.15ZM219.574 160.13c-9.933 0-12.771 10.541-7.095 17.434 3.446 4.257 8.717 6.893 13.583 9.326 5.676 2.838 11.758 5.27 17.839 7.298 11.961 4.054 24.125 6.69 36.491 9.325 1.419 1.014 1.825-.811.608-1.014-9.933-7.5-19.867-15.204-29.8-22.705-5.677-4.46-11.556-8.717-17.232-13.177-4.46-3.244-9.123-6.487-14.394-6.487ZM275.324 229.867c1.216.203 1.622-1.622 0-1.216-12.366-2.027-24.733-4.055-37.302-4.866-6.487-.405-12.771-.405-19.259.203-5.27.406-11.149.811-16.015 3.447-7.703 4.46-9.122 15.407.203 18.853 5.068 2.027 10.542.608 15.407-.811 6.893-1.824 13.988-3.852 20.881-5.676 11.961-3.244 24.124-6.69 36.085-9.934ZM286.676 259.06c-11.15 5.676-22.299 11.352-33.449 17.029-6.488 3.243-12.772 6.487-19.259 9.933-4.663 2.433-9.528 5.068-11.961 9.934-4.257 8.92 4.054 16.015 12.772 13.988 5.271-1.216 9.933-4.866 14.19-8.109 5.069-4.055 9.731-8.312 14.191-12.975 8.717-8.92 16.624-18.853 24.327-28.787 1.419-.81 0-2.027-.811-1.013ZM307.759 275.278c-7.298 10.136-14.596 20.475-20.678 31.422-3.041 5.677-5.879 11.353-8.311 17.232-2.028 5.068-4.258 10.339-3.852 16.015.608 8.92 9.731 14.799 17.029 8.109 4.054-3.649 5.068-9.122 6.081-14.191 1.42-7.095 2.636-14.19 4.055-21.286 2.23-12.366 4.663-24.529 6.893-36.896.608-1.013-.811-2.027-1.217-.405ZM350.941 350.084c1.824-5.271 1.013-10.948.405-16.421-.811-6.285-2.027-12.569-3.446-18.854-3.041-12.163-7.298-24.124-11.758-35.882.203-1.622-1.622-1.014-1.216.203-1.014 12.366-2.028 24.935-3.041 37.301-.609 7.095-1.217 14.394-1.825 21.489-.405 5.068-.811 10.744 2.027 15.407 5.474 8.515 15.813 5.068 18.854-3.243ZM402.23 310.755c-5.271-5.068-10.339-9.934-15.61-15.002-9.123-8.717-18.043-17.231-27.165-25.949-.406-1.216-2.23-.405-1.014.609 4.46 11.758 9.123 23.516 15.002 34.666 3.041 5.676 6.284 11.149 9.933 16.42 3.041 4.46 6.487 9.123 11.15 11.961 7.704 4.46 17.84 0 16.218-9.731-.811-5.473-4.663-9.325-8.514-12.974ZM377.904 247.099c10.339 7.095 20.678 14.191 30.814 21.286 5.879 4.055 11.961 8.109 17.84 12.366 4.257 2.839 8.92 6.082 14.393 5.879 9.934-.405 12.164-11.149 6.285-17.839-3.649-4.055-8.92-6.488-13.988-8.515-5.879-2.635-11.961-4.663-18.043-6.487-12.163-3.446-24.53-5.676-36.896-7.704-1.216-1.013-1.622.811-.405 1.014ZM418.854 215.879c-12.164 2.838-24.327 5.474-36.491 8.312-1.216-.203-1.622 1.622 0 1.216 12.366 2.636 24.53 5.271 37.099 6.488 6.284.608 12.772 1.013 19.259.811 5.473-.203 11.15-.406 16.218-2.839 7.906-4.054 9.731-14.799.608-18.853-4.865-2.23-10.542-1.014-15.61.203-6.892 1.621-13.988 3.243-21.083 4.662ZM373.038 195.809c-1.622.608-.203 2.028.608 1.014 11.555-4.663 23.313-9.325 34.868-13.988 6.69-2.636 13.38-5.271 20.07-8.109 4.866-2.027 9.934-4.055 12.772-8.717 5.271-8.515-2.433-16.218-11.353-15.205-5.473.608-10.339 3.852-14.799 6.893-5.473 3.446-10.541 7.298-15.407 11.555-9.325 8.312-18.042 17.435-26.759 26.557ZM182.476 110.259c6.892 4.055 13.582 8.109 20.475 11.961 11.758 6.893 23.516 13.988 35.477 20.881.811 1.216 2.433 0 .811-1.014-7.704-11.352-15.61-22.705-24.733-33.044-4.662-5.271-9.528-10.3391-14.799-15.0018-4.46-3.8518-9.122-8.3117-15.001-9.9335-9.326-2.6355-19.057 4.4599-14.799 14.5962 2.432 5.4731 7.703 8.7171 12.569 11.5551ZM146.188 200.269c6.892 1.419 13.785 2.433 20.88 2.838 13.786 1.014 27.571.811 41.356.203 1.622.811 1.622-1.419.203-1.216-12.569-5.271-25.138-10.745-37.91-16.016-7.298-3.04-14.596-6.284-21.894-9.325-5.271-2.23-10.947-4.663-16.623-3.244-10.542 2.636-10.745 14.597-2.839 20.476 4.663 3.649 10.948 4.865 16.827 6.284ZM142.539 307.714c5.879.608 11.15-2.636 16.015-5.677 6.69-4.054 13.38-8.311 20.07-12.569 11.555-7.298 23.313-14.393 34.869-21.691 1.419-.203 1.013-2.23-.406-1.217-13.582 1.622-27.368 3.447-40.748 6.488-6.892 1.621-13.582 3.649-20.069 6.081-5.474 2.028-11.556 4.258-15.61 8.718-6.893 7.095-5.068 19.056 5.879 19.867ZM218.966 395.494c5.271-2.838 8.92-8.109 12.366-12.974 4.055-5.677 7.704-11.759 11.15-17.84 6.488-12.164 11.758-24.935 16.827-37.707 1.419-1.217-.609-2.027-1.014-.811-9.934 9.325-20.07 18.651-30.003 28.179-5.677 5.473-11.556 10.744-17.232 16.218-4.055 3.852-8.515 8.109-9.731 13.988-1.824 10.744 9.123 15.812 17.637 10.947ZM476.427 340.15c-6.893-4.055-13.785-7.907-20.475-11.758-11.961-6.893-23.719-13.786-35.68-20.476-.811-1.216-2.433 0-.811 1.014 7.906 11.353 15.813 22.502 24.935 32.841 4.663 5.271 9.528 10.34 14.799 14.799 4.46 3.852 9.326 8.109 15.002 9.731 9.325 2.636 18.853-4.662 14.596-14.596-2.23-5.676-7.501-8.717-12.366-11.555ZM509.269 273.048c5.271 2.23 10.947 4.46 16.826 3.041 10.542-2.636 10.542-14.799 2.635-20.476-4.865-3.649-11.15-4.865-16.826-5.879-6.893-1.419-13.785-2.23-20.881-2.635-13.785-1.014-27.57-.406-41.356.203-1.621-.609-1.621 1.419-.202 1.216 12.569 5.271 25.34 10.339 37.909 15.61 7.298 2.838 14.597 5.879 21.895 8.92ZM446.424 191.147c13.786-.811 27.571-2.028 41.154-4.46 6.892-1.217 13.785-2.838 20.475-5.068 5.676-1.825 11.758-3.649 16.218-7.907 7.095-6.69 5.879-18.65-5.068-20.069-5.879-.811-11.353 2.027-16.218 4.865-6.893 3.852-13.786 7.704-20.678 11.353-11.961 6.69-23.922 13.177-36.085 19.867-1.622.405-1.419 2.432.202 1.419ZM471.622 80.5903c-5.473 2.23-9.731 7.0954-13.785 11.5554-4.663 5.2708-8.92 10.7443-12.975 16.6233-7.703 11.353-14.393 23.516-20.88 35.68-1.419 1.013.405 2.027 1.013.811 10.948-8.312 21.895-16.421 32.842-24.733 6.284-4.662 12.569-9.528 18.853-14.191 4.46-3.446 9.528-7.0949 11.15-12.974 3.041-10.5417-7.095-16.6234-16.218-12.7717ZM76.0441 218.92c-7.5008-.608-15.8125-1.419-23.1107 1.216-11.758 4.46-16.218 19.259-4.0545 26.557 6.69 3.852 14.5963 3.244 21.8944 2.433 10.1363-1.014 20.2725-2.23 30.4087-3.244 17.637-1.824 35.274-3.851 52.911-5.676 1.622.608 2.433-2.027.203-1.622-16.826-5.879-33.855-11.555-51.087-15.407-9.1223-2.027-18.2449-3.446-27.1649-4.257ZM179.637 318.661c-15.407 8.92-30.611 17.84-46.019 26.76-8.92 5.068-17.637 10.339-26.557 15.407-6.284 3.649-13.1768 7.704-16.2177 14.799-5.4736 12.975 6.8926 22.3 19.0557 18.854 7.501-2.028 13.786-7.704 19.462-12.772 6.893-5.879 13.177-12.569 19.259-19.259 11.758-13.38 22.097-27.976 32.233-42.572 1.825-1.217-.202-2.636-1.216-1.217ZM488.933 402.692c-15.451-8.507-30.983-17.2-46.434-25.707-1.103-1.509-3.273.104-1.161 1.393 10.518 14.428 21.037 28.855 32.982 41.995 6.014 6.662 12.585 13.081 19.55 18.884 5.92 4.933 12.085 10.423 19.711 12.175 12.27 3.261 24.388-6.467 18.595-19.201-3.089-7.057-10.065-10.864-16.508-14.462-8.823-4.991-17.831-9.9-26.735-15.077ZM481.09 307.308c15.407 8.718 31.017 17.232 46.424 25.949 8.92 5.068 17.84 9.934 26.76 15.002 6.487 3.649 13.38 7.501 21.083 6.487 13.988-1.824 15.813-17.231 6.69-25.949-5.676-5.473-13.583-7.906-20.881-10.339-8.717-2.838-17.434-5.068-26.354-6.69-17.434-3.243-35.274-4.662-53.114-6.081-2.027-1.217-2.23 1.419-.608 1.621ZM601.509 223.583c11.758-4.866 15.407-19.867 3.243-26.557-6.69-3.649-14.596-2.636-21.894-1.622-10.136 1.419-20.273 2.838-30.409 4.46-17.434 2.433-35.071 5.068-52.506 7.501-1.621-.608-2.432 2.027 0 1.622 17.029 5.27 34.058 10.136 51.695 13.38 8.92 1.621 17.84 2.838 26.963 3.243 7.298.406 15.61.811 22.908-2.027ZM476.63 138.235c15.408-8.514 31.017-17.231 46.425-25.746 8.919-4.865 17.839-9.933 26.759-14.7988 6.488-3.6491 13.38-7.5008 16.421-14.5962 5.676-12.7717-6.284-22.5026-18.651-19.2589-7.501 2.0272-13.785 7.2981-19.664 12.3662-6.893 5.879-13.38 12.1635-19.462 18.8535-11.961 13.1772-22.705 27.5702-33.044 41.9642-2.027 1.014.203 2.635 1.216 1.216ZM115.373 91.8112c-6.284-4.46-12.974-9.3254-20.6779-10.7445-12.3662-2.23-23.9216 8.3118-17.0289 20.6783 3.649 6.69 10.9472 10.136 17.6371 13.177 9.3257 4.257 18.6507 8.514 27.7737 12.772 16.015 7.298 32.233 14.799 48.248 22.097 1.217 1.419 3.244-.406 1.014-1.419-11.555-13.583-23.111-27.166-36.085-39.329-6.69-6.082-13.583-11.961-20.881-17.2318Z" fill="#F9A31D"/>
</svg>
