<svg viewBox="0 0 75 10" fill="none" xmlns="http://www.w3.org/2000/svg">
  <path d="M74.0079 8.28918 66.7695.304929c-.3515-.3877771-1.0235-.38844-1.3757.000648L58.8481 7.53045 52.2984.304914c-.3516-.3890866-1.0235-.3890866-1.3751 0l-6.549 7.225536L37.8246.304914C37.6485.110694 37.3993 0 37.1371 0s-.5114.110704-.6875.304267L29.8981 7.53047 23.3439.304267c-.3515-.3877777-1.0235-.3877777-1.375 0L15.4167 7.53097 8.86004.304267c-.35154-.3877777-1.02352-.3877777-1.37506 0L.240718 8.28852c-.344406.38002-.3159167.96654.064091 1.31096.177382.1612.400738.24083.622785.24083.253116 0 .504966-.10229.688166-.30427l6.55665-7.2267 6.55669 7.2267c.3528.38844 1.0235.38778 1.375 0l6.5515-7.2262 6.5542 7.2262c.3515.38778 1.0235.38778 1.375 0l6.5515-7.2262 6.5497 7.22554c.3516.38909 1.0235.38909 1.3751 0l6.549-7.22554 6.5497 7.22554c.3515.38909 1.0235.38909 1.3757 0l6.5464-7.22554 6.5508 7.22554c.3438.37807.9297.40916 1.311.06409.38-.34311.4086-.93028.0642-1.31029Z" fill="#fff"/>
</svg>
