<svg width="457" height="328" viewBox="0 0 457 328" fill="none" xmlns="http://www.w3.org/2000/svg">
<g clip-path="url(#clip0_364_5016)">
<rect width="456.929" height="327.819" fill="black"/>
<rect y="-17" width="475" height="350" fill="#F9A31D"/>
<path d="M-8.42947 -44.7989C9.39581 -49.7174 -27.4842 -4.5 -7.8147 -4.5C-276.441 94.2919 -125.5 41.8736 -125.5 158.062C-125.496 274.248 -92.5 323 48.7414 368.92C29.0675 368.92 10.0116 366.463 -7.81474 360.927C41.3656 406.419 107.756 434.695 180.296 434.695C333.366 434.695 456.929 311.132 456.929 158.062C456.929 4.99133 332.137 -118.572 179.681 -118.572C107.144 -118.572 40.7498 -90.9093 -8.42947 -44.8038V-44.7989Z" fill="black"/>
</g>
<defs>
<clipPath id="clip0_364_5016">
<rect width="456.929" height="327.819" fill="white"/>
</clipPath>
</defs>
</svg>
