<svg width="723" height="707" viewBox="0 0 723 707" fill="none" xmlns="http://www.w3.org/2000/svg">
<g clip-path="url(#clip0_364_5012)">
<rect width="722.21" height="706.071" fill="#F9A31D"/>
<path d="M251.953 576C193.63 487.233 136.456 411.334 81.9387 320C54.097 273.098 26.9047 226.295 0.367859 179.5C-207.185 -186.495 -374.641 -551.965 -499.095 -960L-222.644 -1152C-94.5584 -713.001 99.29 -385.43 330.5 -0.0891113C343.208 21.0901 356.028 42.4437 368.957 64L1327.83 -384L1331.45 -64L525.801 448C1013.56 1167.89 1655.89 1767.69 2400.02 2200.81L3485.91 2688C3105.85 2563.86 2742.17 2399.96 2400.02 2200.81L1203.54 1664C843.681 1336.54 524.288 979.314 251.953 576Z" fill="black"/>
</g>
<defs>
<clipPath id="clip0_364_5012">
<rect width="722.21" height="706.071" fill="white"/>
</clipPath>
</defs>
</svg>
