<svg width="114" height="83" viewBox="0 0 114 83" fill="none" xmlns="http://www.w3.org/2000/svg">
<path d="M87.5372 55.8094C86.6592 56.7969 85.4519 58.1144 84.0251 59.3215L91.7069 71.9416H21.471L29.1528 59.4309C27.7259 58.1142 26.5188 56.907 25.6406 55.9187L15.1049 73.2582C14.6662 74.0268 14.6662 74.904 15.1049 75.6725C15.5435 76.4411 16.3121 76.8798 17.1902 76.8798H96.0959C96.9739 76.8798 97.7417 76.4411 98.1812 75.6725C98.6198 74.904 98.6198 74.0267 98.1812 73.2582L87.5372 55.8094Z" fill="#B93128"/>
<path d="M56.59 13.9969L64.9303 27.7149C67.4542 28.2638 69.8686 29.0316 71.9539 30.0199L58.6745 8.07117C58.2359 7.30259 57.4673 6.86395 56.5892 6.86395C55.7112 6.86395 54.9434 7.30259 54.5039 8.07117L41.2261 30.0199C43.4208 29.0324 45.7258 28.2638 48.2497 27.7149L56.59 13.9969Z" fill="#B93128"/>
<path d="M56.5898 31.2266C40.2378 31.2266 30.1416 42.6396 27.398 46.1518C26.3003 47.5787 26.3003 49.664 27.398 51.2004C30.1416 54.6022 40.238 66.0154 56.5898 66.0154C72.9416 66.0154 83.0381 54.6024 85.7817 51.0902C86.8794 49.6633 86.8794 47.578 85.7817 46.0416C83.0381 42.6406 72.9416 31.2266 56.5898 31.2266V31.2266ZM31.239 48.6757C32.7754 46.8101 36.2876 42.8593 41.6645 39.7866C40.1281 42.4207 39.2501 45.3834 39.2501 48.6757C39.2501 51.968 40.1282 54.9315 41.6645 57.5647C36.2869 54.4919 32.7755 50.5411 31.239 48.6757ZM56.5898 61.5157C49.4569 61.5157 43.7498 55.6993 43.7498 48.6757C43.7498 41.6521 49.4567 35.8357 56.5898 35.8357C63.723 35.8357 69.4298 41.6521 69.4298 48.6757C69.4298 55.6993 63.723 61.5157 56.5898 61.5157ZM71.515 57.4554C73.0514 54.8213 73.9293 51.8586 73.9293 48.5663C73.9293 45.2738 73.0513 42.3105 71.515 39.6773C76.8926 42.6406 80.404 46.5913 81.9404 48.5663C80.4041 50.5413 76.8926 54.4921 71.515 57.4554Z" fill="#B93128"/>
<path d="M56.5896 39.8964C55.3824 39.8964 54.1753 40.1161 53.1878 40.5547C54.7241 40.9934 55.7117 42.4203 55.7117 44.0669C55.7117 46.1522 54.0658 47.798 51.9806 47.798C50.3347 47.798 48.9078 46.7002 48.4684 45.2741C48.0298 46.3718 47.8101 47.4688 47.8101 48.6759C47.8101 53.5049 51.7608 57.4556 56.5897 57.4556C61.4187 57.4556 65.3694 53.5049 65.3694 48.6759C65.3694 43.8463 61.4187 39.8963 56.5897 39.8963L56.5896 39.8964Z" fill="#B93128"/>
<path d="M16.6432 49.883C16.8629 48.5664 15.9848 47.3591 14.6682 47.1395L7.31534 45.9322C5.99865 45.7125 4.79143 46.5906 4.57175 47.9072C4.35207 49.2239 5.2301 50.4311 6.54675 50.6508L13.8996 51.858H14.3382C15.436 51.8588 16.4235 50.9808 16.6432 49.883H16.6432Z" fill="#B93128"/>
<path d="M29.154 23.6544C29.5927 24.3127 30.3613 24.6419 31.129 24.6419C31.5677 24.6419 32.1165 24.5324 32.5559 24.2033C33.6537 23.4347 33.8726 21.8983 33.1048 20.8014L28.7154 14.656C27.9469 13.5582 26.4104 13.3393 25.3136 14.1071C24.2158 14.8757 23.9969 16.4121 24.7647 17.5089L29.154 23.6544Z" fill="#B93128"/>
<path d="M12.3632 32.3241L18.7284 36.2749C19.167 36.4946 19.6064 36.6041 20.045 36.6041C20.8136 36.6041 21.6909 36.1654 22.1304 35.5063C22.7887 34.4086 22.4595 32.8723 21.3618 32.2138L14.8871 28.1535C13.7894 27.4951 12.2531 27.8243 11.5946 28.9221C10.9363 30.019 11.2654 31.5555 12.3632 32.3239L12.3632 32.3241Z" fill="#B93128"/>
<path d="M108.718 47.798C108.498 46.4813 107.291 45.6034 105.975 45.823L98.6217 47.0303C97.305 47.25 96.427 48.4572 96.6467 49.7739C96.8664 50.9811 97.8539 51.7488 99.0611 51.7488H99.4997L106.853 50.5416C108.06 50.4322 108.938 49.1155 108.718 47.798H108.718Z" fill="#B93128"/>
<path d="M80.6236 24.2031C81.0623 24.5323 81.5017 24.6418 82.0505 24.6418C82.8191 24.6418 83.5869 24.3126 84.0255 23.6542L88.4149 17.5088C89.1834 16.411 88.9637 14.8748 87.866 14.1069C86.7682 13.3384 85.2319 13.5581 84.4641 14.6558L80.0748 20.8013C79.307 22.0085 79.5259 23.4353 80.6237 24.2031H80.6236Z" fill="#B93128"/>
<path d="M93.1346 36.6041C93.5733 36.6041 94.0127 36.4946 94.4513 36.2749L100.816 32.3241C101.914 31.6658 102.243 30.1295 101.585 29.0316C100.927 27.9339 99.3903 27.6047 98.2925 28.2631L91.9274 32.2138C90.8296 32.8722 90.5005 34.4085 91.1588 35.5063C91.5982 36.1647 92.366 36.6041 93.1346 36.6041H93.1346Z" fill="#B93128"/>
</svg>
