<svg width="53" height="63" viewBox="0 0 53 63" fill="none" xmlns="http://www.w3.org/2000/svg">
<path d="M11.4762 17.4902C10.3115 17.2579 9.14683 17.9564 8.91454 19.121C8.68226 20.2857 9.38074 21.4504 10.5454 21.6827L38.7232 27.2719C39.6539 26.3411 41.0525 24.9425 42.4494 23.5456L11.4762 17.4902Z" fill="#B93128"/>
<path d="M15.1065 60.5704C15.3387 61.5011 16.2711 62.4335 17.2019 62.4335H17.6681L43.5164 57.3104L41.0841 52.6874L16.7354 58.009C15.5724 58.2413 14.8725 59.4057 15.1065 60.5704Z" fill="#B93128"/>
<path d="M37.724 38.5263H2.09533C0.930656 38.5263 -0.000106812 39.4571 -0.000106812 40.6217C-0.000106812 41.7864 0.930656 42.7172 2.09533 42.7172H38.4222C37.9576 41.3202 37.7237 39.9233 37.7237 38.5264L37.724 38.5263Z" fill="#B93128"/>
<path d="M16.7496 4.13704L48.0806 16.8416C49.2453 15.9108 50.6422 14.7462 52.0392 13.8138L18.3795 0.17863C17.2148 -0.287562 16.0501 0.178629 15.5855 1.3433C15.1194 2.50635 15.5849 3.90309 16.7496 4.13704Z" fill="#B93128"/>
</svg>
