<svg width="210" height="70" viewBox="0 0 210 70" fill="none" xmlns="http://www.w3.org/2000/svg">
<g clip-path="url(#clip0_356_1947)">
<path d="M91.0001 45.9667C89.1101 46.3634 86.5551 46.76 83.3351 46.76C79.3451 46.76 73.3135 44.87 73.3135 35.875V32.3867C73.3135 23.2867 79.1935 21.4667 83.8018 21.4667C87.2551 21.4667 89.7168 22.0034 91.0701 22.365C91.5368 22.4934 91.7001 22.5634 91.7001 22.995V27.1834C91.7001 27.58 91.5368 27.72 91.2335 27.72C91.1985 27.72 91.1635 27.72 91.1285 27.72C89.8685 27.615 87.1735 27.4167 84.7235 27.4167C81.5735 27.4167 80.1385 28.385 80.1385 32.3984V35.9217C80.1385 40.3667 82.0285 40.9967 83.3235 40.9967C83.9535 40.9967 84.5835 40.9617 85.1435 40.8917V34.09C85.1435 33.7284 85.4118 33.425 85.7735 33.425H91.0235C91.3851 33.425 91.6885 33.7284 91.6885 34.09V45.2084C91.7001 45.6984 91.5368 45.8617 91.0001 45.9667Z" fill="black"/>
<path d="M112.117 46.4684H107.1C106.739 46.4684 106.4 46.1417 106.4 45.7684V34.3117C106.4 32.7834 105.805 32.1534 104.009 32.1534C103.25 32.1534 102.515 32.2234 101.85 32.3867V45.7334C101.85 46.095 101.547 46.4684 101.185 46.4684H96.1686C95.8069 46.4684 95.4336 46.1067 95.4336 45.7334V21.4667C95.4336 21.105 95.7369 20.8017 96.0986 20.8017H101.174C101.535 20.8017 101.839 21.105 101.839 21.4667V27.3817C102.667 27.1834 103.892 26.845 105.42 26.845C110.297 26.845 112.759 29.505 112.759 34.2534V45.78C112.782 46.13 112.49 46.4684 112.117 46.4684Z" fill="black"/>
<path d="M132.568 38.5934H122.243V38.6634C122.243 40.425 122.978 41.5217 125.393 41.5217C127.155 41.5217 130.445 41.3934 131.705 41.2534C131.74 41.2534 131.798 41.2534 131.833 41.2534C132.195 41.2534 132.428 41.4167 132.428 41.8134V44.8C132.428 45.3367 132.3 45.5584 131.763 45.7334C129.64 46.4334 127.342 46.76 124.553 46.76C120.073 46.76 115.92 44.4034 115.92 38.0567V35.8634C115.92 30.0184 119.303 26.8334 124.752 26.8334C130.562 26.8334 133.257 30.52 133.257 35.8634V37.8584C133.268 38.3017 132.965 38.5934 132.568 38.5934ZM127.155 34.9767C127.155 32.9817 126.362 31.7917 124.693 31.7917C123.095 31.7917 122.232 32.9817 122.232 34.9767V35.0817H127.143V34.9767H127.155Z" fill="black"/>
<path d="M152.997 46.4683H148.015C147.619 46.4683 147.315 46.1067 147.315 45.7333V34.1833C147.315 32.9233 147.21 32.025 145.659 32.025H144.399C142.835 32.025 142.742 32.9233 142.742 34.1833V45.7333C142.742 46.095 142.439 46.4683 142.042 46.4683H137.06C136.664 46.4683 136.36 46.1067 136.36 45.7333V34.1833C136.36 29.0733 139.149 26.88 144.399 26.88H145.659C150.909 26.88 153.697 29.0733 153.697 34.1833V45.7333C153.685 46.095 153.394 46.4683 152.997 46.4683Z" fill="black"/>
<path d="M165.48 53.235C162.563 53.235 160.172 52.64 159.005 52.2434C158.538 52.08 158.34 51.8467 158.34 51.31V48.5917C158.34 48.23 158.573 47.9617 158.935 47.9617C158.97 47.9617 158.97 47.9617 159.005 47.9617C160.498 48.09 163.823 48.3584 165.48 48.3584C167.37 48.3584 167.907 47.9267 167.907 46.3984V45.8384C167.37 45.9434 166.25 46.0717 165.515 46.0717C159.635 46.0717 156.788 42.6884 156.788 37.4034V35.5134C156.788 29.9367 160.078 26.845 165.515 26.845C168.502 26.845 171.325 27.1717 172.958 27.6034C173.95 27.8717 174.125 28.035 174.125 28.595V46.3867C174.113 51.275 171.36 53.235 165.48 53.235ZM167.907 32.2817C167.277 32.2117 166.507 32.1184 165.515 32.1184C163.66 32.1184 163.123 33.5184 163.123 35.5017V37.3917C163.123 39.3167 163.66 40.81 165.515 40.81C166.308 40.81 167.242 40.7167 167.907 40.6467V32.2817Z" fill="black"/>
<path d="M183.739 25.3167H178.501C178.139 25.3167 177.742 25.0134 177.742 24.6517V21.3967C177.742 21.035 178.139 20.7317 178.501 20.7317H183.751C184.112 20.7317 184.486 21.035 184.486 21.3967V24.6517C184.474 25.0134 184.112 25.3167 183.739 25.3167ZM183.576 46.4684H178.629C178.267 46.4684 177.894 46.1067 177.894 45.7334V27.8367C177.894 27.475 178.256 27.1367 178.629 27.1367H183.576C183.937 27.1367 184.311 27.4634 184.311 27.8367V45.7334C184.311 46.095 183.937 46.4684 183.576 46.4684Z" fill="black"/>
<path d="M194.472 46.76C192.115 46.76 189.852 46.3984 188.335 45.9667C187.938 45.8617 187.705 45.6284 187.705 45.2317V41.8134C187.705 41.4167 187.939 41.1134 188.405 41.1134C188.44 41.1134 188.475 41.1134 188.534 41.1134C190.494 41.3817 193.153 41.65 194.25 41.65C195.51 41.65 195.813 41.3117 195.813 40.6817C195.813 40.32 195.615 40.0167 194.822 39.585L190.773 37.3917C188.685 36.26 187.624 34.5684 187.624 32.1417C187.624 28.7584 189.98 26.8334 194.927 26.8334C197.447 26.8334 199.442 27.23 201.04 27.6617C201.437 27.7667 201.705 27.9884 201.705 28.3967V31.92C201.705 32.3167 201.507 32.585 201.145 32.585C201.11 32.585 201.075 32.585 201.04 32.585C200.072 32.4567 196.828 32.0484 195.335 32.0484C194.472 32.0484 194.11 32.2467 194.11 32.7834C194.11 33.0517 194.343 33.285 194.845 33.5417L198.73 35.63C201.448 37.0884 202.218 38.955 202.218 40.81C202.172 44.17 199.838 46.76 194.472 46.76Z" fill="black"/>
<path d="M77.1167 54.775V49.3967H80.99V50.3767H78.1317V51.8467H80.8267V52.78H78.1317V54.775H77.1167Z" fill="black"/>
<path d="M85.6098 54.775V49.3966H86.6132V54.775H85.6098Z" fill="black"/>
<path d="M96.1917 54.775H94.99L93.4267 52.9783H92.4467V54.775H91.4317V49.385C92.2833 49.385 93.135 49.3967 93.9867 49.3967C95.2583 49.4083 95.9233 50.2483 95.9233 51.1817C95.9233 51.9167 95.585 52.6633 94.5583 52.8733L96.1917 54.7167V54.775ZM92.435 50.3417V52.0683H93.975C94.6167 52.0683 94.8967 51.6367 94.8967 51.205C94.8967 50.7733 94.6167 50.3417 93.975 50.3417H92.435Z" fill="black"/>
<path d="M104.463 54.775H100.438C100.438 52.9783 100.438 51.1816 100.438 49.3966H104.463V50.3766H101.442V51.6133H104.358V52.5583H101.442V53.7716H104.463V54.775Z" fill="black"/>
<path d="M114.987 54.775H114.123L113.458 53.0833L112.887 51.38L112.327 53.095L111.673 54.775H110.81L108.838 49.3967H109.982L111.253 53.2817L112.56 49.3967H113.225L114.567 53.2817L115.792 49.3967H116.935L114.987 54.775Z" fill="black"/>
<path d="M126.676 52.1149C126.665 53.5033 125.801 54.9033 123.911 54.9033C122.021 54.9033 121.146 53.5383 121.146 52.1266C121.146 50.7149 122.056 49.2916 123.911 49.2916C125.766 49.2799 126.688 50.7033 126.676 52.1149ZM122.15 52.1383C122.173 53.0249 122.651 53.9699 123.923 53.9699C125.195 53.9699 125.673 53.0133 125.685 52.1266C125.696 51.2166 125.195 50.2016 123.923 50.2016C122.64 50.2016 122.126 51.2283 122.15 52.1383Z" fill="black"/>
<path d="M136.045 54.775H134.843L133.28 52.9783H132.3V54.775H131.285V49.385C132.137 49.385 132.988 49.3966 133.852 49.3966C135.123 49.4083 135.788 50.2483 135.788 51.1816C135.788 51.9166 135.45 52.6633 134.423 52.8733L136.057 54.7166V54.775H136.045ZM132.288 50.3416V52.0683H133.84C134.482 52.0683 134.762 51.6366 134.762 51.205C134.762 50.7733 134.482 50.3416 133.84 50.3416H132.288Z" fill="black"/>
<path d="M144.62 49.42L142.228 51.9983L144.818 54.7166V54.775H143.558L141.306 52.395V54.775H140.291V49.3966H141.306V51.6716L143.348 49.3966H144.608V49.42H144.62Z" fill="black"/>
<path d="M152.495 50.6917C152.308 50.3883 151.807 50.0967 151.223 50.0967C150.465 50.0967 150.103 50.4117 150.103 50.8083C150.103 51.275 150.652 51.4033 151.305 51.485C152.425 51.625 153.475 51.9167 153.475 53.2C153.475 54.4017 152.413 54.915 151.212 54.915C150.115 54.915 149.263 54.5767 148.867 53.5967L149.718 53.1533C149.952 53.7483 150.582 54.005 151.235 54.005C151.877 54.005 152.472 53.7833 152.472 53.2C152.472 52.6983 151.935 52.4883 151.223 52.4067C150.127 52.2783 149.112 51.9867 149.112 50.7733C149.112 49.665 150.208 49.21 151.2 49.21C152.04 49.21 152.903 49.4433 153.312 50.2833L152.495 50.6917Z" fill="black"/>
<path d="M51.6831 28.8284C51.6014 28.7934 51.5314 28.7584 51.4614 28.7234C51.5314 28.7584 51.6014 28.7934 51.6831 28.8284Z" fill="#BE1E2D"/>
<path d="M52.0565 29.0033C52.0098 28.9799 51.9632 28.9566 51.9165 28.9449C51.9632 28.9566 52.0098 28.9799 52.0565 29.0033Z" fill="#BE1E2D"/>
<path d="M50.8786 28.4317C50.7386 28.35 50.5985 28.28 50.4702 28.1984C50.5985 28.2684 50.7386 28.35 50.8786 28.4317Z" fill="#BE1E2D"/>
<path d="M50.3532 28.1283C50.2599 28.07 50.1549 28.0117 50.0615 27.9417C50.1549 28 50.2599 28.07 50.3532 28.1283Z" fill="#BE1E2D"/>
<path d="M51.2747 28.6417C51.1463 28.5717 51.018 28.5134 50.8896 28.4434C51.018 28.5017 51.1463 28.5717 51.2747 28.6417Z" fill="#BE1E2D"/>
<path d="M49.9218 27.8484C49.8401 27.7901 49.7585 27.7434 49.6885 27.6851C49.7585 27.7434 49.8401 27.8017 49.9218 27.8484Z" fill="#BE1E2D"/>
<path d="M49.5133 27.5683C49.455 27.5217 49.3967 27.4867 49.3383 27.44C49.3967 27.4867 49.455 27.5333 49.5133 27.5683Z" fill="#BE1E2D"/>
<path d="M20.5102 27.7084C20.4285 27.7667 20.3585 27.8134 20.2769 27.86C20.3585 27.8134 20.4285 27.755 20.5102 27.7084Z" fill="#BE1E2D"/>
<path d="M19.7282 28.1984C19.5882 28.28 19.4598 28.35 19.3198 28.4317C19.4598 28.3617 19.5998 28.28 19.7282 28.1984Z" fill="#BE1E2D"/>
<path d="M19.215 28.49C19.11 28.5483 19.0167 28.595 18.9117 28.6417C19.0167 28.595 19.1217 28.5483 19.215 28.49Z" fill="#BE1E2D"/>
<path d="M20.86 27.4517C20.8017 27.4983 20.7433 27.5333 20.685 27.58C20.7433 27.545 20.8017 27.4983 20.86 27.4517Z" fill="#BE1E2D"/>
<path d="M18.7369 28.735C18.6669 28.77 18.5969 28.805 18.5269 28.84C18.5969 28.805 18.6669 28.77 18.7369 28.735Z" fill="#BE1E2D"/>
<path d="M18.2817 28.945C18.235 28.9683 18.2 28.98 18.1533 29.0033C18.2 28.98 18.235 28.9683 18.2817 28.945Z" fill="#BE1E2D"/>
<path d="M20.1251 27.9533C20.0201 28.0233 19.9268 28.0816 19.8218 28.14C19.9268 28.0816 20.0318 28.0233 20.1251 27.9533Z" fill="#BE1E2D"/>
<path d="M55.1131 43.995L55.0664 44.0183L53.6548 45.5583L55.3114 44.7417C55.2298 44.4967 55.1598 44.2517 55.1131 43.995Z" fill="#96121F"/>
<path d="M55.3232 44.7883C55.3816 45.3833 55.4516 45.9783 55.5449 46.5617L51.0532 48.7783C51.1349 49.0467 51.2049 49.2917 51.2749 49.5133L56.5599 46.9C55.9999 46.2933 55.5799 45.57 55.3232 44.7883Z" fill="#96121F"/>
<path d="M55.3233 44.7883C55.3233 44.7767 55.3117 44.765 55.3117 44.7417L53.655 45.5583L50.96 48.4983C50.9833 48.5917 51.0183 48.685 51.0417 48.7783L55.5333 46.5617C55.4517 45.9667 55.37 45.3833 55.3233 44.7883Z" fill="#B93128"/>
<path d="M58.0533 46.0367C58.0533 45.8383 58.0183 45.71 57.925 45.6283L57.19 46.5733C57.365 46.76 57.5633 46.9233 57.7617 47.0867L58.5433 45.5233C58.1933 45.5233 58.0533 45.675 58.0533 46.0367Z" fill="#96121F"/>
<path d="M58.5431 45.5117L59.4531 43.6917L58.1465 45.3483C58.2282 45.4533 58.3565 45.5 58.5431 45.5117Z" fill="#96121F"/>
<path d="M59.4654 43.6567L56.082 44.8584C56.1637 45.0684 56.2687 45.2784 56.3737 45.4767L59.4654 43.6567Z" fill="#96121F"/>
<path d="M59.4531 43.645L56.0114 42.98L55.7314 43.295C55.7548 43.5983 55.8014 43.9016 55.8714 44.1933L59.4531 43.645Z" fill="#96121F"/>
<path d="M59.465 43.6567H59.4533L55.8717 44.205C55.93 44.4267 56 44.6483 56.0817 44.87L59.465 43.6567Z" fill="#B93128"/>
<path d="M57.5281 45.5117C57.9131 45.5117 58.0648 45.36 58.0648 44.975C58.0648 45.1384 58.0998 45.255 58.1581 45.3367L59.4648 43.68L59.4764 43.645L56.3848 45.465C56.6064 45.8617 56.8748 46.2234 57.2014 46.55L57.9364 45.605C57.8431 45.5467 57.7148 45.5117 57.5281 45.5117Z" fill="#B93128"/>
<path d="M59.5117 29.12L56.455 32.0717L57.8433 31.8617L60.5033 29.2833C59.8733 28.9217 59.325 28.4433 58.87 27.8833C59.045 28.3267 59.255 28.735 59.5117 29.12Z" fill="#858585"/>
<path d="M58.6949 27.65C58.5315 27.4283 58.3799 27.195 58.2515 26.95L57.2832 27.8833L57.3999 28.8983L58.6949 27.65Z" fill="#858585"/>
<path d="M55.1015 30.5667L54.3315 31.8733L55.6149 30.6366C55.4399 30.6133 55.2649 30.6017 55.1015 30.5667Z" fill="#858585"/>
<path d="M57.6332 30.73H57.2365C56.6998 30.73 56.1632 30.695 55.6148 30.6366L54.3315 31.8733L53.9932 32.445L56.4665 32.0716L59.5232 29.12C59.2665 28.735 59.0448 28.3266 58.8932 27.895C58.8348 27.8133 58.7648 27.7433 58.7065 27.6616L57.4232 28.8983L57.6332 30.73Z" fill="#BDBDBD"/>
<path d="M62.125 25.3283L58.4967 25.76C58.555 25.9583 58.6367 26.145 58.7183 26.3317L62.125 25.3283Z" fill="#96121F"/>
<path d="M62.2648 25.3051H62.2414C61.6464 25.5617 59.4648 26.4484 58.9048 26.6817C58.9515 26.7751 59.0098 26.8567 59.0564 26.9384C59.6398 26.6584 61.6114 25.6551 62.2648 25.3051Z" fill="#96121F"/>
<path d="M61.3548 27.2417C61.7398 27.2417 61.8915 27.0901 61.8915 26.7051C61.8915 26.7751 61.9031 26.8334 61.9031 26.8801L62.2531 25.5384L62.2881 25.3051C61.6931 25.6551 59.6631 26.7517 59.1265 27.0434C59.6748 27.8601 60.4448 28.5251 61.3548 28.9217L61.7748 27.3584C61.6931 27.2767 61.5531 27.2417 61.3548 27.2417Z" fill="#96121F"/>
<path d="M44.0536 17.0217L44.9519 14.5017C43.9252 14.455 42.9219 14.21 42.0002 13.7783C41.9769 13.79 41.9652 13.8017 41.9419 13.8133C42.2219 14.1867 42.4902 14.595 42.7236 15.0383C43.1552 15.8083 43.5986 16.4617 44.0536 17.0217Z" fill="#858585"/>
<path d="M41.475 18.8417C41.545 18.9467 41.6267 19.0517 41.6967 19.1567C41.6267 19.0517 41.5567 18.9467 41.475 18.8417Z" fill="#858585"/>
<path d="M43.9483 10.0217C43.925 9.96333 43.8783 9.91667 43.8317 9.88167L42 12.7983L42.2567 13.1367C42.315 13.16 42.3733 13.195 42.4317 13.2183L43.9483 10.0217Z" fill="#B93128"/>
<path d="M40.7515 11.165L41.2648 11.8417L44.3681 8.80835L40.7515 11.165Z" fill="#B93128"/>
<path d="M44.2513 9.75331C44.333 9.78831 44.4263 9.79998 44.543 9.79998C44.403 9.79998 44.2863 9.82331 44.2046 9.86998L42.793 13.37C43.5863 13.6733 44.438 13.8366 45.3013 13.8366C45.5113 13.8366 45.7213 13.825 45.9313 13.8133L44.6363 8.85498L44.2513 9.75331Z" fill="#B93128"/>
<path d="M44.1232 9.66L44.5549 8.75L44.0532 9.54333C44.0649 9.59 44.0882 9.63667 44.1232 9.66Z" fill="#B93128"/>
<path d="M47.2381 22.2367L47.6348 22.0734C47.4948 22.0967 47.3548 22.1084 47.2031 22.12L47.2381 22.2367Z" fill="#858585"/>
<path d="M51.135 20.0667C51.17 20.055 51.2167 20.055 51.2517 20.055L51.8933 18.2467C50.7967 18.1767 49.735 17.8033 48.8367 17.15L47.8917 19.7983C48.1483 19.88 48.405 19.95 48.65 20.0083L49.49 17.64C49.8517 18.1533 50.3183 18.5733 50.82 18.9583L50.4 20.1483C50.855 20.1367 51.135 20.0783 51.135 20.0667Z" fill="#858585"/>
<path d="M49.4899 17.6517L48.6499 20.02C49.3499 20.1717 49.9566 20.195 50.3882 20.1717L50.8082 18.9817C50.3182 18.585 49.8516 18.165 49.4899 17.6517Z" fill="#BDBDBD"/>
<path d="M51.4617 15.645C51.4383 15.645 51.415 15.645 51.38 15.645C51.415 15.6333 51.4383 15.6333 51.4617 15.645L51.73 13.9067V13.895L51.695 13.9183L49.0117 16.415C49.6417 16.9283 50.3883 17.2783 51.1817 17.4533L51.4617 15.645Z" fill="#96121F"/>
<path d="M52.2783 15.6217L51.94 14.5717L52.1383 15.5867C52.185 15.5983 52.2317 15.61 52.2783 15.6217Z" fill="#96121F"/>
<path d="M51.5898 15.61C51.7298 15.575 51.8232 15.4933 51.8698 15.365C51.8582 14.9566 51.8582 14.5716 51.8465 14.28L51.7648 14.0233C51.7298 14.3616 51.6598 14.98 51.5898 15.61Z" fill="#96121F"/>
<path d="M52.535 17.57C52.6517 17.57 52.7683 17.5583 52.885 17.5467L52.29 15.6567C52.2433 15.6683 52.2083 15.68 52.1617 15.6917L52.535 17.57Z" fill="#96121F"/>
<path d="M51.8817 15.925C51.835 15.785 51.7417 15.6917 51.59 15.6567C51.52 16.38 51.4383 17.1267 51.4033 17.5C51.5667 17.5233 51.73 17.5467 51.8933 17.5583C51.8933 17.2083 51.8933 16.5783 51.8817 15.925Z" fill="#96121F"/>
<path d="M44.5667 28.175L45.6167 26.39L45.675 26.2267C44.5317 26.1917 43.4 25.9817 42.3267 25.5967C43.295 26.4017 44.1117 27.2767 44.5667 28.175Z" fill="#96121F"/>
<path d="M45.1383 18.1767L45.1617 18.0017L45.0917 17.7683L45.0683 17.7917L44.975 18.025C45.0217 18.0717 45.08 18.1183 45.1383 18.1767Z" fill="#B93128"/>
<path d="M45.71 22.0033C45.5583 22.015 45.395 22.0267 45.2317 22.0267C45.1967 22.0267 45.15 22.0267 45.1033 22.0267L45.0567 23.1233L46.585 22.4933L46.4683 22.1083C46.305 22.0967 46.1417 22.085 45.9783 22.05C45.885 22.0383 45.8033 22.0267 45.71 22.0033Z" fill="#B93128"/>
<path d="M44.975 25.4917C45.3017 25.5267 45.6283 25.5383 45.9667 25.5383C46.025 25.5383 46.0717 25.5383 46.13 25.5383L46.2467 25.34C45.8033 24.7683 45.4067 24.1617 45.0683 23.5433L45.0567 23.5317L44.975 25.4917Z" fill="#B93128"/>
<path d="M44.5552 21.9917C44.2052 21.9567 43.8318 21.8984 43.4585 21.8284L43.0268 22.9017C43.1085 22.96 43.2252 22.9834 43.3768 22.9834C43.1435 22.9834 42.9918 23.0417 42.9218 23.17L42.8752 23.2867C42.8635 23.345 42.8518 23.4267 42.8518 23.5084C42.8518 23.4617 42.8518 23.415 42.8402 23.3684L42.2568 24.8384C42.8285 25.06 43.4235 25.235 44.0418 25.3517L44.5552 21.9917Z" fill="#B93128"/>
<path d="M45.2543 18.269L45.2432 18.2467V18.269H45.2543Z" fill="#B93128"/>
<path d="M40.4833 20.7667L40.2617 20.9067V23.3683L41.8833 21.385C41.4167 21.21 40.9383 21 40.4833 20.7667Z" fill="#B93128"/>
<path d="M42.8401 23.3684C42.8051 23.0884 42.6534 22.9717 42.3151 22.9717C42.7001 22.9717 42.8518 22.82 42.8518 22.435C42.8518 22.6684 42.9101 22.8084 43.0268 22.89L43.4584 21.8167C42.9451 21.7117 42.4201 21.56 41.8951 21.3734L40.2734 23.3567V23.8C40.8918 24.22 41.5568 24.57 42.2568 24.8384L42.8401 23.3684Z" fill="#C18014"/>
<path d="M44.8583 17.92C44.8933 17.955 44.9283 17.99 44.9633 18.025L45.0567 17.7917L44.8583 17.92Z" fill="#C18014"/>
<path d="M42.875 23.2867L42.9217 23.17C42.91 23.205 42.8867 23.24 42.875 23.2867Z" fill="#C18014"/>
<path d="M45.2432 18.27V18.2583L45.1615 18.0133L45.1382 18.1883C45.1732 18.2 45.2082 18.235 45.2432 18.27Z" fill="#C18014"/>
<path d="M44.5548 21.9917L44.0415 25.3517C44.3448 25.41 44.6598 25.4567 44.9748 25.48L45.0448 23.52L44.8582 23.1934L45.0565 23.1117L45.1032 22.015C44.9282 22.015 44.7415 22.015 44.5548 21.9917Z" fill="#C18014"/>
<path d="M47.3667 38.4417C47.425 38.5933 47.495 38.7333 47.5533 38.885L51.3217 35.0117C51.0767 34.4633 50.8783 33.8917 50.7267 33.32L50.6217 32.9467L53.1183 32.5733L54.3783 30.4383C52.395 30.0183 50.5167 29.1667 48.895 27.9533C49.5483 29.2133 50.5283 30.31 51.5783 31.3133L49.4317 34.9533L49.735 35.4783L49.1867 35.3617L48.265 36.9133L48.475 37.5433L48.0083 37.345L47.3667 38.4417Z" fill="#96121F"/>
<path d="M48.1368 27.335C47.6235 26.8917 47.1451 26.4133 46.7018 25.9117L44.8701 29.015C44.8935 29.1083 44.9051 29.19 44.9168 29.2833L46.6551 29.5633L45.6985 30.6133L46.1068 30.765L48.1368 27.335Z" fill="#96121F"/>
<path d="M48.8948 27.9533C48.6381 27.755 48.3814 27.5567 48.1364 27.3467L46.1064 30.7767L49.2798 32.0017L48.1248 32.725L49.4314 34.965L51.5781 31.325C50.5281 30.31 49.5481 29.2133 48.8948 27.9533Z" fill="#B93128"/>
<path d="M42.2798 40.74C42.3148 40.775 42.3381 40.7983 42.3731 40.8333C42.3381 40.81 42.3031 40.775 42.2798 40.74Z" fill="#B93128"/>
<path d="M48.02 37.345L46.585 36.7267C46.8533 37.2633 47.11 37.8467 47.3667 38.4417L48.02 37.345Z" fill="#B93128"/>
<path d="M47.6235 35.0117L48.2652 36.9251L49.1869 35.3617L47.6235 35.0117Z" fill="#B93128"/>
<path d="M56.9917 40.88C55.7667 40.285 54.6467 39.48 53.7017 38.5117C54.1217 39.4567 54.6 40.355 55.1367 41.2417L50.295 46.41C50.4467 46.8767 50.5867 47.3317 50.7267 47.7517L56.9917 40.88Z" fill="#96121F"/>
<path d="M52.4652 37.03C52.1619 36.5983 51.8819 36.1433 51.6369 35.6766L47.8452 39.5733C48.0552 40.0866 48.2536 40.6116 48.4636 41.1366L52.4652 37.03Z" fill="#96121F"/>
<path d="M55.1367 41.23C54.6 40.355 54.1217 39.445 53.7017 38.5C53.2467 38.045 52.8383 37.5433 52.465 37.0183L48.4633 41.1367C49.14 42.9333 49.77 44.7767 50.295 46.3867L55.1367 41.23Z" fill="#B93128"/>
<path d="M57.1315 38.3016C58.1815 38.3016 58.6015 37.8816 58.6015 36.8316C58.6015 37.1933 58.6482 37.485 58.7648 37.7066L60.1882 32.48L60.2115 32.2583C58.8465 33.0283 54.0748 35.595 52.7915 36.2833C54.0282 38.2083 55.8365 39.7016 57.9832 40.565L58.4382 38.8966C58.2282 38.4766 57.8082 38.3016 57.1315 38.3016Z" fill="#B93128"/>
<path d="M59.8617 32.2583L51.4967 33.5183C51.6017 33.8683 51.73 34.2183 51.87 34.5567L59.8617 32.2583Z" fill="#B93128"/>
<path d="M60.1883 32.2117L60.1417 32.2233C58.905 32.76 53.6433 34.86 52.2783 35.4083C52.3833 35.6183 52.5 35.8167 52.6283 36.0267C54.005 35.3383 58.73 32.9583 60.1883 32.2117Z" fill="#B93128"/>
<path d="M55.265 19.705L45.85 23.555C46.1417 24.045 46.4567 24.5233 46.8067 24.9667L55.265 19.705Z" fill="#96121F"/>
<path d="M53.0482 21.8984C52.9782 21.875 52.9082 21.875 52.8148 21.875C52.9782 21.875 53.1065 21.84 53.1882 21.7817C53.1998 21.77 53.2232 21.7584 53.2348 21.735C53.3048 21.6534 53.3398 21.525 53.3398 21.35C53.3398 21.455 53.3515 21.5367 53.3748 21.6067C54.2848 20.7667 55.0898 20.02 55.5565 19.5884L55.5098 19.6117C54.2498 20.6384 48.8365 24.815 47.5415 25.8184C47.7282 26.0284 47.9265 26.2267 48.1248 26.4134C48.9415 25.6667 51.1698 23.625 53.0482 21.8984Z" fill="#96121F"/>
<path d="M55.7201 27.895C55.7201 27.9417 55.7201 27.9883 55.7201 28.035C55.7201 26.5767 55.1485 25.9933 53.6785 25.9933C54.9385 25.9933 55.5451 25.5617 55.6851 24.5L55.6385 19.635L55.6268 19.5767C55.2068 20.0083 54.3901 20.8133 53.4451 21.735C53.5268 21.8283 53.6668 21.875 53.8651 21.875C53.4801 21.875 53.3285 22.0267 53.3285 22.4117C53.3285 22.2133 53.2818 22.0733 53.1885 21.9917C51.3451 23.8 49.1168 25.9467 48.3701 26.6583C48.6735 26.9383 49.0001 27.195 49.3268 27.4517C49.3851 27.4983 49.4435 27.5333 49.5018 27.58C49.5601 27.615 49.6185 27.6617 49.6651 27.6967C49.7468 27.755 49.8168 27.8017 49.8985 27.86C49.9451 27.895 49.9918 27.9183 50.0385 27.9533C50.1318 28.0117 50.2368 28.07 50.3301 28.14C50.3651 28.1633 50.4001 28.1867 50.4351 28.21C50.5751 28.2917 50.7035 28.3733 50.8435 28.4433C50.8551 28.4433 50.8551 28.455 50.8668 28.455C50.9951 28.525 51.1235 28.595 51.2518 28.6533C51.3101 28.6767 51.3685 28.7117 51.4268 28.735C51.4968 28.77 51.5785 28.805 51.6485 28.84C51.7301 28.875 51.8001 28.91 51.8818 28.945C51.9285 28.9683 51.9751 28.9917 52.0218 29.0033C53.1885 29.4933 54.4251 29.82 55.7085 29.96L55.7201 27.895Z" fill="#96121F"/>
<path d="M62.2417 25.3167L62.125 25.3283L58.7183 26.3317C58.7767 26.46 58.835 26.5767 58.905 26.6933C59.465 26.46 61.6583 25.5733 62.2417 25.3167Z" fill="#B93128"/>
<path d="M61.775 27.37L61.355 28.9333C61.4717 28.98 61.5883 29.0383 61.705 29.0733L61.9617 27.405C61.9033 27.4867 61.88 27.6033 61.88 27.7667C61.8917 27.5917 61.8567 27.4633 61.775 27.37Z" fill="#B93128"/>
<path d="M62.02 27.125L62.265 25.55L61.915 26.8917C61.9267 26.985 61.9617 27.0667 62.02 27.125Z" fill="#B93128"/>
<path d="M62.2883 25.3167V25.305H62.265C61.6117 25.6433 59.64 26.6583 59.0567 26.95C59.08 26.985 59.1033 27.02 59.1267 27.055C59.675 26.7633 61.6933 25.6667 62.2883 25.3167Z" fill="#B93128"/>
<path d="M60.1418 32.2234L59.8618 32.2701L51.8818 34.5684C51.9985 34.8601 52.1385 35.1401 52.2785 35.4201C53.6435 34.8601 58.9052 32.7601 60.1418 32.2234Z" fill="#C18014"/>
<path d="M59.465 38.2317L60.1767 32.4683L58.7533 37.695C58.8933 37.975 59.1267 38.15 59.465 38.2317Z" fill="#C18014"/>
<path d="M58.6017 39.7717C58.6017 39.3983 58.555 39.1067 58.4383 38.885L57.9833 40.5533C58.3567 40.705 58.7417 40.8333 59.1383 40.95L59.4533 38.36C58.8467 38.5233 58.6017 38.955 58.6017 39.7717Z" fill="#C18014"/>
<path d="M60.2 32.2583V32.2117H60.1767C58.73 32.9583 54.005 35.3383 52.6167 36.0267C52.6633 36.1083 52.7217 36.2017 52.78 36.2833C54.0633 35.595 58.8467 33.0283 60.2 32.2583Z" fill="#C18014"/>
<path d="M55.51 19.6L55.265 19.705L46.8067 24.9667C47.04 25.2583 47.2733 25.55 47.53 25.8183C48.825 24.8033 54.25 20.6267 55.51 19.6Z" fill="#B93128"/>
<path d="M55.7198 23.9634C55.7198 24.7917 55.9065 25.3401 56.3382 25.6551L55.6382 19.6467L55.6849 24.5001C55.7082 24.3367 55.7198 24.1617 55.7198 23.9634Z" fill="#B93128"/>
<path d="M55.7202 27.895L55.7435 29.96C56.1052 29.995 56.4785 30.03 56.8519 30.0416L56.4085 26.2966C55.9535 26.5883 55.7435 27.1016 55.7202 27.895Z" fill="#B93128"/>
<path d="M53.375 21.595C53.3983 21.6533 53.4217 21.6883 53.4567 21.735C54.4017 20.8133 55.2067 20.02 55.6383 19.5767V19.5533L55.5683 19.5767C55.09 20.02 54.285 20.755 53.375 21.595Z" fill="#B93128"/>
<path d="M53.2233 21.735C53.2117 21.7467 53.1883 21.7583 53.1767 21.7817C53.2 21.7583 53.2117 21.7467 53.2233 21.735Z" fill="#B93128"/>
<path d="M53.2 21.98C53.1533 21.945 53.1067 21.9217 53.0483 21.8983C51.17 23.625 48.9417 25.6667 48.125 26.4017C48.2067 26.4833 48.3 26.565 48.3817 26.6467C49.1167 25.9467 51.345 23.7883 53.2 21.98Z" fill="#B93128"/>
<path d="M16.6018 45.605L15.1434 44.0183L15.0968 43.995C15.0501 44.2633 14.9801 44.52 14.8984 44.765L16.6018 45.605Z" fill="#96121F"/>
<path d="M19.4017 48.9183L14.63 46.5617C14.7117 46.0367 14.7817 45.5 14.8283 44.975C14.5717 45.6867 14.175 46.34 13.65 46.9117L19.18 49.6417C19.25 49.42 19.3317 49.175 19.4017 48.9183Z" fill="#96121F"/>
<path d="M14.6299 46.5617L19.4015 48.9184C19.4249 48.86 19.4365 48.79 19.4599 48.7317L16.6015 45.605L14.8982 44.765C14.8749 44.835 14.8515 44.905 14.8282 44.975C14.7815 45.5 14.7115 46.0367 14.6299 46.5617Z" fill="#B93128"/>
<path d="M13.8252 45.5C13.9418 45.3017 14.0352 45.0917 14.1285 44.87L10.7568 43.6683L10.7685 43.6917L13.8252 45.5Z" fill="#96121F"/>
<path d="M12.4367 46.0367C12.4367 45.9667 12.425 45.9083 12.4133 45.85L12.18 45.5467C12.11 45.5233 12.0167 45.5 11.9 45.5C11.9817 45.5 12.0633 45.4883 12.1217 45.4767L10.8383 43.8433L12.4483 47.0633C12.6467 46.9117 12.8217 46.7483 12.9967 46.585L12.4483 45.885C12.4367 45.9317 12.4367 45.99 12.4367 46.0367Z" fill="#96121F"/>
<path d="M14.3385 44.205C14.4085 43.9134 14.4668 43.61 14.4902 43.295L14.2102 42.9917L10.7568 43.6567L14.3385 44.205Z" fill="#96121F"/>
<path d="M12.1336 45.4884C12.3552 45.43 12.4369 45.2784 12.4369 44.9867C12.4369 45.3717 12.5886 45.5234 12.9736 45.5234C12.6469 45.5234 12.4952 45.6284 12.4486 45.9084L12.9969 46.6084C13.3236 46.2817 13.6036 45.9084 13.8252 45.5117L10.7686 43.7034L10.8502 43.855L12.1336 45.4884Z" fill="#B93128"/>
<path d="M14.1285 44.87C14.2218 44.6484 14.2918 44.4267 14.3502 44.1934L10.7568 43.645L10.7685 43.6567L14.1285 44.87Z" fill="#B93128"/>
<path d="M12.1802 45.5583L12.4135 45.8617C12.3902 45.6984 12.3085 45.605 12.1802 45.5583Z" fill="#B93128"/>
<path d="M13.697 32.0717L10.652 29.1317C10.8854 28.7817 11.0837 28.4084 11.247 28.0117C10.8154 28.5251 10.2904 28.9567 9.70703 29.2951L12.3787 31.8734L13.697 32.0717Z" fill="#858585"/>
<path d="M15.1201 30.5667C14.9334 30.59 14.7468 30.625 14.5718 30.6366L15.9601 31.9783L15.1201 30.5667Z" fill="#858585"/>
<path d="M12.9267 27.8717L11.97 26.95C11.83 27.2067 11.6783 27.4517 11.5033 27.6733L12.7983 28.9217L12.9267 27.8717Z" fill="#858585"/>
<path d="M10.6519 29.12L13.6969 32.06L16.2169 32.4333L15.9485 31.9667L14.5602 30.625C14.0352 30.6833 13.4985 30.7183 12.9852 30.7183H12.5885L12.7985 28.9217L11.5035 27.6733C11.4219 27.79 11.3285 27.895 11.2469 28C11.0952 28.3967 10.8852 28.77 10.6519 29.12Z" fill="#BDBDBD"/>
<path d="M11.4913 26.3433C11.573 26.1567 11.6546 25.9583 11.713 25.76L8.01465 25.3167L11.4913 26.3433Z" fill="#96121F"/>
<path d="M8.60977 26.705C8.60977 27.09 8.76144 27.2417 9.14644 27.2417C8.76144 27.2417 8.60977 27.3933 8.60977 27.7783C8.60977 27.5217 8.53977 27.37 8.37644 27.3L8.81977 28.9683C9.74144 28.5717 10.5231 27.9067 11.0831 27.09C10.6164 26.8334 8.60977 25.7367 7.93311 25.3517L8.02644 25.9817L8.35311 27.2067C8.52811 27.1367 8.60977 26.985 8.60977 26.705Z" fill="#96121F"/>
<path d="M11.1418 26.9734C11.2002 26.8917 11.2468 26.7984 11.2935 26.7051C10.7918 26.4951 8.50516 25.5617 7.91016 25.3051V25.3167C8.61016 25.6784 10.6168 26.7051 11.1418 26.9734Z" fill="#96121F"/>
<path d="M28.21 13.79C27.2883 14.2217 26.2967 14.4667 25.27 14.5133L26.4483 17.8033L30.0067 20.125L29.995 14.6417C29.3767 14.3967 28.7817 14.1167 28.21 13.79Z" fill="#858585"/>
<path d="M25.725 8.855L26.1567 9.77666C26.2033 9.765 26.2383 9.75333 26.2733 9.74166L25.725 8.855Z" fill="#B93128"/>
<path d="M26.005 9.8C25.9933 9.8 25.97 9.8 25.9583 9.8C25.97 9.8 25.9817 9.8 26.005 9.8L25.655 8.94833L24.3833 13.8017C24.5583 13.8133 24.745 13.825 24.92 13.825C25.795 13.825 26.6467 13.6617 27.44 13.3583L26.005 9.8Z" fill="#B93128"/>
<path d="M25.7017 8.715L26.4717 9.46166C26.4833 9.40333 26.495 9.345 26.495 9.26333C26.495 9.35666 26.5067 9.43833 26.53 9.50833L26.7983 9.765C26.8683 9.78833 26.9383 9.78833 27.0317 9.78833C26.9617 9.78833 26.9033 9.8 26.845 9.81166L28.9683 11.8883L29.505 11.1883L25.7017 8.715Z" fill="#B93128"/>
<path d="M26.5068 10.1034C26.4952 10.1617 26.4835 10.2434 26.4835 10.325C26.4835 10.0334 26.3902 9.8817 26.1802 9.82336L27.7902 13.2067C27.8718 13.1717 27.9535 13.1367 28.0352 13.09L28.2335 12.8334L26.5068 10.1034Z" fill="#B93128"/>
<path d="M20.1015 21.0583L19.3548 18.97C19.8565 18.585 20.3115 18.165 20.6848 17.6516L22.2131 21.9216L22.9948 22.2366L23.0881 21.9216L21.3848 17.1616C20.4865 17.8033 19.4248 18.1883 18.3281 18.2583L19.1915 20.6966L20.1015 21.0583Z" fill="#858585"/>
<path d="M19.355 18.97L20.1017 21.0583L22.2017 21.91L20.6733 17.64C20.3117 18.165 19.845 18.585 19.355 18.97Z" fill="#BDBDBD"/>
<path d="M18.3984 15.5633C18.5268 15.4817 18.5734 15.3417 18.5734 15.1083C18.5734 15.26 18.5968 15.3767 18.6434 15.4583C18.5734 14.77 18.5034 14.1633 18.4684 13.9417L18.4218 14.1867C18.4218 14.5017 18.4101 15.015 18.3984 15.5633Z" fill="#96121F"/>
<path d="M17.7685 17.57L18.1419 15.645C18.1069 15.645 18.0835 15.645 18.0485 15.645C18.0835 15.645 18.1185 15.645 18.1419 15.645L18.4219 14.1867C18.4219 14.14 18.4219 14.0933 18.4335 14.0583L17.3252 17.5467C17.4769 17.5584 17.6169 17.57 17.7685 17.57Z" fill="#96121F"/>
<path d="M18.69 15.7733C18.62 15.855 18.585 15.9833 18.585 16.1583C18.585 15.925 18.5267 15.785 18.3983 15.7033C18.3867 16.3917 18.3867 17.115 18.375 17.5467C18.5383 17.535 18.7017 17.5117 18.8533 17.4767C18.8183 17.0917 18.7483 16.4267 18.69 15.7733Z" fill="#96121F"/>
<path d="M18.7836 15.575C18.8652 15.6217 18.9702 15.6334 19.1102 15.6334C18.9819 15.6334 18.8886 15.6567 18.8069 15.6917L19.0752 17.4417C19.8336 17.2667 20.5569 16.9284 21.1752 16.4384L18.5386 13.9767L18.7836 15.575Z" fill="#96121F"/>
<path d="M18.48 13.9417V13.895L18.4683 13.93L18.48 13.9417Z" fill="#96121F"/>
<path d="M28.4319 25.3983C27.2069 25.9116 25.8769 26.1916 24.5469 26.2266L24.6052 26.39L25.8185 28.4316C26.2502 27.3816 27.2419 26.3316 28.4319 25.3983Z" fill="#96121F"/>
<path d="M25.1302 23.6133C24.7918 24.2083 24.4185 24.7916 23.9868 25.3399L24.1035 25.5383C24.1385 25.5383 24.1852 25.5383 24.2318 25.5383C24.2435 25.5383 24.2435 25.5383 24.2552 25.5383C24.5702 25.5383 24.8852 25.5266 25.2002 25.4916L25.1302 23.6133Z" fill="#B93128"/>
<path d="M27.1717 22.9833C27.1483 22.9833 27.1367 22.9833 27.1133 22.9833C27.125 22.9833 27.1483 22.9833 27.1717 22.9833L25.1183 17.8033L25.025 18.1067L26.1333 25.375C26.74 25.2583 27.3467 25.095 27.9183 24.8733L27.1717 22.9833Z" fill="#B93128"/>
<path d="M24.9317 18.3867L23.625 22.4933L25.1067 23.1L24.9317 18.3867Z" fill="#B93128"/>
<path d="M30.0065 23.5083V20.9533L25.5498 18.0483L30.0065 23.5083Z" fill="#B93128"/>
<path d="M25.1064 17.8033L27.1598 22.9833C27.4981 22.9717 27.6381 22.82 27.6381 22.4583C27.6381 22.8433 27.7898 22.995 28.1748 22.995C27.7898 22.995 27.6381 23.1467 27.6381 23.5317C27.6381 23.17 27.4981 23.0183 27.1714 23.0067L27.9181 24.885C28.6531 24.605 29.3531 24.2317 30.0064 23.7883V23.7417V23.5433L25.5498 18.0833L25.1181 17.8033H25.1064Z" fill="#C18014"/>
<path d="M25.0133 18.095L24.92 18.375L25.095 23.1L25.34 23.205L25.1533 23.5433C25.1417 23.5667 25.13 23.59 25.1183 23.6133L25.1883 25.5033C25.5033 25.48 25.8067 25.4333 26.1217 25.375L25.0133 18.095Z" fill="#C18014"/>
<path d="M22.9833 38.7683L22.2133 37.4617L22.0033 37.555L22.0967 37.275L21.0117 35.4317L20.755 35.49L20.9067 35.245L19.5883 33.005L19.495 33.3317C19.3433 33.9033 19.1333 34.475 18.9 35.0233L22.855 39.095C22.9017 38.9783 22.9367 38.8733 22.9833 38.7683Z" fill="#96121F"/>
<path d="M21.245 28.0117C19.6467 29.19 17.8033 30.03 15.8433 30.4383L17.1033 32.585L19.5417 32.9467L18.5733 31.3133C19.6233 30.3217 20.5917 29.2483 21.245 28.0117Z" fill="#96121F"/>
<path d="M24.1148 30.87L24.7915 30.6133L23.8348 29.5633L25.5031 29.295L23.5081 25.9116C23.0531 26.4366 22.5631 26.915 22.0498 27.37L24.1148 30.87Z" fill="#96121F"/>
<path d="M22.9833 38.7683C23.2867 38.045 23.6017 37.3683 23.905 36.7267L22.2133 37.4617L22.9833 38.7683Z" fill="#B93128"/>
<path d="M29.435 41.685C28.14 41.5917 28.1283 40.8333 28.1283 40.8333C28.1283 40.8333 28.14 41.5917 29.435 41.685Z" fill="#B93128"/>
<path d="M20.9067 35.2333L22.3767 32.725L21.2217 32.0017L24.1267 30.8817L22.0617 27.37C21.805 27.5917 21.5367 27.8017 21.2567 28.0117C20.6033 29.2483 19.635 30.3217 18.5967 31.3133L19.565 32.9467L19.6 32.9583L19.5883 33.005L20.9067 35.2333Z" fill="#B93128"/>
<path d="M22.8784 35.0117L21.0234 35.4317L22.1084 37.2633L22.8784 35.0117Z" fill="#B93128"/>
<path d="M20.1133 46.655L15.0267 41.23C15.5517 40.3783 16.0183 39.5033 16.4267 38.5933C15.4933 39.5267 14.4083 40.2967 13.2183 40.88L19.6933 47.9733C19.8217 47.5533 19.9617 47.1217 20.1133 46.655Z" fill="#96121F"/>
<path d="M21.945 41.3933C22.1433 40.8567 22.3533 40.32 22.5633 39.7833L18.5733 35.6767C18.3283 36.155 18.0367 36.61 17.7333 37.0533L21.945 41.3933Z" fill="#96121F"/>
<path d="M15.0269 41.23L20.1135 46.655C20.6269 45.0567 21.2569 43.2017 21.9452 41.3817L17.7335 37.0533C17.3485 37.6017 16.9052 38.115 16.4385 38.5933C16.0185 39.5033 15.5519 40.39 15.0269 41.23Z" fill="#B93128"/>
<path d="M11.7368 38.9083L11.8768 39.41C11.8535 39.2117 11.8068 39.0483 11.7368 38.9083Z" fill="#B93128"/>
<path d="M11.8998 36.8316C11.8998 37.8816 12.3198 38.3016 13.3698 38.3016C12.4015 38.3016 11.9815 38.6516 11.9115 39.515L12.2032 40.5766C14.3731 39.725 16.1815 38.22 17.4298 36.295C16.2165 35.6416 11.4682 33.0983 10.0215 32.2816L10.0798 32.795L11.5032 38.01C11.7715 37.7766 11.8998 37.4033 11.8998 36.8316Z" fill="#B93128"/>
<path d="M17.5814 36.0383C17.6981 35.84 17.8148 35.63 17.9314 35.42C16.6248 34.895 11.2231 32.725 10.0098 32.2V32.2116C11.5031 32.9933 16.2514 35.385 17.5814 36.0383Z" fill="#B93128"/>
<path d="M18.3282 34.5683C18.4682 34.23 18.5966 33.88 18.7132 33.5183L10.2549 32.2466L18.3282 34.5683Z" fill="#B93128"/>
<path d="M17.6052 22.3417C17.7102 22.2833 17.7919 22.2017 17.8735 22.12C16.4385 21 15.1202 19.9733 14.6185 19.565L14.5952 19.5533V19.565C15.1785 20.1133 16.3452 21.1867 17.6052 22.3417Z" fill="#96121F"/>
<path d="M18.1302 21.7117C18.2002 21.525 18.2586 21.315 18.2819 21.07L14.8169 19.6583L18.1302 21.7117Z" fill="#96121F"/>
<path d="M19.4831 22.5399C19.7281 22.5983 20.0081 22.6333 20.3465 22.6333C20.1131 22.6333 19.9031 22.6449 19.7165 22.6799L23.4031 24.9666C23.7531 24.5116 24.0798 24.0333 24.3715 23.5316L18.3281 21.0699C18.3748 21.4666 18.4798 21.7816 18.6548 22.0266L19.4831 22.5399Z" fill="#96121F"/>
<path d="M18.515 23.485C18.375 23.7883 18.305 24.185 18.305 24.675C18.305 23.2167 17.7333 22.6333 16.2633 22.6333C16.7533 22.6333 17.1383 22.5633 17.4417 22.435C16.24 21.2683 15.1317 20.1833 14.595 19.6233L14.5367 20.0783L14.4783 25.865C14.5017 25.795 14.5133 25.7133 14.5133 25.6083C14.5133 25.9933 14.665 26.145 15.05 26.145C14.665 26.145 14.5133 26.2967 14.5133 26.6817C14.5133 26.5767 14.5017 26.4833 14.4783 26.4133L14.4433 29.96C15.75 29.82 16.9983 29.4933 18.1767 28.9917C18.2233 28.9683 18.2583 28.9567 18.305 28.9333C18.3867 28.8983 18.4683 28.8633 18.55 28.8283C18.62 28.7933 18.69 28.7583 18.76 28.7233C18.8183 28.6883 18.8883 28.665 18.9467 28.63C19.0517 28.5833 19.145 28.525 19.25 28.4783C19.285 28.455 19.32 28.4433 19.355 28.42C19.495 28.35 19.6233 28.2683 19.7633 28.1867C19.7983 28.1633 19.8217 28.1517 19.8567 28.1283C19.9617 28.07 20.0667 28 20.16 27.9417C20.2067 27.9067 20.2533 27.8717 20.3117 27.8483C20.3933 27.8017 20.4633 27.7433 20.545 27.6967C20.6033 27.65 20.6617 27.615 20.72 27.5683C20.7783 27.5333 20.8367 27.4867 20.895 27.44C21.2217 27.195 21.5367 26.9383 21.8517 26.6583C21.28 26.1683 19.9383 24.8617 18.515 23.485Z" fill="#96121F"/>
<path d="M18.9585 22.96C18.8302 23.0533 18.7252 23.1583 18.6318 23.2866C20.0902 24.6283 21.4785 25.9 22.0735 26.4366C22.2718 26.2383 22.4702 26.04 22.6685 25.8416C22.0735 25.375 20.5452 24.1966 18.9585 22.96Z" fill="#96121F"/>
<path d="M11.3052 26.7051C11.3752 26.5884 11.4335 26.4601 11.4919 26.3434L8.01521 25.3167L7.92188 25.3051C8.51688 25.5734 10.8035 26.5067 11.3052 26.7051Z" fill="#B93128"/>
<path d="M8.02686 25.97L8.22519 27.23C8.27186 27.2183 8.31852 27.2066 8.35352 27.195L8.02686 25.97Z" fill="#B93128"/>
<path d="M8.365 27.2883C8.31833 27.265 8.27167 27.2533 8.21333 27.2417L8.49333 29.0733C8.59833 29.0383 8.70333 28.9917 8.80833 28.945L8.365 27.2883Z" fill="#B93128"/>
<path d="M11.0719 27.0784C11.0952 27.0434 11.1185 27.0084 11.1419 26.9734C10.6169 26.7167 8.61021 25.6784 7.92188 25.3284V25.3517C8.59854 25.7367 10.6052 26.8217 11.0719 27.0784Z" fill="#B93128"/>
<path d="M17.9315 35.4317C18.0831 35.1517 18.2115 34.8717 18.3398 34.5801L10.2665 32.2584L10.0215 32.2234C11.2232 32.7367 16.6131 34.8951 17.9315 35.4317Z" fill="#C18014"/>
<path d="M11.4917 38.01L10.0683 32.795L10.745 38.2783C11.0717 38.255 11.3167 38.1617 11.4917 38.01Z" fill="#C18014"/>
<path d="M11.9002 39.7716C11.9002 39.6433 11.8885 39.515 11.8768 39.41L11.7368 38.9083C11.5618 38.5583 11.2468 38.3716 10.7568 38.325L11.0835 40.95C11.4685 40.845 11.8418 40.7166 12.2035 40.5766L11.9118 39.515C11.9002 39.5966 11.9002 39.6783 11.9002 39.7716Z" fill="#C18014"/>
<path d="M17.4181 36.2951C17.4764 36.2134 17.5231 36.1201 17.5814 36.0384C16.2514 35.3851 11.5031 32.9934 10.0098 32.2234L10.0214 32.2817C11.4564 33.0984 16.2048 35.6534 17.4181 36.2951Z" fill="#C18014"/>
<path d="M18.6548 22.0266C18.8415 22.2833 19.1215 22.4466 19.4831 22.5399L18.6548 22.0266Z" fill="#B93128"/>
<path d="M17.8732 22.12C17.9782 22.0033 18.0598 21.8633 18.1298 21.7L14.8165 19.635L14.6182 19.5533C15.1198 19.9733 16.4265 21 17.8732 22.12Z" fill="#B93128"/>
<path d="M19.7052 22.6917C19.4018 22.7383 19.1568 22.8317 18.9585 22.9717C20.5452 24.2083 22.0735 25.3866 22.6685 25.8417C22.9252 25.5733 23.1702 25.2817 23.3918 24.99L19.7052 22.6917Z" fill="#B93128"/>
<path d="M14.4668 26.4133C14.3968 26.2266 14.2451 26.145 13.9768 26.145C14.2568 26.145 14.4085 26.0633 14.4785 25.865L14.5368 20.0783L13.3701 30.03C13.7318 30.0183 14.0818 29.995 14.4318 29.96L14.4668 26.4133Z" fill="#B93128"/>
<path d="M18.6313 23.2866C18.5846 23.345 18.5496 23.415 18.5146 23.485C19.938 24.8616 21.2913 26.1683 21.8046 26.6816C21.898 26.6 21.9796 26.5183 22.073 26.4366C21.478 25.9 20.078 24.6166 18.6313 23.2866Z" fill="#B93128"/>
<path d="M17.4301 22.435C17.4884 22.4117 17.5468 22.3767 17.5934 22.3417C16.3334 21.1867 15.1668 20.1017 14.5834 19.5533L14.5718 19.6233C15.1318 20.1833 16.2401 21.2683 17.4301 22.435Z" fill="#B93128"/>
<path d="M44.205 9.87C44.065 9.95167 44.0067 10.0917 44.0067 10.3367C44.0067 10.2083 43.9833 10.1033 43.9483 10.0217L42.4317 13.2183C42.5483 13.265 42.665 13.3233 42.7817 13.37L44.205 9.87Z" fill="#C18014"/>
<path d="M44.368 8.8083L41.2646 11.83L41.9996 12.7983L43.843 9.88163C43.7497 9.8233 43.633 9.79997 43.4813 9.79997C43.8663 9.79997 44.018 9.6483 44.018 9.2633C44.018 9.37997 44.0296 9.4733 44.0646 9.5433L44.5663 8.74997L44.1347 9.65997C44.1697 9.69497 44.2163 9.72997 44.263 9.74163L44.6363 8.83163L45.9313 13.79C46.0363 13.7783 46.153 13.7666 46.258 13.755L44.6363 8.6333L44.368 8.8083Z" fill="#C18014"/>
<path d="M51.9168 16.1701C51.9168 16.0767 51.9052 15.9951 51.8818 15.9251C51.8935 16.5784 51.8935 17.2084 51.8935 17.5584C52.0218 17.5701 52.1502 17.5701 52.2785 17.5701C52.3602 17.5701 52.4418 17.5701 52.5352 17.5584L52.1618 15.6801C51.9868 15.7501 51.9168 15.9017 51.9168 16.1701Z" fill="#B93128"/>
<path d="M51.5898 15.61C51.6598 14.98 51.7181 14.3617 51.7648 14.0117L51.7298 13.895L51.4614 15.6334C51.5081 15.6334 51.5548 15.6217 51.5898 15.61Z" fill="#B93128"/>
<path d="M51.59 15.6567C51.555 15.645 51.5083 15.645 51.4617 15.6333L51.1817 17.4417C51.2633 17.4533 51.3333 17.4767 51.415 17.4883C51.45 17.1267 51.52 16.38 51.59 15.6567Z" fill="#B93128"/>
<path d="M48.5332 15.9833C48.6849 16.135 48.8482 16.2867 49.0115 16.415L51.6949 13.9183L48.5332 15.9833Z" fill="#B93128"/>
<path d="M51.8817 15.365C51.905 15.295 51.9167 15.2017 51.9167 15.0967C51.9167 15.3533 51.9867 15.505 52.15 15.575L51.9517 14.56L51.8583 14.28C51.8583 14.5717 51.87 14.9567 51.8817 15.365Z" fill="#B93128"/>
<path d="M26.1799 9.82332C26.1332 9.81165 26.0632 9.79999 26.0049 9.79999L27.4515 13.3583C27.5682 13.3117 27.6849 13.265 27.8015 13.2183L26.1799 9.82332Z" fill="#C18014"/>
<path d="M26.005 9.8C26.0633 9.8 26.11 9.78833 26.1567 9.77666L25.725 8.855L26.2733 9.73C26.3783 9.68333 26.4367 9.59 26.46 9.46166L25.69 8.715L25.585 8.645L23.9633 13.7667C24.1033 13.79 24.2433 13.8017 24.3833 13.8133L25.655 8.96L26.005 9.8Z" fill="#C18014"/>
<path d="M26.7752 9.77669L26.5068 9.52002C26.5535 9.64835 26.6352 9.73002 26.7752 9.77669Z" fill="#C18014"/>
<path d="M26.5068 10.1033L28.2335 12.8333L28.9452 11.8883L26.8218 9.81165C26.6468 9.84665 26.5535 9.93998 26.5068 10.1033Z" fill="#C18014"/>
<path d="M18.3986 15.715C18.3286 15.68 18.2469 15.6567 18.1419 15.645L17.7686 17.57C17.8269 17.57 17.8852 17.57 17.9436 17.57C18.0952 17.57 18.2352 17.5584 18.3869 17.5467C18.3752 17.1267 18.3869 16.4034 18.3986 15.715Z" fill="#B93128"/>
<path d="M18.8067 15.6917C18.76 15.715 18.725 15.7383 18.69 15.7733C18.76 16.4267 18.8183 17.0917 18.865 17.4883C18.935 17.4767 19.0167 17.465 19.0867 17.4417L18.8067 15.6917Z" fill="#B93128"/>
<path d="M18.4331 14.175L18.4798 13.93V13.9183L18.4448 14.0467C18.4331 14.0933 18.4331 14.1283 18.4331 14.175Z" fill="#B93128"/>
<path d="M18.48 13.9417C18.515 14.1517 18.585 14.77 18.655 15.4583C18.69 15.5167 18.7367 15.5517 18.7833 15.5867L18.5383 14L21.175 16.4617C21.35 16.3217 21.525 16.17 21.6883 16.0067L18.4917 13.9183L18.48 13.9417Z" fill="#B93128"/>
<path d="M18.3983 15.5633C18.41 15.015 18.4217 14.5017 18.4333 14.1867L18.1533 15.645C18.2467 15.6217 18.3283 15.5983 18.3983 15.5633Z" fill="#B93128"/>
<path d="M57.6333 25.165L57.7267 25.5383C57.785 25.7833 57.8667 26.04 57.96 26.285L57.2017 27.02L57.085 26.0633C56.8167 26.11 56.595 26.1917 56.42 26.3083L56.8633 30.0533C56.49 30.0417 56.1167 30.0183 55.755 29.9717C54.4717 29.8317 53.235 29.505 52.0683 29.015C52.0217 28.9917 51.975 28.9683 51.9283 28.9567C51.8467 28.9217 51.7767 28.8867 51.695 28.8517C51.6133 28.8167 51.5433 28.7817 51.4733 28.7467C51.415 28.7233 51.3567 28.6883 51.2983 28.665C51.17 28.595 51.0417 28.5367 50.9133 28.4667C50.9017 28.4667 50.9017 28.455 50.89 28.455C50.75 28.3733 50.61 28.3033 50.4817 28.2217C50.4467 28.1983 50.4117 28.175 50.3767 28.1517C50.2833 28.0933 50.1783 28.035 50.085 27.965C50.0383 27.93 49.9917 27.9067 49.945 27.8717C49.8633 27.8133 49.7817 27.7667 49.7117 27.7083C49.6533 27.6733 49.595 27.6267 49.5483 27.5917C49.49 27.545 49.4317 27.51 49.3733 27.4633C49.0467 27.2183 48.72 26.95 48.4167 26.67C48.3233 26.5883 48.2417 26.5067 48.16 26.425C47.9617 26.2267 47.7633 26.0283 47.5767 25.83C47.32 25.5617 47.0867 25.27 46.8533 24.9783C46.5033 24.535 46.1883 24.0567 45.8967 23.5667L55.3117 19.7167L55.5567 19.6117L55.6033 19.5883L55.6733 19.565V19.5883L55.685 19.6467L56.385 25.655C56.5833 25.795 56.8167 25.8883 57.12 25.9467L56.2567 18.5733L51.94 20.335L52.6867 18.2583C52.955 18.2467 53.2117 18.2117 53.4567 18.165L53.8417 18.095L52.1733 12.8217L47.5417 15.8433L47.7867 16.1467C47.95 16.3333 48.125 16.5317 48.3233 16.7067L47.3083 19.565C46.97 19.4133 46.62 19.2267 46.2583 19.005L45.535 16.7067L44.7883 17.1967L45.745 14.525C46.1067 14.5017 46.4683 14.4667 46.83 14.3967L47.215 14.3267L45.08 7.595L40.3317 10.6167L35.105 3.75667L29.9017 10.6283L25.2 7.57167L23.065 14.3033L23.45 14.3733C23.8 14.4433 24.1733 14.49 24.535 14.5017L25.4917 17.1733L24.7333 16.6833L23.415 20.8367L21.9333 16.695C22.1317 16.5083 22.3067 16.3217 22.47 16.135L22.715 15.8317L18.0833 12.81L16.415 18.0833L16.8 18.1533C17.045 18.2 17.3017 18.235 17.57 18.2467L18.3167 20.3233L14 18.5617L13.0083 27.0083L12.25 26.2733C12.3433 26.0283 12.425 25.7833 12.4833 25.5267L12.5767 25.1533L7.09333 24.5L7.93333 29.96L8.30667 29.855C8.55167 29.785 8.79667 29.7033 9.04167 29.5983L11.1883 31.675L9.205 31.3717L10.4883 41.79L10.8617 41.6967C11.4333 41.5567 11.9933 41.37 12.5533 41.1483L13.6617 42.3617L9.73 43.12L12.1917 48.0667L12.5183 47.8567C12.7283 47.7167 12.9383 47.565 13.1367 47.39L18.9933 50.2833C18.83 50.8317 18.7367 51.1583 18.7367 51.17L18.6667 51.415L21.3617 53.5617L20.44 54.8917L31.8617 64.0033L32.7833 64.89L32.795 64.75L33.9267 65.6483V65.66L35.245 67.0133L36.5633 65.66L36.5283 65.5433L37.6833 64.6217L37.7067 64.9017L39.2467 63.42L39.2233 63.3967L49.875 54.9033L49.0117 53.655L51.8233 51.415L51.765 51.205C51.765 51.1817 51.66 50.82 51.4733 50.19L57.085 47.4133C57.2833 47.5767 57.4933 47.74 57.7033 47.88L58.03 48.09L60.4917 43.1433L56.56 42.385L57.6683 41.1717C58.2167 41.3933 58.7883 41.58 59.36 41.72L59.7333 41.8133L61.0167 31.395L59.0333 31.6983L61.18 29.6217C61.4133 29.7267 61.67 29.8083 61.915 29.8783L62.2883 29.9833L63.1283 24.5233L57.6333 25.165ZM37.625 63.8167L36.3183 64.855L35.245 61.3667L34.1367 64.9717L32.8533 63.945L33.0517 61.3667L31.64 62.9767L21.35 54.775L21.8983 53.9933L28.49 59.2433L28.07 55.755C27.93 53.9583 27.895 52.9083 28.3967 51.1583C28.6417 54.3783 30.4617 56.455 30.8 57.0733C31.1733 57.75 30.8233 59.6167 30.8233 59.6167C32.1767 57.9483 31.85 56.805 31.85 56.805C30.1233 54.2267 29.8317 52.045 29.785 51.4267C29.7733 51.31 29.7733 51.2517 29.7733 51.2517C29.855 50.9833 29.9367 50.7267 30.0183 50.4817L30.345 52.6167L32.795 54.2033L33.8333 56.6067L33.9967 56.0233L35.245 57.9483L36.4933 56.0233L36.6567 56.6067L37.695 54.18L40.145 52.5933L40.4717 50.4583C40.5533 50.7033 40.635 50.96 40.7167 51.2283C40.7167 51.2283 40.7167 51.2867 40.705 51.4033C40.6583 52.0217 40.355 54.2033 38.64 56.7817C38.64 56.7817 38.3133 57.9367 39.6667 59.5933C39.6667 59.5933 39.3167 57.7267 39.69 57.05C40.04 56.4317 41.8483 54.355 42.0933 51.135C42.6067 52.885 42.56 53.935 42.42 55.7317L42 59.22L48.475 54.0633L48.9533 54.7517L38.7683 62.8717L37.4267 61.3433L37.625 63.8167ZM22.5283 53.0133C22.5283 52.8267 22.68 52.675 22.8667 52.675C23.0533 52.675 23.205 52.8267 23.205 53.0133C23.205 53.2 23.0533 53.3517 22.8667 53.3517C22.68 53.34 22.5283 53.1883 22.5283 53.0133ZM36.75 21.2683H37.2283V22.47H36.75H33.7167H33.2383V21.2683H33.7167H36.75ZM39.0483 19.845C39.2233 19.985 39.41 20.1133 39.5967 20.2417L39.6083 23.695C39.0483 23.3567 38.4883 23.0417 37.9867 22.7617V20.615H37.6717C37.7067 20.2417 37.8 19.8683 38.0567 19.7167C38.3717 19.5417 38.8617 19.74 39.0483 19.845ZM48.65 20.0083C48.405 19.9617 48.16 19.8917 47.8917 19.7983L48.8367 17.15C49.735 17.7917 50.7967 18.1767 51.8933 18.2467L51.2517 20.055C51.2167 20.055 51.17 20.055 51.135 20.0667C51.1233 20.0667 50.8433 20.1367 50.3883 20.16C49.9567 20.1833 49.35 20.16 48.65 20.0083ZM49.2683 50.225C47.9967 45.0917 46.2933 39.8533 44.7767 36.4233L44.73 36.4467L44.835 35.9683L45.6283 36.3067C47.5533 39.935 49.5367 46.0717 50.505 49.28L49.2683 50.225ZM48.685 50.6683L47.2267 51.7767C46.585 46.4917 44.905 42.0583 44.5667 41.195L44.9283 40.5533L43.0967 36.2833L44.275 36.96C45.7567 40.3783 47.46 45.6867 48.685 50.6683ZM45.8033 54.1567C45.99 54.1567 46.1417 54.3083 46.1417 54.495C46.1417 54.6817 45.99 54.8333 45.8033 54.8333C45.6167 54.8333 45.465 54.6817 45.465 54.495C45.465 54.3083 45.6167 54.1567 45.8033 54.1567ZM44.2983 55.9883C44.2983 56.175 44.1467 56.3267 43.96 56.3267C43.7733 56.3267 43.6217 56.175 43.6217 55.9883C43.6217 55.8017 43.7733 55.65 43.96 55.65C44.1583 55.65 44.2983 55.8017 44.2983 55.9883ZM36.3767 52.675L36.3417 53.4917L35.245 52.325L34.1483 53.4917L34.1133 52.675L32.9 53.4917L30.7767 52.08L30.4267 49.3617C30.8583 48.335 31.2433 47.7517 31.2433 47.7517L32.7717 48.0667L31.395 48.72L31.8967 49.0583L34.1017 48.6617L35.2217 49.0583L36.3417 48.6617L38.5467 49.0583L39.0483 48.72L37.6717 48.0667L39.2 47.7517C39.2 47.7517 39.5733 48.335 40.0167 49.3617L39.6667 52.08L37.5433 53.4917L36.3767 52.675ZM27.2767 54.8217L25.7017 53.62C25.725 53.0367 25.865 50.9483 26.495 48.3117L27.2767 54.8217ZM8.21333 27.23L8.015 25.97L7.92167 25.34V25.3167V25.305L8.015 25.3167L11.7133 25.76C11.655 25.9583 11.5733 26.1567 11.4917 26.3433C11.4333 26.4717 11.375 26.5883 11.305 26.705C11.2583 26.7983 11.2 26.88 11.1533 26.9733C11.13 27.0083 11.1067 27.0433 11.0833 27.0783C10.5233 27.9067 9.74167 28.56 8.82 28.9567C8.715 29.0033 8.61 29.0383 8.505 29.085L8.225 27.2533C8.17833 27.2417 8.13167 27.2417 8.085 27.2417C8.12 27.2417 8.16667 27.2417 8.21333 27.23ZM21.3733 17.1617L23.0767 21.9217L22.9833 22.2367L22.2017 21.9217L20.1017 21.07L19.1917 20.6967L18.3283 18.2583C19.4133 18.1767 20.475 17.8033 21.3733 17.1617ZM18.4333 14.0467L18.4683 13.9183L18.48 13.8833L21.6767 15.9717C21.5133 16.135 21.35 16.2867 21.1633 16.4267C20.545 16.9167 19.8333 17.255 19.0633 17.43C18.9933 17.4417 18.9117 17.465 18.8417 17.4767C18.6783 17.5 18.5267 17.5233 18.3633 17.5467C18.2117 17.5583 18.0717 17.57 17.92 17.57C17.8617 17.57 17.8033 17.57 17.745 17.57C17.605 17.57 17.4533 17.5583 17.3133 17.535L18.4333 14.0467ZM25.55 18.0483L30.0067 20.9533V23.5083V23.7067V23.7533C29.3533 24.1967 28.6533 24.57 27.9183 24.85C27.335 25.0717 26.74 25.2467 26.1333 25.3517C25.83 25.41 25.515 25.4567 25.2 25.48C24.885 25.5033 24.57 25.5267 24.255 25.5267C24.2433 25.5267 24.2433 25.5267 24.2317 25.5267C24.185 25.5267 24.1383 25.5267 24.1033 25.5267L23.9867 25.3283C24.4183 24.78 24.7917 24.1967 25.13 23.6017C25.1417 23.5783 25.1533 23.555 25.165 23.5317L25.3517 23.1933L25.1067 23.0883L23.625 22.4817L24.9317 18.3633L25.025 18.0833L25.1183 17.78L25.13 17.745L25.55 18.0483ZM37.2517 23.135C40.0517 24.6167 43.7967 27.0317 44.2283 29.1783L42.7117 28.9333L43.1317 28.07L39.9233 28.3617C39.6667 26.8333 38.0567 24.6167 36.8433 23.135H37.2517ZM57.295 27.8833L58.2633 26.95C58.3917 27.195 58.5433 27.4283 58.7067 27.65C58.765 27.7317 58.835 27.8133 58.8933 27.8833C59.3483 28.4433 59.8967 28.9217 60.5267 29.2833L57.8667 31.8617L56.4783 32.0717L54.005 32.445L54.3433 31.8733L55.1133 30.5667C55.2883 30.59 55.4517 30.6133 55.6267 30.6367C56.1633 30.695 56.7117 30.73 57.2483 30.73H57.645L57.4233 28.8867L57.295 27.8833ZM50.7267 47.74C50.5983 47.32 50.4467 46.865 50.295 46.3983C49.77 44.7883 49.14 42.945 48.4633 41.1483C48.265 40.6233 48.055 40.0983 47.845 39.585L51.6367 35.6883C51.8817 36.155 52.1617 36.61 52.465 37.0417C52.8383 37.5667 53.2467 38.0567 53.7017 38.5233C54.6583 39.4917 55.7667 40.2967 56.9917 40.8917L50.7267 47.74ZM46.5967 52.255L45.43 53.1417C45.3483 52.01 45.08 49.49 44.205 46.5267L44.4383 44.5433L44.4733 44.5083L43.8083 42.5133L44.135 41.9417C44.695 43.4817 46.0833 47.5533 46.5967 52.255ZM41.2767 47.495L40.495 46.375L41.5683 44.8933L43.5983 44.6017L41.2767 47.495ZM43.995 48.3233C44.625 50.96 44.765 53.0367 44.7883 53.6317L43.2133 54.8333L43.995 48.3233ZM43.1783 42.4083L43.82 44.2633L41.1367 44.4617L40.0983 45.7683L39.305 45.4417L40.0983 43.9367L38.0333 42.6767L38.535 42.1633L38.2317 41.5683L40.285 42.1167L39.655 41.58C40.25 41.685 40.705 41.72 41.0783 41.6967C42.35 41.5917 42.3617 40.8333 42.3617 40.8333C42.3383 40.7983 42.3033 40.775 42.2683 40.74C42.2333 40.705 42.1983 40.6817 42.1633 40.6467C41.895 40.4133 41.615 40.25 41.335 40.145C40.9733 39.97 40.565 39.8183 40.145 39.69C41.09 39.3167 41.9533 39.235 41.9533 39.235C43.0733 39.6783 44.0417 40.7633 44.0417 40.7633L43.1783 42.4083ZM38.1267 40.9033C38.3017 40.5417 38.9433 40.2033 38.9433 40.2033C38.9433 40.2033 40.4133 40.2267 41.4633 40.9033C40.7167 41.51 38.1267 40.9033 38.1267 40.9033ZM42.7117 38.3017C42.6883 38.2783 42.665 38.2667 42.6417 38.2433C42.595 38.2083 42.5483 38.1733 42.5017 38.1383C42.4083 38.08 42.3033 38.0217 42.21 37.975L42.175 37.9867L36.9367 38.9433L38.045 37.73L36.505 38.5117L35.805 38.08L37.2167 40.5533L36.0617 41.0083L37.8 41.9533L36.61 42.6533L36.5167 42.7117L36.8433 42.875L39.3517 44.135L38.7567 45.3483H37.73H37.7183L36.9833 46.2583L35.2567 46.6433L33.53 46.2583L32.795 45.3483H32.7833H31.7567L31.1617 44.135L33.67 42.875L33.9967 42.7117L33.9033 42.6533L32.7133 41.9533L33.1567 41.7083L34.4517 41.0083L33.2967 40.5533L34.7083 38.08L34.0083 38.5117L32.4683 37.73L33.5767 38.9433L28.3033 37.975C28.21 38.01 28.1167 38.0683 28.0117 38.1383C27.965 38.1733 27.9183 38.2083 27.8717 38.2433C27.8483 38.2667 27.825 38.2783 27.8017 38.3017C27.2067 38.78 26.67 39.515 26.67 39.515L28.0467 36.2483L28.42 36.575L31.115 35.175L32.8533 35.6533L35.2683 35.1633L37.6833 35.6533L39.4217 35.175L42.1167 36.575L42.49 36.2483L43.8667 39.515C43.8433 39.515 43.3067 38.78 42.7117 38.3017ZM23.8933 52.255C24.4067 47.565 25.795 43.4817 26.3667 41.9533L26.6933 42.525L26.0283 44.52L26.0633 44.555L26.2967 46.5383C25.4217 49.5017 25.1533 52.01 25.0717 53.1533L23.8933 52.255ZM26.215 36.96L27.3933 36.2833L25.5617 40.5533L25.9233 41.195C25.585 42.0583 23.905 46.4917 23.2633 51.7767L21.805 50.6683C23.03 45.6867 24.7333 40.3783 26.215 36.96ZM28.525 39.235C28.525 39.235 29.4 39.3167 30.3333 39.69C29.9133 39.83 29.505 39.9817 29.1433 40.145C28.8633 40.25 28.5833 40.4133 28.315 40.6467C28.28 40.6817 28.245 40.705 28.21 40.74C28.175 40.775 28.1517 40.7983 28.1167 40.8333C28.1167 40.8333 28.1283 41.5917 29.4233 41.6733C29.785 41.6967 30.2517 41.6733 30.8467 41.5567L30.2167 42.0933L32.27 41.545L31.9667 42.14L32.4683 42.6533L30.4033 43.9133L31.1967 45.4183L30.4033 45.745L29.365 44.4383L26.6817 44.24L27.3233 42.385L26.4367 40.74C26.4367 40.7633 27.405 39.6783 28.525 39.235ZM32.3633 40.9033C32.3633 40.9033 29.7733 41.5217 29.0267 40.9033C30.065 40.2267 31.5467 40.2033 31.5467 40.2033C31.5467 40.2033 32.1883 40.53 32.3633 40.9033ZM29.225 47.495L26.9033 44.6133L28.9333 44.905L30.0067 46.3867L29.225 47.495ZM42.6067 35.2333L41.9883 35.7817L39.4683 34.475L37.6367 34.9767L35.245 34.4867L32.8533 34.9767L31.0217 34.475L28.5017 35.7817L27.8833 35.2333L26.3783 36.0967L26.1567 35.0233L23.135 36.33L23.8933 34.1017L22.1083 34.4983L23.275 32.5033L22.7033 32.1417L25.9467 30.8933L25.165 30.03L28.7933 29.4467L28.49 28.84L33.5533 29.295L35.245 28.805L36.9367 29.295L42 28.8283L41.6967 29.435L45.325 30.0183L44.5433 30.8817L47.7867 32.13L47.215 32.4917L48.3817 34.4867L46.5967 34.09L47.355 36.3183L44.3333 35.0117L44.1117 36.085L42.6067 35.2333ZM13.2183 40.88C14.4083 40.3083 15.4933 39.5267 16.4267 38.5933C16.905 38.115 17.3367 37.6017 17.7217 37.0533C18.0367 36.61 18.3167 36.155 18.5617 35.6767L22.5517 39.7833C22.3417 40.3083 22.1317 40.845 21.9333 41.3933C21.245 43.2133 20.6267 45.0683 20.1017 46.6667C19.95 47.1217 19.81 47.565 19.6817 47.9733L13.2183 40.88ZM11.2467 28C11.34 27.895 11.4217 27.79 11.5033 27.685C11.6783 27.4517 11.83 27.2067 11.97 26.9617L12.9267 27.8833L12.7983 28.945L12.5883 30.7417H12.985C13.51 30.7417 14.035 30.7067 14.56 30.6483C14.7467 30.625 14.9333 30.6017 15.1083 30.5783L15.9483 31.99L16.2167 32.4567L13.6967 32.0833L12.3667 31.885L9.70667 29.2833C10.29 28.945 10.815 28.5133 11.2467 28ZM18.8883 35.0117C19.1333 34.4633 19.3317 33.8917 19.4833 33.32L19.5767 32.9933L19.5883 32.9467L19.5533 32.935L17.115 32.5733L15.855 30.4267C17.815 30.0183 19.6583 29.1783 21.2567 28C21.5367 27.8017 21.805 27.58 22.0617 27.3583C22.5867 26.915 23.0767 26.425 23.52 25.9L25.515 29.2833L23.8467 29.5517L24.8033 30.6017L24.1267 30.8583L21.2217 31.9783L22.3767 32.7017L20.9067 35.21L20.755 35.455L21.0117 35.3967L22.8667 34.9883L22.0967 37.24L22.0033 37.52L22.2133 37.4267L23.905 36.6917C23.59 37.3217 23.2867 38.01 22.9833 38.7333C22.9367 38.8383 22.89 38.9433 22.8433 39.06L18.8883 35.0117ZM29.995 20.125L26.4367 17.8033L25.2583 14.5133C26.285 14.4667 27.2767 14.2217 28.1983 13.79C28.7817 14.1167 29.3767 14.4083 29.9833 14.6417L29.995 20.125ZM24.605 26.39L24.5467 26.2267C25.8767 26.1917 27.195 25.9 28.4317 25.3983C27.2533 26.3433 26.25 27.3817 25.8183 28.4433L24.605 26.39ZM45.675 26.2267L45.6167 26.39L44.5667 28.175C44.1233 27.2883 43.295 26.4133 42.3267 25.6083C43.4 25.9817 44.5317 26.1917 45.675 26.2267ZM48.02 37.345L48.4867 37.5433L48.2767 36.9133L47.6233 35.0117L49.1867 35.3617L49.735 35.4783L49.4317 34.9533L48.125 32.7133L49.28 31.99L46.1067 30.765L45.6983 30.6133L46.655 29.5633L44.9167 29.2833C44.905 29.19 44.8933 29.1083 44.87 29.015L46.7017 25.9117C47.145 26.425 47.6233 26.9033 48.1367 27.335C48.3817 27.545 48.6383 27.755 48.895 27.9417C50.5167 29.155 52.3833 30.0067 54.3783 30.4267L53.1183 32.5617L50.6217 32.935L50.7267 33.3083C50.8783 33.88 51.0883 34.4517 51.3217 35L47.5533 38.8733C47.495 38.7217 47.425 38.5817 47.3667 38.43C47.11 37.8233 46.8417 37.2517 46.585 36.715L48.02 37.345ZM39.2467 28.4083L38.955 28.4317C38.8033 27.1133 37.73 25.69 36.7033 24.3017C36.4 23.8933 36.1083 23.5083 35.8633 23.135H35.98C37.2633 24.675 39.0017 26.9967 39.2467 28.4083ZM36.1667 24.6983C37.1 25.9467 38.1383 27.3583 38.29 28.49L36.995 28.6067L35.2333 28.0933L33.4717 28.6067L32.1767 28.49C32.3283 27.3467 33.3667 25.9467 34.3 24.6983C34.6267 24.255 34.9533 23.8233 35.2217 23.415C35.525 23.8233 35.84 24.255 36.1667 24.6983ZM33.7867 24.3017C32.76 25.69 31.6983 27.125 31.535 28.4317L31.2433 28.4083C31.5 26.9267 33.355 24.535 34.5217 23.135H34.6267C34.37 23.4967 34.09 23.8933 33.7867 24.3017ZM30.5783 28.3383L27.37 28.0467L27.79 28.91L26.2733 29.1667C26.705 27.0317 30.45 24.605 33.25 23.1233H33.6467C32.4333 24.6167 30.8233 26.8333 30.5783 28.3383ZM32.4683 20.615V22.785C31.9083 23.0883 31.29 23.4383 30.6717 23.8233L30.66 14.8867C30.765 14.9217 30.87 14.9567 30.9867 14.9917C30.9867 15.9833 31.29 16.9517 31.71 17.7333C31.7683 17.85 31.8267 17.955 31.885 18.0717C32.3633 18.9583 32.7483 19.67 32.83 20.6267H32.4683V20.615ZM28.9567 11.8883L28.2333 12.8333L28.035 13.1017C27.9533 13.1367 27.8717 13.1833 27.79 13.2183C27.6733 13.265 27.5567 13.3233 27.44 13.3583C26.6467 13.6617 25.7833 13.825 24.92 13.825C24.745 13.825 24.5583 13.8133 24.3833 13.8017C24.2433 13.79 24.1033 13.7783 23.9633 13.755L25.585 8.63334L25.69 8.70333L29.4817 11.1767L28.9567 11.8883ZM10.7683 43.6917L10.7567 43.6683L10.745 43.6567L14.1983 42.9917L14.4783 43.295C14.455 43.61 14.4083 43.9133 14.3267 44.205C14.2683 44.4383 14.1983 44.66 14.105 44.8817C14.0233 45.0917 13.9183 45.3017 13.8017 45.5117C13.58 45.9083 13.3 46.2817 12.9733 46.6083C12.7983 46.7833 12.6233 46.9467 12.425 47.0867L10.85 43.855L10.7683 43.6917ZM14.8283 44.975C14.8517 44.905 14.875 44.835 14.8983 44.765C14.98 44.5083 15.05 44.2517 15.0967 43.995L15.1433 44.0183L16.6017 45.605L19.46 48.7317C19.4367 48.79 19.425 48.86 19.4017 48.9183C19.32 49.175 19.25 49.42 19.18 49.63L13.65 46.9C14.175 46.34 14.5717 45.6867 14.8283 44.975ZM19.9967 49.2917C20.9767 46.0833 22.96 39.9467 24.8733 36.3183L25.6667 35.9683L25.7717 36.4467L25.725 36.4233C24.2083 39.8417 22.505 45.0917 21.2333 50.225L19.9967 49.2917ZM24.6867 54.1567C24.8733 54.1567 25.025 54.3083 25.025 54.495C25.025 54.6817 24.8733 54.8333 24.6867 54.8333C24.5 54.8333 24.3483 54.6817 24.3483 54.495C24.36 54.3083 24.5117 54.1567 24.6867 54.1567ZM26.1917 55.9883C26.1917 55.8017 26.3433 55.65 26.53 55.65C26.7167 55.65 26.8683 55.8017 26.8683 55.9883C26.8683 56.175 26.7167 56.3267 26.53 56.3267C26.3433 56.3267 26.1917 56.1633 26.1917 55.9883ZM51.0417 48.7783C51.0183 48.685 50.9833 48.5917 50.96 48.4983L53.655 45.5583L55.0667 44.0183L55.1133 43.995C55.16 44.2517 55.2183 44.4967 55.3 44.7533C55.3 44.765 55.3117 44.7767 55.3117 44.8C55.5683 45.5817 55.9883 46.305 56.5483 46.9233L51.2633 49.5367C51.205 49.2917 51.1233 49.0467 51.0417 48.7783ZM52.29 15.645L52.885 17.535C52.7683 17.5467 52.6517 17.5583 52.535 17.5583C52.4533 17.5583 52.3717 17.57 52.2783 17.57C52.15 17.57 52.0217 17.5583 51.8933 17.5583C51.73 17.5467 51.5667 17.5233 51.4033 17.5C51.3217 17.4883 51.2517 17.4767 51.17 17.4533C50.3767 17.2783 49.63 16.9283 49 16.415C48.8367 16.275 48.6733 16.135 48.5217 15.9833L51.6833 13.9183L51.7183 13.895V13.9067L51.7533 14.0233L51.835 14.28L51.9283 14.56L52.2667 15.61C52.3133 15.6217 52.3717 15.6217 52.43 15.6217C52.3833 15.6333 52.3367 15.645 52.29 15.645ZM47.2383 22.2367L47.2033 22.1317C47.3433 22.12 47.495 22.0967 47.635 22.085L47.2383 22.2367ZM46.5967 22.4933L45.0683 23.1233L44.87 23.205L45.0567 23.5317L45.0683 23.5433C45.4067 24.1617 45.8033 24.7683 46.2467 25.34L46.13 25.5383C46.0717 25.5383 46.025 25.5383 45.9667 25.5383C45.64 25.5383 45.3017 25.5267 44.975 25.4917C44.66 25.4567 44.3567 25.4217 44.0417 25.3633C43.435 25.2467 42.84 25.0717 42.2567 24.85C41.5567 24.5817 40.8917 24.2317 40.2733 23.8117V23.3683V20.9067L40.495 20.7667C40.95 21 41.4283 21.21 41.9067 21.3733C42.4317 21.56 42.9567 21.7117 43.47 21.8167C43.855 21.8983 44.2167 21.9567 44.5667 21.98C44.7533 22.0033 44.94 22.0033 45.115 22.015C45.15 22.015 45.1967 22.015 45.2433 22.015C45.4067 22.015 45.57 22.0033 45.7217 21.9917C45.815 22.015 45.9083 22.0267 46.0017 22.05C46.165 22.0733 46.3283 22.0967 46.4917 22.1083L46.5967 22.4933ZM10.7567 38.2783L10.08 32.795L10.0217 32.2817L10.01 32.2233V32.2117L10.255 32.2467L18.7133 33.5183C18.5967 33.88 18.4683 34.23 18.3283 34.5683C18.2 34.86 18.0717 35.14 17.92 35.42C17.815 35.63 17.6983 35.84 17.57 36.0383C17.5233 36.12 17.465 36.2133 17.4067 36.295C16.1583 38.22 14.35 39.7133 12.18 40.5767C11.8183 40.7167 11.445 40.845 11.06 40.95L10.7333 38.3133C10.6283 38.3017 10.5233 38.3017 10.4067 38.3017C10.5467 38.3017 10.6517 38.29 10.7567 38.2783ZM47.635 53.34C47.4483 53.34 47.2967 53.1883 47.2967 53.0017C47.2967 52.815 47.4483 52.6633 47.635 52.6633C47.8217 52.6633 47.9733 52.815 47.9733 53.0017C47.9617 53.1883 47.8217 53.34 47.635 53.34ZM57.7617 47.075C57.5517 46.9233 57.365 46.7483 57.19 46.5617C56.875 46.235 56.595 45.8733 56.3733 45.4767C56.2567 45.2783 56.1633 45.0683 56.0817 44.8583C56 44.6367 55.9183 44.415 55.8717 44.1933C55.8017 43.9017 55.7433 43.5983 55.7317 43.295L56.0117 42.98L59.4533 43.645H59.465L59.4533 43.68L58.5433 45.5C58.555 45.5 58.5667 45.5 58.59 45.5C58.5783 45.5 58.555 45.5 58.5433 45.5L57.7617 47.075ZM48.0783 20.5683C48.6617 20.7317 49.1867 20.8017 49.6533 20.825C49.2567 20.9883 48.7783 21.1517 48.2533 21.2683C48.1833 21.28 48.1017 21.3033 48.0317 21.315C47.9967 21.3267 47.9733 21.3267 47.9383 21.3383C47.88 21.35 47.81 21.3617 47.74 21.3733C47.6817 21.385 47.635 21.3967 47.5767 21.3967C47.53 21.4083 47.4833 21.4083 47.425 21.42C47.32 21.4317 47.2033 21.4433 47.0867 21.455C46.9117 21.4667 46.725 21.4783 46.55 21.49C46.305 21.5017 46.0717 21.5017 45.8267 21.4783C44.905 21.3967 44.0067 21.0583 43.2367 20.5683C42.8283 20.3117 42.4667 20.0083 42.14 19.6583C42.035 19.5533 41.9417 19.4483 41.8483 19.3317C41.8017 19.2733 41.755 19.215 41.7083 19.145C41.6267 19.04 41.5567 18.9467 41.4867 18.8417C41.6967 19.2383 41.9417 19.6 42.2333 19.95C42.6417 20.44 43.1317 20.8483 43.68 21.1867C42.245 20.895 40.6117 20.2417 39.4683 19.3083C39.4567 19.2967 39.445 19.285 39.4217 19.2733C39.3867 19.25 38.4533 18.725 37.73 19.145C37.2983 19.39 37.065 19.8917 37.0067 20.6267H36.5283C36.4933 19.7283 36.4817 18.7717 36.82 17.9317C36.89 17.7567 36.9833 17.5933 37.0883 17.4533C37.1933 17.3133 37.3333 17.185 37.4733 17.0917C37.6133 16.9983 37.7767 16.9283 37.9283 16.8817C38.4067 16.7533 38.885 16.7767 39.3633 16.8467C38.885 16.7183 38.3833 16.6483 37.8933 16.73C37.7183 16.765 37.5433 16.8233 37.3683 16.905C37.1933 16.9983 37.03 17.1267 36.8783 17.2783C36.7383 17.43 36.61 17.605 36.5167 17.7917C36.0617 18.655 35.9567 19.67 35.8867 20.6383H34.6267C34.5683 20.2183 34.5217 19.7983 34.51 19.3783C34.4983 18.8067 34.5333 18.2467 34.6733 17.6867C34.755 17.3717 34.8717 17.0333 35.0467 16.7533C35.35 16.275 35.7233 15.9133 36.225 15.645C36.6333 15.4233 37.065 15.33 37.5083 15.2367C36.96 15.295 36.4117 15.3767 35.9333 15.645C35.455 15.9017 35.0117 16.275 34.7317 16.7533C34.5333 17.0917 34.3817 17.43 34.265 17.8033C33.9617 18.7133 33.9617 19.705 34.0083 20.6617H33.5183C33.4483 19.5417 33.005 18.725 32.4917 17.7917C32.4333 17.6867 32.375 17.57 32.3167 17.465C31.6867 16.2867 31.3017 14.4433 32.27 13.1017C33.215 11.8067 34.755 11.0833 36.8783 10.9317L36.8317 10.9783C36.7383 11.0717 36.715 11.2 36.75 11.3167C36.785 11.4333 36.89 11.5267 37.0183 11.55C38.3367 11.7717 39.6083 12.3783 40.5067 13.2183C41.1483 13.8133 41.7083 14.56 42.175 15.4117C42.245 15.54 42.315 15.6683 42.385 15.785C42.4083 15.82 42.4317 15.855 42.4433 15.89C42.5017 15.9833 42.5483 16.065 42.6067 16.1583C42.63 16.1933 42.6533 16.2283 42.665 16.2633C42.735 16.3683 42.7933 16.4617 42.8633 16.5667C42.875 16.5783 42.875 16.59 42.8867 16.6017C42.9683 16.7183 43.0383 16.8233 43.12 16.94C43.1317 16.9517 43.1317 16.9633 43.1433 16.975C43.2133 17.0683 43.2833 17.1733 43.3533 17.2667C43.365 17.2783 43.3767 17.3017 43.3883 17.3133C43.47 17.4067 43.54 17.5117 43.6217 17.605C43.785 17.8033 43.96 17.99 44.1233 18.1767C45.5 19.5767 46.9467 20.265 48.0783 20.5683ZM45.0917 17.7683L45.1617 18.0017L45.2433 18.2467L45.255 18.27C45.255 18.27 45.255 18.27 45.2433 18.2583C45.2083 18.2233 45.1733 18.2 45.1383 18.165C45.08 18.1183 45.0217 18.06 44.9633 18.0133C44.9283 17.9783 44.8933 17.9433 44.8583 17.9083L45.0567 17.78L45.0917 17.7683ZM44.625 8.645L46.2467 13.7667C46.1417 13.7783 46.025 13.79 45.92 13.8017C45.71 13.825 45.5 13.825 45.29 13.825C44.4267 13.825 43.575 13.6617 42.7817 13.3583C42.665 13.3117 42.5483 13.265 42.4317 13.2067C42.3733 13.1833 42.315 13.1483 42.2567 13.125L42 12.7983L41.265 11.8417L40.7517 11.1767L44.3683 8.82L44.625 8.645ZM42 13.7783C42.9217 14.21 43.9133 14.455 44.9517 14.5017L44.0533 17.0217C43.5983 16.4617 43.155 15.8083 42.735 15.0383C42.5017 14.6067 42.2333 14.1983 41.9533 13.8133C41.965 13.8017 41.9767 13.79 42 13.7783ZM37.5433 8.06167L41.5333 13.2883C41.5333 13.2883 41.5333 13.2883 41.5217 13.2883C41.335 13.0667 41.1367 12.8683 40.9267 12.67C40.0867 11.8883 38.9433 11.2817 37.7183 10.9667L37.94 10.7567C38.0333 10.6633 38.0683 10.5117 38.01 10.395C37.9633 10.2667 37.835 10.185 37.695 10.185C37.555 10.185 37.4033 10.185 37.2633 10.1967C35.1167 10.2667 33.4483 10.8617 32.305 11.97C32.0833 12.18 31.885 12.4133 31.6983 12.6583C31.325 13.1717 31.115 13.7317 31.0217 14.3033C30.2283 14.0467 29.4467 13.7083 28.7117 13.3L34.7083 5.37833L35.105 4.865L35.5017 5.37833L36.5867 6.80167C36.5983 6.72 36.5983 6.62667 36.5983 6.53333C36.5983 6.63833 36.5983 6.74333 36.61 6.83667L37.45 7.93333C37.625 7.98 37.8233 8.00333 38.0683 8.00333C37.87 8.015 37.695 8.02667 37.5433 8.06167ZM18.3283 21.0817L24.3717 23.5433C24.08 24.045 23.7533 24.5233 23.4033 24.9783C23.17 25.27 22.925 25.5617 22.68 25.83C22.4933 26.04 22.295 26.2383 22.085 26.425C22.0033 26.5067 21.91 26.5883 21.8167 26.67C21.5133 26.95 21.1983 27.2067 20.86 27.4517C20.8017 27.4983 20.7433 27.5333 20.685 27.58C20.6267 27.6267 20.5683 27.6617 20.51 27.7083C20.4283 27.7667 20.3583 27.8133 20.2767 27.86C20.23 27.895 20.1833 27.93 20.125 27.9533C20.02 28.0233 19.9267 28.0817 19.8217 28.14C19.7867 28.1633 19.7633 28.175 19.7283 28.1983C19.5883 28.28 19.46 28.3617 19.32 28.4317C19.285 28.455 19.25 28.4667 19.215 28.49C19.11 28.5483 19.0167 28.595 18.9117 28.6417C18.8533 28.6767 18.7833 28.7 18.725 28.735C18.655 28.77 18.585 28.805 18.515 28.84C18.4333 28.875 18.3517 28.91 18.27 28.945C18.2233 28.9683 18.1883 28.98 18.1417 29.0033C16.9633 29.505 15.715 29.8317 14.4083 29.9717C14.0583 30.0067 13.7083 30.03 13.3467 30.0417L14.5133 20.09L14.5717 19.635L14.5833 19.565V19.5533L14.6067 19.565L14.805 19.6467L18.27 21.0583C18.2817 20.9183 18.2933 20.7667 18.2933 20.6033C18.305 20.7783 18.305 20.93 18.3283 21.0817ZM21.0233 51.8583C20.8367 51.8583 20.685 51.7067 20.685 51.52C20.685 51.3333 20.8367 51.1817 21.0233 51.1817C21.21 51.1817 21.3617 51.3333 21.3617 51.52C21.3617 51.7067 21.21 51.8583 21.0233 51.8583ZM49.4667 51.1817C49.6533 51.1817 49.805 51.3333 49.805 51.52C49.805 51.7067 49.6533 51.8583 49.4667 51.8583C49.28 51.8583 49.1283 51.7067 49.1283 51.52C49.1283 51.3333 49.28 51.1817 49.4667 51.1817ZM59.4533 38.36L59.1383 40.95C58.7417 40.845 58.3567 40.705 57.9833 40.5533C55.825 39.69 54.0283 38.1967 52.7917 36.2717C52.7333 36.19 52.6867 36.1083 52.6283 36.015C52.5117 35.8167 52.395 35.6067 52.2783 35.3967C52.1383 35.1167 51.9983 34.8367 51.8817 34.545C51.7417 34.2067 51.6133 33.8567 51.5083 33.5067L59.8733 32.2467L60.1533 32.2L60.2 32.1883H60.2233V32.235L60.2 32.4567L59.4883 38.22C59.6633 38.2667 59.8617 38.2783 60.0833 38.2783C59.8267 38.3017 59.6283 38.325 59.4533 38.36ZM61.9733 27.4167L61.7167 29.085C61.6 29.0383 61.4833 28.9917 61.3667 28.945C60.4567 28.5367 59.6867 27.8833 59.1383 27.0667C59.115 27.0317 59.0917 26.9967 59.0683 26.9617C59.01 26.88 58.9633 26.7867 58.9167 26.705C58.8467 26.5883 58.7883 26.4717 58.73 26.3433C58.6483 26.1567 58.5667 25.97 58.5083 25.7717L62.1367 25.34L62.2533 25.3283H62.2767H62.3V25.34L62.265 25.5733L62.02 27.1483C62.1017 27.23 62.2417 27.265 62.4283 27.265C62.195 27.2417 62.055 27.2883 61.9733 27.4167Z" fill="#231F20"/>
<path d="M31.6984 17.7333C31.2784 16.9517 30.9751 15.9833 30.9751 14.9917C30.8701 14.9567 30.7651 14.9217 30.6484 14.8867L30.6601 23.8233C31.2784 23.4383 31.8968 23.0883 32.4568 22.785V20.615H32.8068C32.7368 19.6583 32.3401 18.9467 31.8618 18.06C31.8268 17.955 31.7684 17.85 31.6984 17.7333Z" fill="#96121F"/>
<path d="M37.6719 20.615H37.9869V22.7617C38.5002 23.0417 39.0485 23.3567 39.6085 23.695L39.5969 20.2417C39.4102 20.1133 39.2235 19.985 39.0485 19.845C38.8619 19.74 38.3602 19.5417 38.0452 19.7283C37.8002 19.8683 37.7069 20.2417 37.6719 20.615Z" fill="#96121F"/>
<path d="M32.3981 10.185C32.7831 10.185 32.9348 10.0333 32.9348 9.6483C32.9348 9.81163 32.9698 9.9283 33.0281 10.01L34.7198 5.3783L28.7231 13.3C29.4698 13.7083 30.2398 14.0466 31.0331 14.3033C31.1265 13.7316 31.3365 13.1716 31.7098 12.6583C31.8965 12.4133 32.0948 12.18 32.3165 11.97L32.8881 10.4183C32.8065 10.255 32.6548 10.185 32.3981 10.185Z" fill="#96121F"/>
<path d="M36.5865 6.81335L35.5015 5.39001L36.3181 7.60668C36.4815 7.42001 36.5631 7.15168 36.5865 6.81335Z" fill="#96121F"/>
<path d="M37.4504 7.94506L36.6104 6.84839C36.6804 7.46672 36.937 7.81672 37.4504 7.94506Z" fill="#96121F"/>
<path d="M36.7266 8.69165L37.2749 10.185C37.4149 10.185 37.5549 10.1733 37.7066 10.1733C37.8466 10.1733 37.9632 10.255 38.0216 10.3833C38.0682 10.5116 38.0449 10.6516 37.9516 10.745L37.7182 10.9666C38.9316 11.2816 40.0749 11.8766 40.9266 12.67C41.1366 12.8566 41.3232 13.0666 41.5216 13.2883C41.5216 13.2883 41.5216 13.2883 41.5332 13.2883L37.5432 8.06165C37.1232 8.14331 36.8666 8.34165 36.7266 8.69165Z" fill="#96121F"/>
<path d="M36.5985 9.48498C36.5985 8.43498 36.1785 8.01498 35.1285 8.01498C35.7001 8.01498 36.0851 7.88665 36.3185 7.60665L35.5018 5.38998L35.1051 4.87665L34.7085 5.38998L33.0168 10.0216C33.0985 10.1383 33.2385 10.185 33.4601 10.185C33.0751 10.185 32.9235 10.3366 32.9235 10.7216C32.9235 10.5933 32.9001 10.5 32.8651 10.4183L32.2935 11.97C33.4485 10.8616 35.1051 10.2666 37.2518 10.1966L36.7035 8.70332C36.6451 8.90165 36.5985 9.15832 36.5985 9.48498Z" fill="#942319"/>
<path d="M38.78 62.8833L48.965 54.7633L48.4867 54.075L42.0117 59.2317L42.4317 55.7433C42.5717 53.9467 42.6067 52.8967 42.105 51.1467C41.86 54.3667 40.04 56.4433 39.7017 57.0617C39.3167 57.7383 39.6667 59.605 39.6667 59.605C38.3133 57.9367 38.64 56.7933 38.64 56.7933C40.3667 54.215 40.6583 52.0333 40.705 51.415C40.7167 51.2983 40.7167 51.24 40.7167 51.24C40.635 50.9717 40.5533 50.715 40.4717 50.47L40.145 52.605L37.695 54.1917L36.6567 56.6183L36.4933 56.035L35.245 57.96L33.9967 56.035L33.8333 56.6067L32.795 54.18L30.345 52.5933L30.0183 50.4583C29.9367 50.7033 29.855 50.96 29.7733 51.2283C29.7733 51.2283 29.7733 51.2867 29.785 51.4033C29.8317 52.0217 30.135 54.2033 31.85 56.7817C31.85 56.7817 32.1767 57.9367 30.8233 59.5933C30.8233 59.5933 31.1733 57.7267 30.8 57.05C30.45 56.4317 28.6417 54.355 28.3967 51.135C27.8833 52.885 27.93 53.935 28.07 55.7317L28.49 59.22L21.8983 53.97L21.35 54.7517L31.64 62.9533L33.0517 61.3433L32.8533 63.9217L34.1367 64.9483L35.245 61.3433L36.3183 64.8317L37.625 63.7933L37.4383 61.3433L38.78 62.8833Z" fill="#4D4D4D"/>
<path d="M50.4933 49.2917C49.5133 46.0833 47.53 39.9467 45.6167 36.3183L44.8233 35.98L44.7183 36.4583L44.765 36.435C46.2817 39.8533 47.985 45.1033 49.2567 50.2367L50.4933 49.2917Z" fill="#999999"/>
<path d="M43.2133 54.8217L44.7883 53.62C44.765 53.025 44.625 50.9483 43.995 48.3117L43.2133 54.8217Z" fill="#999999"/>
<path d="M33.2501 23.135C30.4501 24.6167 26.7051 27.0317 26.2734 29.1783L27.7901 28.9333L27.3701 28.07L30.5784 28.3617C30.8234 26.8567 32.4451 24.64 33.6584 23.1467H33.2501V23.135Z" fill="#999999"/>
<path d="M39.9233 28.3383L43.1317 28.0467L42.7117 28.91L44.2167 29.1667C43.785 27.0317 40.04 24.605 37.24 23.1233H36.8433C38.0567 24.6167 39.6667 26.8333 39.9233 28.3383Z" fill="#999999"/>
<path d="M34.3235 24.6984C33.3902 25.9467 32.3519 27.3584 32.2002 28.49L33.4952 28.6067L35.2569 28.0934L37.0185 28.6067L38.3135 28.49C38.1619 27.3467 37.1235 25.9467 36.1902 24.6984C35.8635 24.255 35.5369 23.8234 35.2685 23.415C34.9652 23.8234 34.6502 24.255 34.3235 24.6984Z" fill="#CCCCCC"/>
<path d="M31.2432 28.4083L31.5348 28.4317C31.6865 27.1133 32.7598 25.69 33.7865 24.3017C34.0898 23.8933 34.3815 23.5083 34.6265 23.135H34.5215C33.3432 24.5233 31.4998 26.915 31.2432 28.4083Z" fill="#F9A31D"/>
<path d="M41.2765 36.8199L39.4565 36.0266L38.0798 36.8083L35.2448 36.1549L32.4098 36.8083L31.0332 36.0266L29.2132 36.8199C29.2132 36.8199 28.5015 37.5083 28.3265 37.9866L28.2915 37.9749L33.5648 38.9433L32.4565 37.7299L33.9965 38.5116L34.6965 38.0799L33.2848 40.5533L33.5065 40.1566L34.3698 40.9849L33.2848 40.5533L34.4398 41.0083L33.1448 41.7083C33.3782 42.0233 33.8915 42.6416 33.8915 42.6416L33.9848 42.6999L33.6582 42.8633L31.8032 44.1933L31.6982 45.2433L31.1382 44.1116L31.7332 45.3249H32.7598L32.9932 44.3916L33.7165 45.6983L35.2332 46.0483L36.7498 45.6983L37.4732 44.3916L37.7065 45.3249H38.7332L39.3282 44.1116L38.7682 45.2433L38.6632 44.1933L36.8082 42.8633L36.4815 42.6999L36.5748 42.6416C36.5748 42.6416 37.0765 42.0233 37.3215 41.7083L37.7648 41.9533L36.0265 41.0083L37.1815 40.5533L36.0965 40.9849L36.9598 40.1566L37.1815 40.5533L35.7698 38.0799L36.4698 38.5116L38.0098 37.7299L36.9015 38.9433L42.1398 37.9866C41.9765 37.5199 41.2765 36.8199 41.2765 36.8199ZM36.7615 44.3333H35.2448H33.7282L35.2448 44.0649L36.7615 44.3333Z" fill="#C3996B"/>
<path d="M42.4667 36.26L42.0933 36.5867L42.4667 36.26L43.8433 39.515L42.4667 36.26Z" fill="#C3996B"/>
<path d="M31.71 45.2433L31.815 44.1933L33.6583 42.8633L31.15 44.1233L31.71 45.2433Z" fill="#A87C4F"/>
<path d="M33.145 41.7083L32.7017 41.9533L33.8917 42.6533C33.8917 42.6533 33.39 42.035 33.145 41.7083Z" fill="#A87C4F"/>
<path d="M33.5068 40.1566L33.2852 40.5533L34.3818 40.985L33.5068 40.1566Z" fill="#A87C4F"/>
<path d="M38.6865 44.1933L38.7915 45.2433L39.3399 44.1233L36.8315 42.8633L38.6865 44.1933Z" fill="#A87C4F"/>
<path d="M42.4665 36.26L42.0932 36.5867L39.3982 35.1867L37.6598 35.665L35.2448 35.175L32.8298 35.665L31.0915 35.1867L28.3965 36.5867L28.0232 36.26L26.6465 39.5267C26.6465 39.5267 27.1832 38.7917 27.7782 38.3134C27.8015 38.2901 27.8248 38.2784 27.8482 38.2551C27.8948 38.2201 27.9415 38.1851 27.9882 38.1501C28.0815 38.0917 28.1865 38.0334 28.2798 37.9867L28.3148 37.9984C28.5015 37.52 29.2015 36.8317 29.2015 36.8317L31.0215 36.0384L32.3982 36.82L35.2332 36.1667L38.0682 36.82L39.4448 36.0384L41.2648 36.8317C41.2648 36.8317 41.9765 37.52 42.1515 37.9984L42.1865 37.9867C42.2798 38.0217 42.3731 38.0801 42.4782 38.1501C42.5248 38.1851 42.5715 38.2201 42.6181 38.2551C42.6415 38.2784 42.6648 38.2901 42.6882 38.3134C43.2831 38.7917 43.8198 39.5267 43.8198 39.5267L42.4665 36.26Z" fill="#A87C4F"/>
<path d="M37.4848 44.3917L36.7615 45.6984L35.2448 46.0484L33.7282 45.6984L33.0048 44.3917L32.7715 45.3251H32.7832L33.5182 46.2467L35.2448 46.6317L36.9715 46.2467L37.7065 45.3251H37.7298L37.4848 44.3917Z" fill="#A87C4F"/>
<path d="M37.3448 41.7084C37.1115 42.0234 36.5981 42.6417 36.5981 42.6417L37.7881 41.9417L37.3448 41.7084Z" fill="#A87C4F"/>
<path d="M36.9835 40.1567L36.1201 40.985L37.2051 40.5533L36.9835 40.1567Z" fill="#A87C4F"/>
<path d="M26.495 48.3233C25.865 50.96 25.725 53.0483 25.7017 53.6317L27.2767 54.8333L26.495 48.3233Z" fill="#999999"/>
<path d="M44.1348 41.9534L43.8081 42.525L44.4731 44.52L44.4381 44.555L44.2048 46.5384C45.0798 49.5017 45.3481 52.01 45.4298 53.1534L46.5964 52.2667C46.0831 47.5534 44.6948 43.4817 44.1348 41.9534Z" fill="#999999"/>
<path d="M26.2852 46.5266L26.0518 44.5433L26.0168 44.5083L26.6818 42.5133L26.3552 41.9417C25.7835 43.47 24.4068 47.5533 23.8818 52.2433L25.0485 53.13C25.1418 51.9983 25.4102 49.49 26.2852 46.5266Z" fill="#999999"/>
<path d="M44.275 36.96L43.0967 36.2833L44.9283 40.5533L44.5667 41.195C44.905 42.0583 46.585 46.4917 47.2267 51.7767L48.685 50.6683C47.46 45.6867 45.7567 40.3783 44.275 36.96Z" fill="#999999"/>
<path d="M23.2752 51.7767C23.9169 46.4917 25.5969 42.0583 25.9352 41.195L25.5736 40.5533L27.4052 36.2833L26.2269 36.96C24.7452 40.3783 23.0419 45.6867 21.8169 50.6683L23.2752 51.7767Z" fill="#999999"/>
<path d="M35.98 23.135H35.8633C36.12 23.5083 36.4117 23.8933 36.7033 24.3017C37.73 25.69 38.7917 27.125 38.955 28.4317L39.2467 28.4083C39.0017 26.9967 37.2633 24.675 35.98 23.135Z" fill="#F9A31D"/>
<path d="M26.4365 40.7633L27.3232 42.4083L26.6815 44.2633L29.3649 44.4617L30.4032 45.7683L31.1965 45.4417L30.4032 43.9367L32.4682 42.6767L31.9665 42.1633L32.2699 41.5683L30.2165 42.1166L30.8465 41.58C30.2515 41.685 29.7965 41.72 29.4232 41.6967C28.1399 41.5917 28.1282 40.8333 28.1282 40.8333C28.1515 40.7983 28.1865 40.775 28.2215 40.74C28.2565 40.705 28.2915 40.6817 28.3265 40.6467C28.5949 40.4133 28.8749 40.25 29.1549 40.145C29.5165 39.97 29.9249 39.8183 30.3449 39.69C29.3999 39.3167 28.5365 39.235 28.5365 39.235C27.4049 39.6783 26.4365 40.7633 26.4365 40.7633Z" fill="#A87C4F"/>
<path d="M26.9033 44.6133L29.225 47.495L30.0067 46.375L28.9333 44.8933L26.9033 44.6133Z" fill="#8A5D3B"/>
<path d="M39.7014 52.08L40.0514 49.3617C39.6198 48.335 39.2348 47.7517 39.2348 47.7517L37.7064 48.0667L39.0831 48.72L38.5814 49.0584L36.3764 48.6617L35.2564 49.0584L34.1364 48.6617L31.9314 49.0584L31.4298 48.72L32.8064 48.0667L31.2781 47.7517C31.2781 47.7517 30.9048 48.335 30.4614 49.3617L30.8114 52.08L32.9348 53.4917L34.1481 52.675L34.1831 53.4917L35.2798 52.325L36.3764 53.4917L36.4114 52.675L37.6248 53.4917L39.7014 52.08ZM35.2448 50.2134L38.2314 49.7817L36.7381 51.1584L35.2448 51.2984L33.7514 51.1584L32.2581 49.7817L35.2448 50.2134Z" fill="#A87C4F"/>
<path d="M41.9648 39.235C41.9648 39.235 41.0898 39.3167 40.1565 39.69C40.5765 39.83 40.9848 39.9817 41.3465 40.145C41.6265 40.25 41.9065 40.4133 42.1748 40.6467C42.2098 40.6817 42.2448 40.705 42.2798 40.74C42.3148 40.775 42.3381 40.7983 42.3731 40.8333C42.3731 40.8333 42.3615 41.5917 41.0665 41.6733C40.7048 41.6967 40.2381 41.6733 39.6431 41.5566L40.2732 42.0933L38.2198 41.545L38.5232 42.14L38.0215 42.6533L40.0865 43.9133L39.2932 45.4183L40.0865 45.745L41.1248 44.4383L43.8081 44.24L43.1665 42.385L44.0531 40.74C44.0648 40.7633 43.0848 39.6783 41.9648 39.235Z" fill="#A87C4F"/>
<path d="M41.5567 44.8933L40.4833 46.375L41.2767 47.495L43.5867 44.6133L41.5567 44.8933Z" fill="#8A5D3B"/>
<path d="M27.0667 33.565L27.2767 34.2767L28.1983 33.705L28.84 34.16L30.7767 33.04L32.8883 33.3783L35.245 32.8767L37.6017 33.3783L39.7133 33.04L41.65 34.16L42.3033 33.705L43.2133 34.2767L43.4233 33.565L46.5967 34.1017L48.3817 34.4983L47.215 32.5033L47.7867 32.1417L44.5433 30.8933L45.325 30.03L41.7083 29.435L42 28.8283L36.9367 29.2833L35.245 28.7933L33.5533 29.2833L28.49 28.8283L28.7933 29.435L25.165 30.03L25.9467 30.8933L22.7033 32.1417L23.275 32.5033L22.1083 34.4983L23.8933 34.1017L27.0667 33.565Z" fill="white"/>
<path d="M44.3448 35.0233L47.3548 36.3299L46.5964 34.1016L43.4231 33.5649L46.0831 34.9999L43.6681 34.0433L43.5048 34.9999L42.4314 34.3116L41.9181 34.8366L39.5731 33.6699L37.6248 34.2066L35.2448 33.7399L32.8648 34.2066L30.9164 33.6699L28.5714 34.8366L28.0581 34.3116L26.9848 34.9999L26.8214 34.0433L24.4064 34.9999L27.0664 33.5649L23.8931 34.1016L23.1348 36.3299L26.1564 35.0233L26.3781 36.0966L27.8831 35.2333L28.5014 35.7816L31.0214 34.4749L32.8531 34.9766L35.2448 34.4866L37.6364 34.9766L39.4681 34.4749L41.9881 35.7816L42.6064 35.2333L44.1114 36.0966L44.3448 35.0233Z" fill="#BDBDBD"/>
<path d="M25.7133 36.4233L25.76 36.4467L25.6667 35.9683L24.8733 36.3067C22.9483 39.935 20.965 46.0717 19.9967 49.28L21.2333 50.225C22.4933 45.0917 24.1967 39.8533 25.7133 36.4233Z" fill="#999999"/>
<path d="M42.3033 33.705L41.65 34.16L39.7133 33.04L37.6017 33.3783L35.245 32.8767L32.8883 33.3783L30.7767 33.04L28.84 34.16L28.1983 33.705L27.2767 34.2767L27.0667 33.565L24.4067 35L26.8217 34.0433L26.985 35L28.0583 34.3117L28.5717 34.8367L30.9167 33.67L32.865 34.2067L35.245 33.74L37.625 34.2067L39.5733 33.67L41.9183 34.8367L42.4317 34.3117L43.505 35L43.6683 34.0433L46.0833 35L43.4233 33.565L43.2133 34.2767L42.3033 33.705Z" fill="#231F20"/>
<path d="M32.2583 49.7817L33.7517 51.1583L35.245 51.2983L36.7383 51.1583L38.2317 49.7817L35.245 50.2133L32.2583 49.7817Z" fill="#231F20"/>
<path d="M29.0269 40.9034C29.7735 41.5217 32.3635 40.9034 32.3635 40.9034C32.1885 40.5417 31.5469 40.2034 31.5469 40.2034C31.5469 40.2034 30.0769 40.2267 29.0269 40.9034Z" fill="white"/>
<path d="M41.4631 40.9034C40.4248 40.2267 38.9431 40.2034 38.9431 40.2034C38.9431 40.2034 38.3015 40.5417 38.1265 40.9034C38.1265 40.9034 40.7165 41.51 41.4631 40.9034Z" fill="white"/>
<path d="M33.7285 44.3333H35.2452H36.7619L35.2452 44.0533L33.7285 44.3333Z" fill="#A87C4F"/>
<path d="M36.225 12.3083C36.2133 12.3083 36.2017 12.3083 36.2017 12.3083C36.0617 12.285 35.9217 12.2733 35.7817 12.2733C35.77 12.2733 35.7583 12.2733 35.7467 12.2733C35.6767 12.2733 35.6067 12.2733 35.5367 12.2733C35.4667 12.2733 35.4083 12.285 35.3383 12.285C35.3267 12.285 35.3033 12.285 35.2917 12.285C35.2217 12.2967 35.1517 12.2967 35.0933 12.3083C35.0233 12.32 34.965 12.3317 34.895 12.3433C34.8833 12.3433 34.86 12.355 34.8483 12.355C34.7783 12.3667 34.72 12.39 34.65 12.4133C34.4283 12.4833 34.195 12.5767 33.9733 12.705C33.7517 12.8333 33.5417 12.985 33.355 13.1717C33.1683 13.3583 33.005 13.5683 32.8883 13.79C32.76 14.0117 32.6783 14.2567 32.6317 14.49C32.585 14.7233 32.5617 14.9567 32.5733 15.1783C32.5733 15.2483 32.585 15.3067 32.585 15.3767C32.585 15.4 32.585 15.4117 32.5967 15.435C32.6083 15.4817 32.6083 15.54 32.62 15.5867C32.62 15.61 32.6317 15.6333 32.6317 15.6683C32.6433 15.715 32.655 15.7617 32.6667 15.8083C32.6783 15.8433 32.69 15.8783 32.7017 15.9133C32.7133 15.9367 32.7133 15.96 32.725 15.9833C32.7717 16.1117 32.83 16.24 32.8883 16.3683C32.9817 16.5433 33.0867 16.7067 33.2033 16.87C33.0633 16.135 32.9583 15.4 33.2033 14.665C33.2617 14.4783 33.3433 14.3033 33.46 14.1283C33.565 13.965 33.6933 13.8017 33.8333 13.6617C34.265 13.2183 34.8833 12.9383 35.4783 12.775C36.0033 12.635 36.5283 12.5883 37.065 12.5067C36.8667 12.4367 36.6567 12.39 36.4583 12.3433C36.365 12.3317 36.295 12.32 36.225 12.3083Z" fill="#231F20"/>
<path d="M42.8398 16.5083C42.8519 16.5203 42.8519 16.5324 42.864 16.5444C42.8519 16.5203 42.8398 16.5203 42.8398 16.5083Z" fill="white"/>
<path d="M42.5718 16.1C42.5951 16.135 42.6184 16.17 42.6301 16.205C42.6184 16.17 42.5951 16.135 42.5718 16.1Z" fill="white"/>
<path d="M43.33 17.185C43.3417 17.1967 43.3533 17.22 43.365 17.2317C43.3533 17.22 43.3417 17.2083 43.33 17.185Z" fill="white"/>
<path d="M43.085 16.87C43.0971 16.882 43.0971 16.8941 43.1092 16.9061C43.1092 16.8941 43.0971 16.882 43.085 16.87Z" fill="white"/>
<path d="M42.35 15.7383C42.3733 15.7733 42.3967 15.8083 42.4083 15.8433C42.3967 15.8083 42.3733 15.7733 42.35 15.7383Z" fill="white"/>
<path d="M47.5652 21.4083C47.5186 21.42 47.4719 21.42 47.4136 21.4317C47.4602 21.42 47.5186 21.4083 47.5652 21.4083Z" fill="white"/>
<path d="M47.9151 21.3384C47.8568 21.35 47.7868 21.3617 47.7168 21.3734C47.7985 21.3617 47.8568 21.35 47.9151 21.3384Z" fill="white"/>
<path d="M48.0083 21.3267C48.09 21.315 48.16 21.2917 48.23 21.28C48.16 21.2917 48.09 21.3033 48.0083 21.3267Z" fill="white"/>
<path d="M44.0885 18.0951C41.9068 17.0101 40.2735 12.3784 36.4235 12.3434C36.6335 12.3784 36.8318 12.4367 37.0302 12.5067C36.4935 12.5767 35.9685 12.6351 35.4435 12.7751C34.8485 12.9267 34.2302 13.2067 33.7985 13.6617C33.6585 13.8017 33.5302 13.9651 33.4252 14.1284C33.3202 14.2917 33.2385 14.4784 33.1685 14.6651C32.9235 15.4001 33.0168 16.1351 33.1685 16.8701C33.0518 16.7184 32.9468 16.5434 32.8535 16.3684C33.4952 17.9551 33.9502 20.1367 33.9735 20.6267C33.9269 19.6701 33.9385 18.6901 34.2302 17.7684C34.3468 17.3951 34.4985 17.0567 34.6968 16.7184C34.9768 16.2401 35.4202 15.8667 35.8985 15.6101C36.3885 15.3534 36.9368 15.2601 37.4735 15.2017C37.0302 15.2834 36.5868 15.3884 36.1902 15.6101C35.6885 15.8784 35.3152 16.2401 35.0118 16.7184C34.8368 16.9984 34.7202 17.3367 34.6385 17.6517C34.4985 18.2117 34.4635 18.7717 34.4752 19.3434C34.4868 19.7634 34.5335 20.1834 34.5918 20.6034H35.8518C35.9102 19.6351 36.0152 18.6201 36.4818 17.7567C36.5868 17.5701 36.7035 17.3951 36.8435 17.2434C36.9835 17.0917 37.1585 16.9634 37.3335 16.8701C37.5085 16.7767 37.6952 16.7184 37.8585 16.6951C38.3602 16.6134 38.8502 16.6834 39.3285 16.8117C40.6118 16.9517 42.9102 18.9001 43.4002 19.2851C44.4385 20.0784 45.6518 20.6267 46.9118 20.9651C47.3318 21.0817 47.7635 21.1751 48.1952 21.2567C48.7202 21.1284 49.1985 20.9767 49.5952 20.8134C49.1402 20.7901 48.6035 20.7084 48.0202 20.5567C46.9468 20.2651 45.5002 19.5767 44.0885 18.0951Z" fill="white"/>
<path d="M32.6433 15.8083C32.6317 15.7617 32.62 15.715 32.6083 15.6683C32.62 15.7267 32.6317 15.7617 32.6433 15.8083Z" fill="white"/>
<path d="M32.5967 15.5983C32.585 15.5517 32.5733 15.4933 32.5733 15.4467C32.5733 15.4933 32.585 15.5517 32.5967 15.5983Z" fill="white"/>
<path d="M32.7016 15.9833C32.6899 15.96 32.6899 15.9367 32.6782 15.9133C32.6782 15.9367 32.6899 15.96 32.7016 15.9833Z" fill="white"/>
<path d="M34.8135 12.3666C34.8251 12.3666 34.8485 12.355 34.8601 12.355C34.8485 12.3666 34.8368 12.3666 34.8135 12.3666Z" fill="white"/>
<path d="M35.2686 12.2967C35.2802 12.2967 35.3036 12.2967 35.3152 12.2967C35.3036 12.285 35.2802 12.285 35.2686 12.2967Z" fill="white"/>
<path d="M32.5498 15.1899C32.5498 15.2599 32.5615 15.3183 32.5615 15.3883C32.5498 15.3183 32.5498 15.2483 32.5498 15.1899Z" fill="white"/>
<path d="M32.865 16.3567C32.8067 16.2283 32.7483 16.1117 32.7017 15.9717C32.69 15.9483 32.69 15.925 32.6783 15.9017C32.6667 15.8667 32.655 15.8317 32.6433 15.7967C32.6317 15.75 32.62 15.7033 32.6083 15.6567C32.5967 15.6333 32.5967 15.61 32.5967 15.575C32.585 15.5283 32.5733 15.47 32.5733 15.4233C32.5733 15.4 32.5733 15.3883 32.5617 15.365C32.55 15.295 32.55 15.2367 32.55 15.1667C32.5383 14.945 32.5617 14.7117 32.6083 14.4783C32.655 14.245 32.7483 14 32.865 13.7783C32.9933 13.5567 33.145 13.3467 33.3317 13.16C33.5183 12.9733 33.7283 12.8217 33.95 12.6933C34.1717 12.565 34.3933 12.4717 34.6267 12.4017C34.6967 12.3783 34.755 12.3667 34.825 12.3433C34.8367 12.3433 34.86 12.3317 34.8717 12.3317C34.93 12.32 35 12.3083 35.07 12.2967C35.14 12.285 35.21 12.2733 35.2683 12.2733C35.28 12.2733 35.3033 12.2733 35.315 12.2733C35.385 12.2617 35.4433 12.2617 35.5133 12.2617C35.5833 12.2617 35.6533 12.2617 35.7233 12.2617C35.735 12.2617 35.7467 12.2617 35.7583 12.2617C35.8983 12.2617 36.0383 12.2733 36.1783 12.2967C36.19 12.2967 36.2017 12.2967 36.2017 12.2967C36.2717 12.3083 36.3417 12.32 36.4117 12.3317C40.2617 12.355 41.895 16.9983 44.0767 18.0833C43.9133 17.9083 43.7383 17.7217 43.575 17.5117C43.4933 17.4183 43.4233 17.325 43.3417 17.22C43.33 17.2083 43.3183 17.185 43.3067 17.1733C43.2367 17.08 43.1667 16.9867 43.0967 16.8817C43.085 16.87 43.085 16.8583 43.0733 16.8467C42.9917 16.7417 42.9217 16.625 42.84 16.5083C42.8283 16.4967 42.8283 16.485 42.8167 16.4733C42.7467 16.38 42.6883 16.275 42.6183 16.17C42.595 16.135 42.5717 16.1 42.56 16.065C42.5017 15.9833 42.455 15.89 42.3967 15.7967C42.3733 15.7617 42.35 15.7267 42.3383 15.6917C42.2683 15.575 42.1983 15.4467 42.1283 15.3183C41.6617 14.4667 41.1017 13.72 40.46 13.125C39.5617 12.2967 38.3017 11.69 36.9717 11.4567C36.8433 11.4333 36.75 11.3517 36.7033 11.2233C36.6683 11.1067 36.7033 10.9667 36.785 10.885L36.8317 10.8383C34.72 10.99 33.1683 11.7133 32.2233 13.0083C31.2433 14.35 31.64 16.1933 32.27 17.3717C32.3283 17.4883 32.3867 17.5933 32.445 17.6983C32.9467 18.6317 33.39 19.4483 33.4717 20.5683H33.9617C33.9617 20.125 33.5067 17.9433 32.865 16.3567Z" fill="#BDBDBD"/>
<path d="M46.9583 20.9883C45.6983 20.6383 44.485 20.1017 43.4467 19.3083C42.9567 18.935 40.6583 16.9867 39.375 16.835C38.8967 16.765 38.4067 16.7417 37.94 16.87C37.7883 16.9167 37.625 16.9867 37.485 17.08C37.345 17.1733 37.205 17.3017 37.1 17.4417C36.995 17.5817 36.9017 17.745 36.8317 17.92C36.4933 18.76 36.4933 19.7167 36.54 20.615H37.0183C37.0767 19.88 37.3217 19.39 37.7417 19.1333C38.465 18.7133 39.3867 19.2383 39.4333 19.2617C39.445 19.2733 39.4683 19.285 39.48 19.2967C40.6233 20.23 42.2567 20.8833 43.6917 21.175C43.155 20.8367 42.6533 20.4167 42.245 19.9383C41.9533 19.5883 41.72 19.2267 41.4983 18.83C41.5683 18.935 41.65 19.04 41.72 19.145C41.7667 19.2033 41.8133 19.2617 41.86 19.3317C41.9533 19.4483 42.0467 19.5533 42.1517 19.6583C42.4783 20.0083 42.84 20.3117 43.2483 20.5683C44.03 21.0583 44.9167 21.4083 45.8383 21.4783C46.0833 21.5017 46.3167 21.5017 46.5617 21.49C46.7367 21.4783 46.9233 21.4667 47.0983 21.455C47.215 21.4433 47.32 21.4317 47.4367 21.42C47.4833 21.4083 47.53 21.4083 47.5883 21.3967C47.6467 21.385 47.705 21.385 47.7517 21.3733C47.8217 21.3617 47.88 21.35 47.95 21.3383C47.985 21.3267 48.0083 21.3267 48.0433 21.315C48.125 21.3033 48.195 21.28 48.265 21.2683C47.81 21.1983 47.3783 21.105 46.9583 20.9883Z" fill="#BDBDBD"/>
<path d="M43.9717 55.65C43.785 55.65 43.6333 55.8017 43.6333 55.9883C43.6333 56.175 43.785 56.3267 43.9717 56.3267C44.1583 56.3267 44.31 56.175 44.31 55.9883C44.2983 55.8017 44.1583 55.65 43.9717 55.65Z" fill="white"/>
<path d="M45.4648 54.495C45.4648 54.6816 45.6165 54.8333 45.8032 54.8333C45.9898 54.8333 46.1415 54.6816 46.1415 54.495C46.1415 54.3083 45.9898 54.1566 45.8032 54.1566C45.6165 54.1566 45.4648 54.3083 45.4648 54.495Z" fill="white"/>
<path d="M47.6352 52.675C47.4485 52.675 47.2969 52.8267 47.2969 53.0134C47.2969 53.2 47.4485 53.3517 47.6352 53.3517C47.8219 53.3517 47.9735 53.2 47.9735 53.0134C47.9619 52.8267 47.8219 52.675 47.6352 52.675Z" fill="white"/>
<path d="M49.4667 51.8583C49.6535 51.8583 49.805 51.7069 49.805 51.52C49.805 51.3331 49.6535 51.1817 49.4667 51.1817C49.2798 51.1817 49.1283 51.3331 49.1283 51.52C49.1283 51.7069 49.2798 51.8583 49.4667 51.8583Z" fill="white"/>
<path d="M26.5185 56.315C26.7052 56.315 26.8568 56.1633 26.8568 55.9766C26.8568 55.79 26.7052 55.6383 26.5185 55.6383C26.3318 55.6383 26.1802 55.79 26.1802 55.9766C26.1918 56.1633 26.3435 56.315 26.5185 56.315Z" fill="white"/>
<path d="M24.6865 54.8333C24.8731 54.8333 25.0248 54.6816 25.0248 54.495C25.0248 54.3083 24.8731 54.1566 24.6865 54.1566C24.4998 54.1566 24.3481 54.3083 24.3481 54.495C24.3598 54.6816 24.5115 54.8333 24.6865 54.8333Z" fill="white"/>
<path d="M22.855 53.34C23.0417 53.34 23.1933 53.1883 23.1933 53.0017C23.1933 52.815 23.0417 52.6633 22.855 52.6633C22.6683 52.6633 22.5167 52.815 22.5167 53.0017C22.5283 53.1883 22.68 53.34 22.855 53.34Z" fill="white"/>
<path d="M21.0233 51.8583C21.2102 51.8583 21.3617 51.7069 21.3617 51.52C21.3617 51.3331 21.2102 51.1817 21.0233 51.1817C20.8365 51.1817 20.685 51.3331 20.685 51.52C20.685 51.7069 20.8365 51.8583 21.0233 51.8583Z" fill="white"/>
<path d="M33.7049 21.2683H33.2266V22.47H33.7049V21.2683Z" fill="#F05A28"/>
<path d="M37.2283 21.2683H36.75V22.47H37.2283V21.2683Z" fill="#F05A28"/>
<path d="M36.7383 21.2683H33.705V22.47H36.7383V21.2683Z" fill="#F9A31D"/>
<path d="M62.02 27.125C61.9617 27.0667 61.9267 26.9967 61.9033 26.8917C61.8917 26.8333 61.8917 26.775 61.8917 26.7167C61.8917 27.1017 61.74 27.2533 61.355 27.2533C61.5533 27.2533 61.6933 27.3 61.775 27.3933C61.8567 27.475 61.8917 27.6033 61.8917 27.79C61.8917 27.6383 61.915 27.5217 61.9733 27.4283C62.055 27.3117 62.195 27.2533 62.4167 27.2533C62.23 27.2417 62.1017 27.2067 62.02 27.125Z" fill="white"/>
<path d="M53.375 21.595C53.3517 21.525 53.34 21.4433 53.34 21.3383C53.34 21.5133 53.305 21.6417 53.235 21.7233C53.2233 21.735 53.2 21.7583 53.1883 21.77C53.1067 21.84 52.9783 21.8633 52.815 21.8633C52.9083 21.8633 52.99 21.875 53.0483 21.8867C53.1067 21.8983 53.1533 21.9333 53.2 21.9683C53.2933 22.05 53.34 22.19 53.34 22.3883C53.34 22.0033 53.4917 21.8517 53.8767 21.8517C53.6783 21.8517 53.5383 21.805 53.4567 21.7117C53.4217 21.7 53.3867 21.6533 53.375 21.595Z" fill="white"/>
<path d="M52.2782 15.6217C52.2316 15.61 52.1849 15.5983 52.1382 15.5867C51.9749 15.5167 51.9049 15.365 51.9049 15.1083C51.9049 15.2133 51.8932 15.295 51.8699 15.3767C51.8232 15.505 51.7299 15.5867 51.5899 15.6217C51.5549 15.6333 51.5082 15.6333 51.4615 15.645C51.4382 15.645 51.4149 15.645 51.3799 15.645C51.4032 15.645 51.4265 15.645 51.4615 15.645C51.5082 15.645 51.5549 15.6567 51.5899 15.6683C51.7416 15.7033 51.8349 15.785 51.8816 15.9367C51.9049 16.0067 51.9165 16.0883 51.9165 16.1817C51.9165 15.9133 51.9865 15.7617 52.1615 15.6917C52.1965 15.68 52.2432 15.6683 52.2899 15.6567C52.3366 15.645 52.3949 15.645 52.4532 15.645C52.3832 15.6333 52.3249 15.6333 52.2782 15.6217Z" fill="white"/>
<path d="M42.8517 22.4467C42.8517 22.8317 42.7 22.9833 42.315 22.9833C42.6417 22.9833 42.805 23.1 42.84 23.38C42.84 23.4267 42.8517 23.4733 42.8517 23.52C42.8517 23.4383 42.8633 23.3567 42.875 23.2983C42.8867 23.2517 42.8983 23.2167 42.9217 23.1817C43.0033 23.0533 43.1433 22.995 43.3767 22.995C43.225 22.995 43.1083 22.9717 43.0267 22.9133C42.91 22.82 42.8517 22.68 42.8517 22.4467Z" fill="white"/>
<path d="M43.9485 10.0217C43.9835 10.1034 44.0069 10.1967 44.0069 10.3367C44.0069 10.1034 44.0652 9.95169 44.2052 9.87002C44.2869 9.82336 44.4036 9.80002 44.5436 9.80002C44.4269 9.80002 44.3336 9.78836 44.2519 9.75336C44.2052 9.73002 44.1586 9.70669 44.1236 9.67169C44.1002 9.63669 44.0769 9.60169 44.0535 9.55502C44.0302 9.48502 44.0069 9.39169 44.0069 9.27502C44.0069 9.66002 43.8552 9.81169 43.4702 9.81169C43.6335 9.81169 43.7502 9.83502 43.8319 9.89336C43.8902 9.91669 43.9252 9.96336 43.9485 10.0217Z" fill="white"/>
<path d="M32.3984 10.185C32.6551 10.185 32.8068 10.255 32.8768 10.4183C32.9118 10.5 32.9351 10.5933 32.9351 10.7216C32.9351 10.3366 33.0868 10.185 33.4718 10.185C33.2501 10.185 33.1101 10.1383 33.0284 10.0216C32.9701 9.93997 32.9351 9.82331 32.9351 9.65997C32.9351 10.0333 32.7834 10.185 32.3984 10.185Z" fill="white"/>
<path d="M58.59 45.5117C58.5783 45.5117 58.555 45.5117 58.5433 45.5117C58.3567 45.5 58.2283 45.4533 58.1467 45.3483C58.0883 45.2667 58.0533 45.15 58.0533 44.9867C58.0533 45.3717 57.9017 45.5233 57.5167 45.5233C57.7033 45.5233 57.8317 45.5583 57.9133 45.64C58.0067 45.7217 58.0417 45.8617 58.0417 46.0483C58.0417 45.6867 58.1817 45.535 58.52 45.5233C58.555 45.5117 58.5667 45.5117 58.59 45.5117Z" fill="white"/>
<path d="M56.3382 25.655C55.9066 25.34 55.7199 24.7917 55.7199 23.9633C55.7199 24.1617 55.7082 24.3367 55.6849 24.5C55.5449 25.5616 54.9499 25.9933 53.6782 25.9933C55.1366 25.9933 55.7199 26.565 55.7199 28.035C55.7199 27.9883 55.7199 27.9416 55.7199 27.895C55.7432 27.1016 55.9532 26.5767 56.4082 26.2967C56.5949 26.18 56.8166 26.0983 57.0732 26.0516C57.2716 26.0166 57.4932 25.9933 57.7499 25.9933C57.4932 25.9933 57.2599 25.97 57.0616 25.935C56.7699 25.8883 56.5249 25.795 56.3382 25.655Z" fill="white"/>
<path d="M37.45 7.945C36.925 7.81666 36.6683 7.46666 36.61 6.84833C36.5983 6.755 36.5983 6.65 36.5983 6.545C36.5983 6.63833 36.5983 6.73166 36.5867 6.81333C36.5633 7.15166 36.47 7.42 36.3183 7.60666C36.085 7.88666 35.7 8.015 35.1283 8.015C36.1783 8.015 36.5983 8.435 36.5983 9.485C36.5983 9.17 36.6333 8.90166 36.715 8.70333C36.855 8.35333 37.1117 8.155 37.5317 8.07333C37.6833 8.03833 37.8583 8.02666 38.0567 8.02666C37.835 8.015 37.625 7.99166 37.45 7.945Z" fill="white"/>
<path d="M59.4651 38.2317C59.1151 38.15 58.8935 37.975 58.7535 37.695C58.6485 37.4733 58.5901 37.1933 58.5901 36.82C58.5901 37.87 58.1701 38.29 57.1201 38.29C57.8085 38.29 58.2168 38.465 58.4268 38.8733C58.5435 39.095 58.5901 39.3867 58.5901 39.76C58.5901 38.9433 58.8468 38.5117 59.4418 38.36C59.6168 38.3133 59.8151 38.29 60.0601 38.29C59.8385 38.3017 59.6401 38.2783 59.4651 38.2317Z" fill="white"/>
<path d="M8.21333 27.2533C8.27167 27.265 8.31833 27.2767 8.365 27.3C8.52833 27.37 8.59833 27.5217 8.59833 27.7783C8.59833 27.3933 8.75 27.2417 9.135 27.2417C8.75 27.2417 8.59833 27.09 8.59833 26.705C8.59833 26.9733 8.51667 27.125 8.34167 27.195C8.30667 27.2067 8.26 27.2183 8.21333 27.23C8.16667 27.23 8.12 27.2417 8.07333 27.2417C8.13167 27.2417 8.17833 27.2417 8.21333 27.2533Z" fill="white"/>
<path d="M13.9648 26.1449C14.2448 26.1449 14.3965 26.2266 14.4548 26.4133C14.4782 26.4833 14.4898 26.5766 14.4898 26.6816C14.4898 26.2966 14.6415 26.1449 15.0265 26.1449C14.6415 26.1449 14.4898 25.9933 14.4898 25.6083C14.4898 25.7133 14.4782 25.7949 14.4548 25.8649C14.4082 26.0633 14.2565 26.1449 13.9648 26.1449Z" fill="white"/>
<path d="M18.3983 15.715C18.5267 15.7967 18.585 15.9367 18.585 16.17C18.585 15.995 18.62 15.8667 18.69 15.785C18.725 15.75 18.76 15.715 18.8067 15.7033C18.8883 15.6683 18.9817 15.645 19.11 15.645C18.97 15.645 18.865 15.6217 18.7833 15.5867C18.725 15.5517 18.6783 15.5167 18.655 15.4583C18.6083 15.3767 18.585 15.26 18.585 15.1083C18.585 15.3417 18.5267 15.4817 18.41 15.5633C18.34 15.61 18.2583 15.6333 18.1533 15.6333C18.1183 15.6333 18.095 15.6333 18.06 15.6333C18.095 15.6333 18.13 15.6333 18.1533 15.6333C18.2467 15.6567 18.3283 15.68 18.3983 15.715Z" fill="white"/>
<path d="M27.1717 22.9833C27.51 22.995 27.6383 23.1467 27.6383 23.5083C27.6383 23.1233 27.79 22.9717 28.175 22.9717C27.79 22.9717 27.6383 22.82 27.6383 22.435C27.6383 22.8083 27.4983 22.96 27.1717 22.9833C27.1483 22.9833 27.1367 22.9833 27.1133 22.9833C27.125 22.9833 27.1483 22.9833 27.1717 22.9833Z" fill="white"/>
<path d="M26.2735 9.74164C26.2385 9.76497 26.2035 9.77664 26.1568 9.77664C26.1102 9.78831 26.0635 9.78831 26.0052 9.79997C25.9935 9.79997 25.9702 9.79997 25.9585 9.79997C25.9818 9.79997 25.9935 9.79997 26.0052 9.79997C26.0752 9.79997 26.1335 9.81164 26.1802 9.82331C26.3902 9.88164 26.4835 10.0333 26.4835 10.325C26.4835 10.2433 26.4952 10.1616 26.5068 10.1033C26.5535 9.93997 26.6468 9.84664 26.8218 9.81164C26.8802 9.79997 26.9385 9.78831 27.0085 9.78831C26.9152 9.78831 26.8335 9.77664 26.7752 9.76497C26.6352 9.72997 26.5535 9.64831 26.5068 9.50831C26.4835 9.43831 26.4718 9.35664 26.4718 9.26331C26.4718 9.33331 26.4602 9.40331 26.4485 9.46164C26.4368 9.58997 26.3785 9.68331 26.2735 9.74164Z" fill="white"/>
<path d="M11.9 45.5117C12.0167 45.5117 12.0983 45.5233 12.18 45.5583C12.3083 45.605 12.39 45.71 12.4133 45.8617C12.425 45.92 12.4367 45.9783 12.4367 46.0483C12.4367 45.99 12.4367 45.9433 12.4483 45.8967C12.4833 45.6283 12.6467 45.5117 12.9733 45.5117C12.5883 45.5117 12.4367 45.36 12.4367 44.975C12.4367 45.2667 12.3433 45.43 12.1333 45.4767C12.0633 45.5 11.9933 45.5117 11.9 45.5117Z" fill="white"/>
<path d="M18.2815 21.0583C18.2582 21.3033 18.2115 21.525 18.1299 21.7C18.0599 21.8633 17.9782 22.0033 17.8732 22.12C17.7915 22.2017 17.7099 22.2833 17.6049 22.3417C17.5465 22.3767 17.4999 22.4 17.4415 22.435C17.1382 22.575 16.7532 22.6333 16.2632 22.6333C17.7215 22.6333 18.3048 23.205 18.3048 24.675C18.3048 24.1733 18.3749 23.7883 18.5149 23.485C18.5498 23.415 18.5849 23.345 18.6315 23.2867C18.7249 23.1583 18.8299 23.0533 18.9582 22.96C19.1565 22.82 19.4015 22.7383 19.7048 22.68C19.8915 22.645 20.1015 22.6333 20.3349 22.6333C20.0082 22.6333 19.7165 22.5983 19.4715 22.54C19.1099 22.4467 18.8298 22.2833 18.6432 22.0267C18.4682 21.7933 18.3632 21.4783 18.3165 21.07C18.3049 20.9183 18.2932 20.7667 18.2932 20.5917C18.3049 20.7667 18.2932 20.9183 18.2815 21.0583Z" fill="white"/>
<path d="M10.7568 38.3133C11.2585 38.3599 11.5735 38.5466 11.7368 38.8966C11.8068 39.0366 11.8535 39.2 11.8768 39.3983C11.8885 39.515 11.9002 39.6316 11.9002 39.76C11.9002 39.6666 11.9002 39.585 11.9118 39.5033C11.9818 38.6399 12.4018 38.2899 13.3702 38.2899C12.3202 38.2899 11.9002 37.8699 11.9002 36.8199C11.9002 37.3916 11.7835 37.7649 11.5035 37.9983C11.3285 38.1499 11.0835 38.2316 10.7568 38.2666C10.6518 38.2783 10.5468 38.2783 10.4302 38.2783C10.5468 38.3016 10.6518 38.3016 10.7568 38.3133Z" fill="white"/>
</g>
<defs>
<clipPath id="clip0_356_1947">
<rect width="210" height="70" fill="white"/>
</clipPath>
</defs>
</svg>
