<svg width="53" height="63" viewBox="0 0 53 63" fill="none" xmlns="http://www.w3.org/2000/svg">
<path d="M40.5631 17.4902C41.7277 17.2579 42.8924 17.9564 43.1247 19.121C43.357 20.2857 42.6585 21.4504 41.4938 21.6827L13.316 27.2719C12.3853 26.3411 10.9867 24.9425 9.58978 23.5456L40.5631 17.4902Z" fill="#B93128"/>
<path d="M36.9329 60.5704C36.7006 61.5011 35.7682 62.4335 34.8374 62.4335H34.3712L8.52297 57.3104L10.9552 52.6874L35.3039 58.009C36.4669 58.2413 37.1668 59.4057 36.9329 60.5704Z" fill="#B93128"/>
<path d="M14.3152 38.5263H49.9439C51.1086 38.5263 52.0393 39.4571 52.0393 40.6217C52.0393 41.7864 51.1086 42.7172 49.9439 42.7172H13.617C14.0816 41.3202 14.3155 39.9233 14.3155 38.5264L14.3152 38.5263Z" fill="#B93128"/>
<path d="M35.2895 4.13707L3.95849 16.8416C2.79382 15.9109 1.39686 14.7462 -4.95911e-05 13.8138L33.6596 0.178661C34.8243 -0.287531 35.989 0.178659 36.4536 1.34333C36.9198 2.50638 36.4542 3.90312 35.2895 4.13707Z" fill="#B93128"/>
</svg>
