<svg width="662" height="485" viewBox="0 0 662 485" fill="none" xmlns="http://www.w3.org/2000/svg">
<path d="M464.616 63.6007C474.753 55.6944 484.889 47.7881 495.025 39.8818C500.904 35.4218 506.783 30.7591 512.46 26.2992C516.717 23.0556 521.177 19.4065 522.596 14.1356C525.231 4.40482 515.501 -1.27148 507.189 2.37758C501.918 4.60756 498.066 9.27025 494.417 13.3248C490.16 18.1902 486.105 23.6637 482.659 29.1373C475.564 39.8818 469.482 51.4371 463.806 62.7898C462.386 63.8034 464.008 64.817 464.616 63.6007Z" fill="#F9A31D"/>
<path d="M570.087 141.682C582.858 140.668 595.833 139.654 608.402 137.222C614.889 136.005 621.174 134.384 627.458 132.356C632.729 130.532 638.405 128.707 642.46 124.855C649.15 118.571 647.731 107.421 637.594 106.002C632.121 105.394 627.053 108.029 622.39 110.665C615.903 114.314 609.415 117.963 603.131 121.612C591.981 127.896 580.831 134.181 569.681 140.668C568.465 140.668 568.668 142.695 570.087 141.682Z" fill="#F9A31D"/>
<path d="M656.043 266.561C651.38 263.52 645.298 262.709 639.825 261.898C633.338 261.087 626.648 260.682 620.16 260.682C607.186 260.682 594.414 261.898 581.642 263.317C580.021 262.709 580.223 264.736 581.44 264.533C593.603 268.588 605.767 272.845 617.93 276.9C625.026 279.332 631.918 281.765 639.014 283.995C644.082 285.617 649.556 287.441 654.826 285.82C664.355 282.779 663.746 271.629 656.043 266.561Z" fill="#F9A31D"/>
<path d="M587.555 414.06C581.27 410.208 574.783 406.559 568.499 402.707C557.349 396.22 546.402 389.733 535.252 383.246C534.441 382.232 533.022 383.246 534.441 384.259C541.739 395.004 549.037 405.546 557.552 415.276C561.809 420.142 566.471 425.007 571.337 429.264C575.391 432.913 579.851 436.968 585.325 438.59C594.042 441.225 603.165 434.333 599.11 425.007C597.083 419.736 592.015 416.695 587.555 414.06Z" fill="#F9A31D"/>
<path d="M163.824 421.038C153.891 429.147 144.16 437.458 134.226 445.567C128.55 450.23 122.874 455.095 117.197 459.758C113.143 463.204 108.683 466.853 107.466 472.327C105.034 482.261 114.967 487.531 123.279 483.477C128.347 481.044 132.199 476.382 135.645 472.124C139.7 467.056 143.552 461.583 146.998 456.109C153.688 445.162 159.364 433.404 164.838 421.848C166.054 420.835 164.432 419.821 163.824 421.038Z" fill="#F9A31D"/>
<path d="M88.2082 312.174C75.4365 313.187 62.4621 314.404 49.8931 317.039C43.4059 318.256 37.1214 320.08 30.8369 322.107C25.5661 323.932 19.8897 325.756 15.8352 329.811C9.34802 336.298 10.7671 347.448 20.9034 348.664C26.377 349.273 31.4451 346.434 36.1078 343.799C42.595 340.15 48.8795 336.298 55.3667 332.649C66.5166 326.162 77.6665 319.877 88.6137 313.39C90.0328 313.187 89.83 311.363 88.2082 312.174Z" fill="#F9A31D"/>
<path d="M40.9731 169.05C53.7448 170.063 66.7192 169.658 79.6937 169.252C81.3155 169.861 81.3155 168.036 79.8964 168.036C68.1383 162.968 56.3802 157.9 44.4194 152.832C37.5268 149.993 30.8368 146.953 23.9442 144.114C19.0787 142.087 13.6051 139.857 8.33429 141.073C-1.59926 143.506 -1.59926 154.656 5.49613 160.332C9.95609 163.779 15.8351 164.995 21.3087 166.211C27.7959 167.631 34.4859 168.441 40.9731 169.05Z" fill="#F9A31D"/>
<path d="M84.9647 25.5201C91.2492 29.3718 97.5337 33.2236 104.021 37.0754C114.968 43.7653 125.915 50.4553 136.862 57.1452C137.673 58.1589 139.092 57.1452 137.673 56.1316C130.578 45.3871 123.28 34.6427 114.968 24.7091C110.711 19.641 106.251 14.9783 101.385 10.5184C97.331 6.8693 92.871 2.61207 87.3974 0.990266C78.6802 -1.64517 69.5576 5.04477 73.4094 14.3701C75.6393 19.641 80.5048 22.6819 84.9647 25.5201Z" fill="#F9A31D"/>
<path d="M219.574 160.13C209.641 160.13 206.803 170.671 212.479 177.564C215.925 181.821 221.196 184.457 226.062 186.89C231.738 189.728 237.82 192.16 243.901 194.188C255.862 198.242 268.026 200.878 280.392 203.513C281.811 204.527 282.217 202.702 281 202.499C271.067 194.999 261.133 187.295 251.2 179.794C245.523 175.334 239.644 171.077 233.968 166.617C229.508 163.373 224.845 160.13 219.574 160.13Z" fill="#F9A31D"/>
<path d="M275.324 229.867C276.54 230.07 276.946 228.245 275.324 228.651C262.958 226.624 250.591 224.596 238.022 223.785C231.535 223.38 225.251 223.38 218.763 223.988C213.493 224.394 207.614 224.799 202.748 227.435C195.045 231.895 193.626 242.842 202.951 246.288C208.019 248.315 213.493 246.896 218.358 245.477C225.251 243.653 232.346 241.625 239.239 239.801C251.2 236.557 263.363 233.111 275.324 229.867Z" fill="#F9A31D"/>
<path d="M286.676 259.06C275.526 264.736 264.377 270.412 253.227 276.089C246.739 279.332 240.455 282.576 233.968 286.022C229.305 288.455 224.44 291.09 222.007 295.956C217.75 304.876 226.061 311.971 234.779 309.944C240.05 308.728 244.712 305.078 248.969 301.835C254.038 297.78 258.7 293.523 263.16 288.86C271.877 279.94 279.784 270.007 287.487 260.073C288.906 259.263 287.487 258.046 286.676 259.06Z" fill="#F9A31D"/>
<path d="M307.759 275.278C300.461 285.414 293.163 295.753 287.081 306.7C284.04 312.377 281.202 318.053 278.77 323.932C276.742 329 274.512 334.271 274.918 339.947C275.526 348.867 284.649 354.746 291.947 348.056C296.001 344.407 297.015 338.934 298.028 333.865C299.448 326.77 300.664 319.675 302.083 312.579C304.313 300.213 306.746 288.05 308.976 275.683C309.584 274.67 308.165 273.656 307.759 275.278Z" fill="#F9A31D"/>
<path d="M350.941 350.084C352.765 344.813 351.954 339.136 351.346 333.663C350.535 327.378 349.319 321.094 347.9 314.809C344.859 302.646 340.602 290.685 336.142 278.927C336.345 277.305 334.52 277.913 334.926 279.13C333.912 291.496 332.898 304.065 331.885 316.431C331.276 323.526 330.668 330.825 330.06 337.92C329.655 342.988 329.249 348.664 332.087 353.327C337.561 361.842 347.9 358.395 350.941 350.084Z" fill="#F9A31D"/>
<path d="M402.23 310.755C396.959 305.687 391.891 300.821 386.62 295.753C377.497 287.036 368.577 278.522 359.455 269.804C359.049 268.588 357.225 269.399 358.441 270.413C362.901 282.171 367.564 293.929 373.443 305.079C376.484 310.755 379.727 316.228 383.376 321.499C386.417 325.959 389.863 330.622 394.526 333.46C402.23 337.92 412.366 333.46 410.744 323.729C409.933 318.256 406.081 314.404 402.23 310.755Z" fill="#F9A31D"/>
<path d="M377.904 247.099C388.243 254.194 398.582 261.29 408.718 268.385C414.597 272.44 420.679 276.494 426.558 280.751C430.815 283.59 435.478 286.833 440.951 286.63C450.885 286.225 453.115 275.481 447.236 268.791C443.587 264.736 438.316 262.303 433.248 260.276C427.369 257.641 421.287 255.613 415.205 253.789C403.042 250.343 390.675 248.113 378.309 246.085C377.093 245.072 376.687 246.896 377.904 247.099Z" fill="#F9A31D"/>
<path d="M418.854 215.879C406.69 218.717 394.527 221.353 382.363 224.191C381.147 223.988 380.741 225.813 382.363 225.407C394.729 228.043 406.893 230.678 419.462 231.895C425.746 232.503 432.234 232.908 438.721 232.706C444.194 232.503 449.871 232.3 454.939 229.867C462.845 225.813 464.67 215.068 455.547 211.014C450.682 208.784 445.005 210 439.937 211.217C433.045 212.838 425.949 214.46 418.854 215.879Z" fill="#F9A31D"/>
<path d="M373.038 195.809C371.416 196.417 372.835 197.837 373.646 196.823C385.201 192.16 396.959 187.498 408.514 182.835C415.204 180.199 421.894 177.564 428.584 174.726C433.45 172.699 438.518 170.671 441.356 166.009C446.627 157.494 438.923 149.791 430.003 150.804C424.53 151.412 419.664 154.656 415.204 157.697C409.731 161.143 404.663 164.995 399.797 169.252C390.472 177.564 381.755 186.687 373.038 195.809Z" fill="#F9A31D"/>
<path d="M182.476 110.259C189.368 114.314 196.058 118.368 202.951 122.22C214.709 129.113 226.467 136.208 238.428 143.101C239.239 144.317 240.861 143.101 239.239 142.087C231.535 130.735 223.629 119.382 214.506 109.043C209.844 103.772 204.978 98.7039 199.707 94.0412C195.247 90.1894 190.585 85.7295 184.706 84.1077C175.38 81.4722 165.649 88.5676 169.907 98.7039C172.339 104.177 177.61 107.421 182.476 110.259Z" fill="#F9A31D"/>
<path d="M146.188 200.269C153.08 201.688 159.973 202.702 167.068 203.107C180.854 204.121 194.639 203.918 208.424 203.31C210.046 204.121 210.046 201.891 208.627 202.094C196.058 196.823 183.489 191.349 170.717 186.078C163.419 183.038 156.121 179.794 148.823 176.753C143.552 174.523 137.876 172.09 132.2 173.509C121.658 176.145 121.455 188.106 129.361 193.985C134.024 197.634 140.309 198.85 146.188 200.269Z" fill="#F9A31D"/>
<path d="M142.539 307.714C148.418 308.322 153.689 305.078 158.554 302.037C165.244 297.983 171.934 293.726 178.624 289.468C190.179 282.17 201.937 275.075 213.493 267.777C214.912 267.574 214.506 265.547 213.087 266.56C199.505 268.182 185.719 270.007 172.339 273.048C165.447 274.669 158.757 276.697 152.27 279.129C146.796 281.157 140.714 283.387 136.66 287.847C129.767 294.942 131.592 306.903 142.539 307.714Z" fill="#F9A31D"/>
<path d="M218.966 395.494C224.237 392.656 227.886 387.385 231.332 382.52C235.387 376.843 239.036 370.761 242.482 364.68C248.97 352.516 254.24 339.745 259.309 326.973C260.728 325.756 258.7 324.946 258.295 326.162C248.361 335.487 238.225 344.813 228.292 354.341C222.615 359.814 216.736 365.085 211.06 370.559C207.005 374.411 202.545 378.668 201.329 384.547C199.505 395.291 210.452 400.359 218.966 395.494Z" fill="#F9A31D"/>
<path d="M476.427 340.15C469.534 336.095 462.642 332.243 455.952 328.392C443.991 321.499 432.233 314.606 420.272 307.916C419.461 306.7 417.839 307.916 419.461 308.93C427.367 320.283 435.274 331.432 444.396 341.771C449.059 347.042 453.924 352.111 459.195 356.57C463.655 360.422 468.521 364.679 474.197 366.301C483.522 368.937 493.05 361.639 488.793 351.705C486.563 346.029 481.292 342.988 476.427 340.15Z" fill="#F9A31D"/>
<path d="M509.269 273.048C514.54 275.278 520.216 277.508 526.095 276.089C536.637 273.453 536.637 261.29 528.73 255.613C523.865 251.964 517.58 250.748 511.904 249.734C505.011 248.315 498.119 247.504 491.023 247.099C477.238 246.085 463.453 246.693 449.667 247.302C448.046 246.693 448.046 248.721 449.465 248.518C462.034 253.789 474.805 258.857 487.374 264.128C494.672 266.966 501.971 270.007 509.269 273.048Z" fill="#F9A31D"/>
<path d="M446.424 191.147C460.21 190.336 473.995 189.119 487.578 186.687C494.47 185.47 501.363 183.849 508.053 181.619C513.729 179.794 519.811 177.97 524.271 173.712C531.366 167.022 530.15 155.062 519.203 153.643C513.324 152.832 507.85 155.67 502.985 158.508C496.092 162.36 489.199 166.212 482.307 169.861C470.346 176.551 458.385 183.038 446.222 189.728C444.6 190.133 444.803 192.16 446.424 191.147Z" fill="#F9A31D"/>
<path d="M471.622 80.5903C466.149 82.8203 461.891 87.6857 457.837 92.1457C453.174 97.4165 448.917 102.89 444.862 108.769C437.159 120.122 430.469 132.285 423.982 144.449C422.563 145.462 424.387 146.476 424.995 145.26C435.943 136.948 446.89 128.839 457.837 120.527C464.121 115.865 470.406 110.999 476.69 106.336C481.15 102.89 486.218 99.2411 487.84 93.362C490.881 82.8203 480.745 76.7386 471.622 80.5903Z" fill="#F9A31D"/>
<path d="M76.0441 218.92C68.5433 218.312 60.2316 217.501 52.9334 220.136C41.1754 224.596 36.7154 239.395 48.8789 246.693C55.5689 250.545 63.4752 249.937 70.7733 249.126C80.9096 248.112 91.0458 246.896 101.182 245.882C118.819 244.058 136.456 242.031 154.093 240.206C155.715 240.814 156.526 238.179 154.296 238.584C137.47 232.705 120.441 227.029 103.209 223.177C94.0867 221.15 84.9641 219.731 76.0441 218.92Z" fill="#F9A31D"/>
<path d="M179.637 318.661C164.23 327.581 149.026 336.501 133.618 345.421C124.698 350.489 115.981 355.76 107.061 360.828C100.777 364.477 93.8842 368.532 90.8433 375.627C85.3697 388.602 97.7359 397.927 109.899 394.481C117.4 392.453 123.685 386.777 129.361 381.709C136.254 375.83 142.538 369.14 148.62 362.45C160.378 349.07 170.717 334.474 180.853 319.878C182.678 318.661 180.651 317.242 179.637 318.661Z" fill="#F9A31D"/>
<path d="M488.933 402.692C473.482 394.185 457.95 385.492 442.499 376.985C441.396 375.476 439.226 377.089 441.338 378.378C451.856 392.806 462.375 407.233 474.32 420.373C480.334 427.035 486.905 433.454 493.87 439.257C499.79 444.19 505.955 449.68 513.581 451.432C525.851 454.693 537.969 444.965 532.176 432.231C529.087 425.174 522.111 421.367 515.668 417.769C506.845 412.778 497.837 407.869 488.933 402.692Z" fill="#F9A31D"/>
<path d="M481.09 307.308C496.497 316.026 512.107 324.54 527.514 333.257C536.434 338.325 545.354 343.191 554.274 348.259C560.761 351.908 567.654 355.76 575.357 354.746C589.345 352.922 591.17 337.515 582.047 328.797C576.371 323.324 568.464 320.891 561.166 318.458C552.449 315.62 543.732 313.39 534.812 311.768C517.378 308.525 499.538 307.106 481.698 305.687C479.671 304.47 479.468 307.106 481.09 307.308Z" fill="#F9A31D"/>
<path d="M601.509 223.583C613.267 218.717 616.916 203.716 604.752 197.026C598.062 193.377 590.156 194.39 582.858 195.404C572.722 196.823 562.585 198.242 552.449 199.864C535.015 202.297 517.378 204.932 499.943 207.365C498.322 206.757 497.511 209.392 499.943 208.987C516.972 214.257 534.001 219.123 551.638 222.367C560.558 223.988 569.478 225.205 578.601 225.61C585.899 226.016 594.211 226.421 601.509 223.583Z" fill="#F9A31D"/>
<path d="M476.63 138.235C492.038 129.721 507.647 121.004 523.055 112.489C531.974 107.624 540.894 102.556 549.814 97.6902C556.302 94.0411 563.194 90.1894 566.235 83.094C571.911 70.3223 559.951 60.5914 547.584 63.8351C540.083 65.8623 533.799 71.1332 527.92 76.2013C521.027 82.0803 514.54 88.3648 508.458 95.0548C496.497 108.232 485.753 122.625 475.414 137.019C473.387 138.033 475.617 139.654 476.63 138.235Z" fill="#F9A31D"/>
<path d="M115.373 91.8112C109.089 87.3512 102.399 82.4858 94.6951 81.0667C82.3289 78.8367 70.7735 89.3785 77.6662 101.745C81.3152 108.435 88.6134 111.881 95.3033 114.922C104.629 119.179 113.954 123.436 123.077 127.694C139.092 134.992 155.31 142.493 171.325 149.791C172.542 151.21 174.569 149.385 172.339 148.372C160.784 134.789 149.228 121.206 136.254 109.043C129.564 102.961 122.671 97.082 115.373 91.8112Z" fill="#F9A31D"/>
</svg>
