<svg width="188" height="531" viewBox="0 0 188 531" fill="none" xmlns="http://www.w3.org/2000/svg">
<path d="M151.305 251.826L187.352 178.765C188.122 177.219 188.024 175.387 187.119 173.921C186.206 172.454 184.604 171.563 182.877 171.563L110.787 171.563C109.06 171.563 107.458 172.454 106.545 173.921C106.047 174.725 105.793 175.641 105.793 176.557C105.793 177.309 105.964 178.069 106.309 178.765L142.352 251.826C143.191 253.529 144.926 254.609 146.827 254.609C148.732 254.609 150.47 253.529 151.306 251.826L151.305 251.826ZM118.817 181.548L174.848 181.548L146.833 238.331L118.817 181.548Z" fill="#F9A31D"/>
<path d="M4.99746 171.566C3.27001 171.566 1.6679 172.457 0.75545 173.923C0.257418 174.728 0.00317296 175.644 0.00317292 176.56C0.00317289 177.312 0.173836 178.071 0.518622 178.768L36.5655 251.829C37.4048 253.532 39.1392 254.612 41.0408 254.612C42.9424 254.612 44.6768 253.532 45.5161 251.829L81.5595 178.768C82.3257 177.222 82.2316 175.39 81.3261 173.923C80.4137 172.457 78.8116 171.566 77.0841 171.566L4.99746 171.566ZM69.0562 181.551L41.0443 238.334L13.0289 181.551L69.0562 181.551Z" fill="#F9A31D"/>
<path d="M81.3347 356.445C82.2367 354.985 82.3343 353.15 81.5681 351.6L45.5248 278.539C44.6854 276.836 42.951 275.756 41.0494 275.756C39.1479 275.756 37.4135 276.836 36.5741 278.539L0.527227 351.6C0.178955 352.297 0.00829516 353.052 0.00829513 353.808C0.00829509 354.724 0.26254 355.64 0.760572 356.445C1.67302 357.911 3.27513 358.802 5.00258 358.802L77.0919 358.802C78.8193 358.802 80.4214 357.911 81.3339 356.445L81.3347 356.445ZM13.0347 348.817L41.0501 292.031L69.062 348.817L13.0347 348.817Z" fill="#F9A31D"/>
<path d="M77.091 146.601C78.8185 146.601 80.4206 145.709 81.333 144.243C82.235 142.78 82.3326 140.945 81.5664 139.398L45.5231 66.3373C44.6837 64.6342 42.9493 63.5545 41.0477 63.5545C39.1462 63.5545 37.4117 64.6342 36.5724 66.3373L0.525523 139.398C0.180729 140.095 0.0100744 140.851 0.0100744 141.606C0.0100744 142.522 0.264319 143.438 0.762351 144.243C1.6748 145.709 3.27691 146.601 5.00436 146.601L77.091 146.601ZM13.0322 136.616L41.0477 79.8324L69.0596 136.616L13.0322 136.616Z" fill="#F9A31D"/>
<path d="M187.119 144.247C188.021 142.784 188.119 140.949 187.352 139.403L151.305 66.338C150.466 64.6349 148.732 63.5553 146.83 63.5553C144.929 63.5553 143.194 64.6349 142.355 66.338L106.312 139.399C105.967 140.096 105.796 140.851 105.796 141.607C105.796 142.523 106.05 143.439 106.548 144.244C107.461 145.71 109.063 146.601 110.79 146.601L182.877 146.601C184.604 146.601 186.21 145.71 187.119 144.247L187.119 144.247ZM118.819 136.616L146.831 79.8331L174.846 136.616L118.819 136.616Z" fill="#F9A31D"/>
<path d="M93.746 318.16C95.5988 318.157 97.3054 317.129 98.1622 315.482L123.3 267.472C124.06 266.016 124.067 264.289 123.297 262.833L98.0918 214.865C97.2281 213.221 95.5285 212.193 93.6687 212.193C91.8159 212.197 90.1093 213.224 89.2526 214.871L64.1143 262.882C63.7347 263.61 63.5431 264.404 63.5431 265.198C63.5431 265.995 63.7347 266.793 64.1178 267.521L89.323 315.489C90.1867 317.133 91.8898 318.16 93.746 318.16L93.746 318.16ZM74.173 265.195L93.6872 227.94L113.243 265.163L93.7291 302.418L74.173 265.195Z" fill="#F9A31D"/>
<path d="M123.293 50.6396L98.088 2.67128C97.2242 1.02737 95.5246 -1.23905e-06 93.6649 -1.32034e-06C91.8121 0.00348114 90.1055 1.03084 89.2488 2.67823L64.1105 50.6884C63.7308 51.4163 63.5393 52.2104 63.5393 53.0045C63.5393 53.8021 63.7308 54.5996 64.114 55.3275L89.3191 103.296C90.1828 104.94 91.8824 105.967 93.7422 105.967C95.595 105.964 97.3016 104.936 98.1583 103.289L123.297 55.2787C124.059 53.8264 124.066 52.0989 123.293 50.6397L123.293 50.6396ZM74.1685 53.0043L93.6826 15.7494L113.239 52.9731L93.7245 90.2281L74.1685 53.0043Z" fill="#F9A31D"/>
<path d="M182.872 359.236C184.599 359.236 186.202 358.345 187.114 356.878C187.612 356.077 187.866 355.161 187.866 354.245C187.866 353.493 187.696 352.734 187.351 352.037L151.304 278.976C150.465 277.273 148.73 276.194 146.829 276.194C144.927 276.194 143.193 277.273 142.353 278.976L106.31 352.037C105.54 353.584 105.638 355.416 106.543 356.882C107.456 358.348 109.058 359.24 110.785 359.24L182.872 359.236ZM118.813 349.251L146.825 292.468L174.841 349.251L118.813 349.251Z" fill="#F9A31D"/>
<path d="M0.755933 174.357C-0.149563 175.816 -0.243651 177.652 0.522561 179.202L36.5695 252.263C37.4088 253.966 39.1432 255.046 41.0448 255.046C42.9464 255.046 44.6808 253.966 45.5201 252.263L81.5634 179.202C81.9117 178.505 82.0823 177.749 82.0823 176.994C82.0823 176.078 81.8281 175.162 81.3301 174.357C80.4176 172.891 78.8155 171.999 77.0881 171.999L4.99878 171.999C3.27133 171.999 1.66923 172.891 0.756777 174.357L0.755933 174.357ZM69.056 181.984L41.0441 238.771L13.0286 181.984L69.056 181.984Z" fill="#F9A31D"/>
<path d="M106.543 386.555C105.638 388.017 105.547 389.853 106.31 391.399L142.353 464.46C143.193 466.163 144.927 467.243 146.828 467.243C148.73 467.243 150.464 466.163 151.304 464.46L187.351 391.399C187.699 390.703 187.87 389.947 187.87 389.191C187.87 388.275 187.615 387.359 187.117 386.555C186.205 385.089 184.603 384.197 182.875 384.197L110.786 384.2C109.062 384.2 107.456 385.092 106.544 386.555L106.543 386.555ZM174.847 394.185L146.831 450.969L118.819 394.185L174.847 394.185Z" fill="#F9A31D"/>
<path d="M4.99158 384.201C3.26413 384.201 1.66202 385.093 0.74957 386.559C-0.155926 388.022 -0.249988 389.857 0.516225 391.403L36.5631 464.465C37.4024 466.168 39.1368 467.247 41.0384 467.247C42.94 467.247 44.6744 466.168 45.5137 464.465L81.5571 391.403C81.9019 390.707 82.0725 389.951 82.0725 389.195C82.0725 388.279 81.8183 387.363 81.3202 386.559C80.4078 385.093 78.8057 384.201 77.0782 384.201L4.99158 384.201ZM69.0503 394.186L41.0385 450.969L13.023 394.186L69.0503 394.186Z" fill="#F9A31D"/>
<path d="M98.6884 528.121L123.823 480.111C124.203 479.383 124.394 478.589 124.394 477.795C124.394 476.997 124.203 476.199 123.823 475.475L98.6251 427.507C97.7579 425.863 96.0548 424.832 94.1985 424.835C92.3457 424.839 90.6391 425.866 89.7824 427.514L64.6441 475.524C63.8849 476.976 63.8779 478.704 64.6476 480.163L89.8528 528.131C90.7165 529.775 92.4161 530.802 94.2758 530.802C96.1252 530.795 97.8318 529.765 98.6885 528.121L98.6884 528.121ZM74.6993 477.833L94.2064 440.579L113.762 477.802L94.2554 515.057L74.6993 477.833Z" fill="#F9A31D"/>
</svg>
