<svg width="75" height="10" viewBox="0 0 75 10" fill="none" xmlns="http://www.w3.org/2000/svg">
<path d="M74.0079 8.28918L66.7695 0.304929C66.418 -0.0828481 65.746 -0.083511 65.3938 0.305577L58.8481 7.53045L52.2984 0.304914C51.9468 -0.0841726 51.2749 -0.0841726 50.9233 0.304914L44.3743 7.53045L37.8246 0.304914C37.6485 0.110694 37.3993 0 37.1371 0C36.8749 0 36.6257 0.110704 36.4496 0.304267L29.8981 7.53047L23.3439 0.304267C22.9924 -0.0835107 22.3204 -0.0835107 21.9689 0.304267L15.4167 7.53097L8.86004 0.304267C8.5085 -0.0835107 7.83652 -0.0835107 7.48498 0.304267L0.240718 8.28852C-0.103688 8.66854 -0.0751987 9.25506 0.304809 9.59948C0.482191 9.76068 0.705547 9.84031 0.927594 9.84031C1.18071 9.84031 1.43256 9.73802 1.61576 9.53604L8.17241 2.30934L14.7291 9.53604C15.0819 9.92448 15.7526 9.92382 16.1041 9.53604L22.6556 2.30984L29.2098 9.53604C29.5613 9.92382 30.2333 9.92382 30.5848 9.53604L37.1363 2.30984L43.686 9.53538C44.0376 9.92447 44.7095 9.92447 45.0611 9.53538L51.6101 2.30984L58.1598 9.53538C58.5113 9.92447 59.1833 9.92447 59.5355 9.53538L66.0819 2.30984L72.6327 9.53538C72.9765 9.91345 73.5624 9.94454 73.9437 9.59947C74.3237 9.25636 74.3523 8.66919 74.0079 8.28918Z" fill="white"/>
</svg>
