<svg viewBox="0 0 34 26" fill="none" xmlns="http://www.w3.org/2000/svg">
  <rect x=".936707" width="32.2775" height="25.2168" rx="3.02602" fill="#fff"/>
  <path d="M9.0915 8.74513c-.29487.35273-.76667.63017-1.23847.59053-.05897-.4756.17299-.9829.44428-1.29204.29487-.36067.80991-.61829 1.2306-.6381.04718.49145-.14547.97894-.43641 1.33961Zm.42855.68169c-.68411-.03963-1.26992.39237-1.59232.39237-.33025 0-.82564-.37255-1.3682-.36066-.70377.01189-1.35642.41218-1.7142 1.05027-.73915 1.2802-.19265 3.1707.52291 4.213.34992.5153.76667 1.082 1.3171 1.0622.52291-.0198.72735-.3408 1.35641-.3408.63299 0 .81778.3408 1.36821.3329.57009-.0119.92784-.5152 1.27774-1.0305.3971-.5866.5623-1.1533.5701-1.185-.0118-.0119-1.1008-.432-1.1126-1.7003-.0118-1.0622.861-1.5655.9003-1.5972-.4914-.7372-1.2581-.81646-1.52545-.83628Zm3.94735-1.43473v7.72451h1.1913v-2.6395h1.6473c1.5059 0 2.5595-1.0424 2.5595-2.5485 0-1.50604-1.0379-2.53651-2.5201-2.53651h-2.878Zm1.1913 1.01065h1.3721c1.0341 0 1.6238.55487 1.6238 1.52986 0 .975-.5897 1.5378-1.6277 1.5378h-1.3682V9.00274Zm6.3771 6.77336c.747 0 1.439-.3805 1.7535-.9869h.0236v.9274h1.1009v-3.8444c0-1.1137-.8847-1.835-2.245-1.835-1.2621 0-2.1978.7292-2.2332 1.728h1.0734c.0904-.4756.5268-.7887 1.1244-.7887.7274 0 1.1363.3408 1.1363.971v.428l-1.4862.0912c-1.38.0832-2.127.654-2.127 1.6448.0039.9987.7745 1.6646 1.8793 1.6646Zm.3224-.9155c-.633 0-1.038-.3092-1.038-.7769 0-.4874.3893-.7688 1.1324-.8124l1.321-.0833v.436c0 .7213-.6094 1.2366-1.4154 1.2366Zm4.0299 2.9566c1.1599 0 1.7064-.4478 2.1821-1.7993l2.0877-5.9054h-1.211l-1.3996 4.5618h-.0236l-1.3997-4.5618h-1.2424l2.013 5.624-.1101.3408c-.1808.5787-.4757.8046-1.0025.8046-.0944 0-.2752-.0119-.3499-.0199v.9275c.0707.0158.3656.0277.456.0277Z" fill="#231F20"/>
</svg>
