<svg viewBox="0 0 33 26" fill="none" xmlns="http://www.w3.org/2000/svg">
  <rect x=".40509" width="32.2775" height="25.2168" rx="3.02602" fill="#fff"/>
  <path d="M4.11023 2.73535H28.9775V22.243H4.11023V2.73535Z" fill="#231F20"/>
  <path d="M26.1003 20.2079c0 .3349-.2256.5762-.5492.5762-.3334 0-.5492-.2561-.5492-.5762 0-.3202.2158-.5763.5492-.5763.3236 0 .5492.2561.5492.5763Zm-15.2394-.5763c-.3481 0-.5492.2561-.5492.5763 0 .3201.2011.5762.5492.5762.3187 0 .5345-.2413.5345-.5762-.005-.3202-.2158-.5763-.5345-.5763Zm5.7613-.0147c-.2647 0-.4265.1723-.4658.4285h.9366c-.0442-.2808-.2158-.4285-.4708-.4285Zm5.2858.0147c-.3335 0-.5345.2561-.5345.5763 0 .3201.201.5762.5345.5762.3334 0 .5491-.2413.5491-.5762 0-.3202-.2157-.5763-.5491-.5763Zm5.1925 1.2855c0 .0148.0147.0246.0147.0542 0 .0148-.0147.0246-.0147.0542-.0147.0147-.0147.0246-.0245.0394-.0147.0147-.0245.0246-.0539.0246-.0147.0148-.0245.0148-.054.0148-.0147 0-.0245 0-.0539-.0148-.0147 0-.0245-.0148-.0392-.0246-.0147-.0148-.0245-.0247-.0245-.0394-.0147-.0247-.0147-.0394-.0147-.0542 0-.0246 0-.0394.0147-.0542 0-.0246.0147-.0394.0245-.0542.0147-.0147.0245-.0147.0392-.0246.0245-.0148.0392-.0148.0539-.0148.0246 0 .0393 0 .054.0148.0245.0148.0392.0148.0539.0246.0147.0099.0098.0296.0245.0542Zm-.1078.069c.0245 0 .0245-.0148.0392-.0148.0147-.0148.0147-.0246.0147-.0394 0-.0148 0-.0246-.0147-.0394-.0147 0-.0245-.0148-.0539-.0148h-.0785v.1724h.0392v-.069h.0147l.054.069h.0392l-.0539-.064Zm3.6725-16.99678V21.3259c0 1.3052-1.0542 2.3641-2.3536 2.3641H4.77593c-1.29936 0-2.35357-1.0589-2.35357-2.3641V3.98932c0-1.30517 1.05421-2.36408 2.35357-2.36408H28.3116c1.2994 0 2.3536 1.05891 2.3536 2.36408ZM5.56046 10.8648c0 3.7678 3.04493 6.8214 6.79104 6.8214 1.3337 0 2.6429-.4039 3.751-1.1377-3.5745-2.9206-3.55-8.43189 0-11.35251-1.1081-.73878-2.4173-1.13772-3.751-1.13772-3.74611-.00492-6.79104 3.05361-6.79104 6.80653Zm10.98334 5.3586c3.4568-2.7088 3.4421-7.98859 0-10.7122-3.4421 2.72361-3.4568 8.0083 0 10.7122Zm-6.97737 3.7579c0-.4285-.27948-.7092-.72078-.724-.22555 0-.46581.069-.62762.3202-.11768-.202-.31871-.3202-.5982-.3202-.18632 0-.37265.069-.51974.266v-.2167h-.40207v1.8075h.40207c0-.9308-.12259-1.4874.44129-1.4874.50013 0 .40207.5024.40207 1.4874h.38736c0-.9013-.12258-1.4874.44129-1.4874.50014 0 .40207.4925.40207 1.4874h.40207v-1.1328h-.00981Zm2.20157-.6747h-.3874v.2167c-.1323-.1625-.3187-.266-.5736-.266-.5051 0-.89243.4039-.89243.9506 0 .5516.38733.9505.89243.9505.2549 0 .4413-.0935.5736-.2659v.2265h.3874v-1.8124Zm1.9858 1.2608c0-.7388-1.1228-.4038-1.1228-.7486 0-.2807.5835-.2364.9071-.0542l.1618-.3201c-.4609-.3005-1.4808-.2955-1.4808.4038 0 .7043 1.1229.4088 1.1229.7388 0 .3103-.662.2857-1.015.0394l-.1716.3103c.5491.3743 1.5984.2955 1.5984-.3694Zm1.7358.4581-.1079-.335c-.1863.1035-.5982.2168-.5982-.2019v-.8176h.6423v-.3644h-.6423v-.5516h-.4021v.5516h-.3726v.3595h.3726v.8225c0 .8668.8483.7092 1.1082.5369Zm.6521-.66h1.3484c0-.7979-.3628-1.1131-.8531-1.1131-.5198 0-.8924.3891-.8924.9506 0 1.0096 1.1081 1.1771 1.6573.6993l-.1864-.2955c-.3824.3152-.961.2857-1.0738-.2413Zm2.8979-1.0589c-.2256-.0985-.5688-.0887-.7453.2167v-.2167h-.4021v1.8075h.4021v-1.0195c0-.5713.4658-.4974.6276-.4137l.1177-.3743Zm.5197.9013c0-.5615.5688-.7437 1.015-.4137l.1863-.3202c-.5688-.4482-1.6034-.2019-1.6034.7388 0 .9752 1.0984 1.1722 1.6034.7388l-.1863-.3202c-.4511.3202-1.015.1281-1.015-.4235Zm3.2705-.9013h-.4021v.2167c-.407-.5418-1.4661-.2364-1.4661.6846 0 .9456 1.0984 1.2165 1.4661.6846v.2265h.4021v-1.8124Zm1.6524 0c-.1177-.0591-.5394-.1429-.7453.2167v-.2167h-.3874v1.8075h.3874v-1.0195c0-.5418.4413-.5073.6276-.4137l.1177-.3743Zm1.976-.7339h-.3874v.9506c-.402-.5369-1.466-.2512-1.466.6846 0 .9555 1.1032 1.2116 1.466.6846v.2265h.3874v-2.5463Zm.3727-3.6988v.2266h.0392v-.2266h.0931v-.0394h-.2255v.0394h.0932Zm.3236 6.0974c0-.0246 0-.0542-.0147-.0788-.0147-.0148-.0246-.0394-.0393-.0542-.0147-.0148-.0392-.0246-.0539-.0394-.0245 0-.0539-.0148-.0785-.0148-.0147 0-.0392.0148-.0686.0148-.0245.0148-.0392.0246-.0539.0394-.0245.0148-.0393.0394-.0393.0542-.0147.0246-.0147.0542-.0147.0788 0 .0148 0 .0394.0147.0689 0 .0148.0148.0394.0393.0542.0147.0148.0245.0246.0539.0394.0245.0148.0539.0148.0686.0148.0246 0 .054 0 .0785-.0148.0147-.0148.0392-.0246.0539-.0394.0147-.0148.0246-.0394.0393-.0542.0147-.0295.0147-.0541.0147-.0689Zm.1569-6.1417h-.0687l-.0784.1724-.0785-.1724h-.0686v.266h.0392v-.202l.0785.1724h.0539l.0686-.1724v.202h.054v-.266Zm.2157-3.9648c0-3.75292-3.0449-6.81145-6.791-6.81145-1.3337 0-2.6429.40386-3.751 1.13771 3.5352 2.92062 3.5892 8.44664 0 11.35254 1.1081.7387 2.4271 1.1377 3.751 1.1377 3.7461.0049 6.791-3.0487 6.791-6.8165Z" fill="#fff"/>
</svg>
