<svg viewBox="0 0 34 26" fill="none" xmlns="http://www.w3.org/2000/svg">
  <rect x=".873413" width="32.2775" height="25.2168" rx="3.02602" fill="#fff"/>
  <path d="M3.98669 2.73535H30.0385V22.243H3.98669V2.73535Z" fill="#231F20"/>
  <path d="M12.0258 12.7167c0 .6009-.4756 1.0589-1.0787 1.0589-.4511 0-.7846-.2561-.7846-.7388 0-.6008.4659-1.0835 1.0641-1.0835.456 0 .7992.2807.7992.7634ZM6.83813 10.328h-.23046c-.07355 0-.1471.0493-.1569.133l-.21084 1.315.40206-.0148c.53936 0 .95614-.0739 1.05421-.6993.11277-.66-.304-.7339-.85807-.7339Zm13.92527 0h-.2206c-.0883 0-.1471.0493-.1569.133l-.206 1.315.3923-.0148c.6374 0 1.0787-.1477 1.0787-.8865-.0049-.5221-.4707-.5467-.8875-.5467Zm10.3704-6.38793V21.2766c0 1.3052-1.0542 2.3641-2.3535 2.3641H5.24456c-1.29937 0-2.35357-1.0589-2.35357-2.3641V3.94007c0-1.30517 1.0542-2.36408 2.35357-2.36408H28.7803c1.2993 0 2.3535 1.05891 2.3535 2.36408ZM9.18189 10.6087c0-1.03425-.79433-1.37901-1.70144-1.37901h-1.9613c-.12259 0-.24517.0985-.25497.23148l-.80414 5.02863c-.01471.0985.05884.197.1569.197h.93163c.13238 0 .25497-.1429.26968-.2808l.22064-1.3101c.04903-.3546.64723-.2314.88259-.2314 1.40234 0 2.26041-.8373 2.26041-2.2558Zm4.12851.4335h-.9316c-.1863 0-.1961.2708-.2059.4038-.2844-.4186-.6963-.4925-1.1621-.4925-1.20129 0-2.1182 1.0589-2.1182 2.2262 0 .9604.5982 1.5859 1.5543 1.5859.4413 0 .9905-.2414 1.2994-.5861-.0245.0739-.049.2315-.049.3053 0 .1133.049.197.1569.197h.8433c.1324 0 .2452-.1428.2697-.2807l.5002-3.1669c.0147-.0935-.0589-.192-.157-.192Zm1.9859 4.8217 3.1234-4.5607c.0245-.0246.0245-.0493.0245-.0837 0-.0838-.0736-.1724-.1569-.1724h-.9415c-.0833 0-.1716.0492-.2206.1231l-1.2994 1.9208-.5393-1.8469c-.0393-.1084-.1471-.197-.2697-.197h-.9169c-.0834 0-.1569.0886-.1569.1724 0 .0591.9561 2.7974 1.0395 3.0585-.1324.1871-1.0052 1.4086-1.0052 1.5563 0 .0887.0735.1576.1569.1576h.9414c.0883-.0049.1716-.0541.2207-.128Zm7.8109-5.2552c0-1.03425-.7943-1.37901-1.7014-1.37901h-1.9466c-.1324 0-.255.0985-.2697.23148l-.7944 5.02363c-.0098.0985.0638.197.1569.197h1.0052c.0981 0 .1716-.0738.1961-.1576l.2207-1.4283c.049-.3546.6472-.2314.8826-.2314 1.3925 0 2.2506-.8373 2.2506-2.2558Zm4.1285.4335h-.9316c-.1863 0-.1961.2708-.2108.4038-.2697-.4186-.6865-.4925-1.1621-.4925-1.2013 0-2.1182 1.0589-2.1182 2.2262 0 .9604.5982 1.5859 1.5543 1.5859.456 0 1.0052-.2414 1.2994-.5861-.0147.0739-.049.2315-.049.3053 0 .1133.049.197.1569.197h.8482c.1324 0 .2452-.1428.2697-.2807l.5001-3.1669c.0148-.0935-.0588-.192-.1569-.192Zm2.3291-1.64013c0-.0985-.0736-.17238-.1569-.17238h-.9071c-.0736 0-.1471.0591-.1569.13298l-.7943 5.12213-.0148.0247c0 .0886.0736.1723.1717.1723h.809c.1226 0 .2452-.1428.255-.2807l.7943-4.98425v-.01478Zm-4.413 2.55123c-.5981 0-1.064.4777-1.064 1.0835 0 .4778.3433.7388.7944.7388.5884 0 1.064-.4531 1.064-1.0589.0049-.4827-.3383-.7634-.7944-.7634Z" fill="#fff"/>
</svg>
