<svg viewBox="0 0 33 26" fill="none" xmlns="http://www.w3.org/2000/svg">
  <rect width="32.2775" height="25.2168" rx="3.02602" fill="#fff"/>
  <path fill="#231F20" d="M2.97247 6.48785h26.3327v12.731H2.97247z"/>
  <path d="M25.0679 11.3918s.3726 1.8321.456 2.2163h-1.6377c.1618-.4383.7845-2.1424.7845-2.1424-.0098.0147.1618-.4482.2599-.7339l.1373.66Zm5.1925-7.45179V21.2766c0 1.3051-1.0542 2.3641-2.3535 2.3641H4.37115c-1.29937 0-2.35357-1.059-2.35357-2.3641V3.94001c0-1.30517 1.0542-2.36408 2.35357-2.36408H27.9069c1.2993 0 2.3535 1.05891 2.3535 2.36408ZM9.49507 16.312l3.09883-7.64384H10.51L8.58306 13.8888l-.21084-1.0589-.68646-3.51654c-.11277-.48759-.46091-.6255-.89239-.6452H3.62095l-.03432.15268c.77471.19701 1.46607.48267 2.06918.8422L7.41118 16.312h2.08389Zm4.62873.0099 1.2356-7.65374h-1.9711l-1.2308 7.65374h1.9663Zm6.8596-2.502c.0098-.8718-.5197-1.5367-1.6524-2.0834-.6913-.3496-1.113-.5861-1.113-.9456.0098-.3251.3579-.66 1.1326-.66.6424-.0147 1.1131.1379 1.4661.2906l.1765.0837.2697-1.65481c-.3873-.15268-1.0051-.32506-1.7652-.32506-1.9466 0-3.3146 1.04414-3.3244 2.53157-.0147 1.0983.9807 1.709 1.726 2.0784.76.3743 1.0199.6206 1.0199.9505-.0098.5123-.6179.7487-1.1817.7487-.7846 0-1.2062-.1232-1.8486-.4088l-.2598-.1232-.2746 1.7189c.4609.2118 1.3141.399 2.1966.4088 2.0692.0049 3.4176-1.0244 3.4323-2.6103Zm6.9235 2.502-1.5887-7.65374h-1.5249c-.4707 0-.8287.13791-1.0297.63535l-2.9273 7.01839h2.0692s.3383-.9457.4119-1.1476h2.5301c.0588.2709.2353 1.1476.2353 1.1476h1.8241Z" fill="#fff"/>
</svg>
