<svg viewBox="0 0 365 365" fill="none" xmlns="http://www.w3.org/2000/svg">
  <path d="M99.9393 87.6192c12.1167-10.5828 26.2497-18.8556 41.7767-24.1944l-41.143-22.9719-.6337 47.1663ZM264.246 40.4492l-41.143 22.9719c15.527 5.3392 29.668 13.6116 41.782 24.2031l-.639-47.175ZM270.319 22.679C245.23 8.78964 216.537.685584 186.026.0911865L217.22 52.3221l53.099-29.6431Zm-56.502-3.8389h12.563v12.5627h-12.563V18.8401ZM364.475 178.538c-.595-30.51-8.698-59.197-22.579-84.2857L312.253 147.35l52.222 31.188Zm-18.642-39.963-10.881 6.281-6.281-10.88 10.88-6.281 6.282 10.88ZM346.033 182.156l-40.377-24.108c1.533 7.807 2.38 15.861 2.38 24.108s-.847 16.3-2.375 24.107l40.372-24.107ZM338.265 87.9493c-15.277-25.1757-36.468-46.3759-61.644-61.6443l.83 60.8281 60.814.8162Zm-46.998-31.5246 10.88 6.2814-6.281 10.8801-10.881-6.2814 6.282-10.8801ZM324.109 263.993l-22.972-41.143c-2.437 7.092-5.434 13.921-9.038 20.379-.303.577-.566 1.175-.892 1.747-.541.942-1.186 1.778-1.789 2.664-3.698 6.017-7.852 11.707-12.481 17.005l47.172-.652ZM177.914 56.7578c1.478-.1514 2.979-.2271 4.493-.2271 1.514 0 3.014.0757 4.492.2271 6.677.2384 13.241.9057 19.618 2.148l-24.11-40.3774-24.108 40.3774c6.374-1.2451 12.938-1.9097 19.615-2.148ZM100.571 323.864l41.143-22.972c-15.527-5.34-29.669-13.612-41.7826-24.203l.6396 47.175ZM292.099 121.086c3.612 6.458 6.601 13.287 9.046 20.379l22.972-41.143-47.172-.6395c4.31 4.9385 8.222 10.2015 11.727 15.7655.898 1.236 1.753 2.532 2.533 3.889.33.575.594 1.164.894 1.75v-.001ZM264.877 276.692c-12.117 10.583-26.249 18.856-41.776 24.195l41.142 22.971.634-47.166ZM72.7176 121.086c.3028-.577.5664-1.175.8917-1.747.7852-1.357 1.632-2.65 2.5321-3.889 3.5109-5.572 7.4257-10.841 11.7329-15.7789l-47.172.6389 22.9719 41.143c2.4424-7.083 5.4317-13.912 9.0437-20.367h-.0003ZM186.902 307.553c-1.477.152-2.978.228-4.492.228-1.514 0-3.014-.076-4.492-.228-6.677-.238-13.241-.905-19.618-2.148l24.11 40.378 24.108-40.378c-6.374 1.246-12.938 1.91-19.615 2.148h-.001ZM94.4977 341.631c25.0893 13.889 53.7813 21.99 84.2923 22.588l-31.194-52.231-53.0983 29.643Zm56.5013 3.839h-12.563v-12.563h12.563v12.563ZM26.5511 276.362c15.2771 25.176 36.4686 46.376 61.6444 61.644l-.83-60.828-60.8144-.816Zm46.9984 31.525-10.8801-6.282 6.2814-10.88 10.8801 6.281-6.2814 10.881ZM.343872 185.774C.938363 216.283 9.04232 244.97 22.9231 270.059l29.6431-53.097L.343872 185.774ZM18.9863 225.736l10.88-6.281 6.2814 10.88-10.88 6.281-6.2814-10.88ZM276.607 338.013c25.176-15.269 46.376-36.469 61.645-61.645l-60.823.816-.822 60.829Zm20.654-53.28 10.88 6.281-6.282 10.881-10.88-6.282 6.282-10.88ZM186.026 364.222c30.501-.597 59.191-8.698 84.278-22.582l-53.088-29.649-31.19 52.231Zm44.562-35.809 6.281 10.88-10.88 6.281-6.282-10.88 10.881-6.281ZM341.884 270.066c13.889-25.089 21.99-53.781 22.587-84.292l-52.231 31.188 29.644 53.104Zm3.839-56.501v12.562H333.16v-12.562h12.563ZM88.2093 26.3022C63.0335 41.5713 41.8334 62.7708 26.5649 87.9465l60.8232-.816.8212-60.8283ZM67.5561 79.5819l-10.88-6.2814 6.2814-10.88 10.88 6.2813-6.2814 10.8801ZM22.9332 94.245C9.04379 119.334.939735 148.027.345337 178.538L52.5762 147.35l-29.643-53.105Zm-3.839 56.502v-12.563H31.657v12.563H19.0942ZM178.79.0911865C148.287.685678 119.6 8.78964 94.5122 22.6704l53.0888 29.6488L178.79.0911865ZM134.229 35.9008l-6.281-10.8801 10.88-6.2814 6.281 10.8801-10.88 6.2814ZM87.872 264.632c-4.6241-5.294-8.7824-10.981-12.4759-16.996-.6029-.887-1.2451-1.722-1.7891-2.664-.3337-.572-.5917-1.161-.8917-1.747-3.6118-6.458-6.6011-13.287-9.0466-20.379l-22.9719 41.143 47.1752.643ZM18.7841 182.156l40.3774 24.107c-1.5339-7.807-2.3808-15.861-2.3808-24.107 0-8.247.8469-16.301 2.3752-24.108l-40.3718 24.108Z" fill="currentColor"/>
</svg>
