<svg viewBox="0 0 33 26" fill="none" xmlns="http://www.w3.org/2000/svg">
  <rect x=".468384" width="32.2775" height="25.2168" rx="3.02602" fill="#fff"/>
  <path d="M8.21015 10.989v1.6295h2.23765c-.0452.2598-.1418.5077-.2841.729-.1424.2212-.32751.4113-.54437.5588-.37385.2588-.85115.4061-1.41075.4061-1.08157 0-1.99581-.747-2.32381-1.7468-.17164-.526-.17164-1.0937 0-1.6197.328-1.00573 1.24224-1.75274 2.32381-1.75274.29317-.00551.5845.04782.85704.15687.27253.10905.52083.27165.73045.47834l1.18663-1.20959C10.2353 7.903 9.24096 7.50856 8.21015 7.519c-.77112.00298-1.52606.22321-2.1796.63582-.65353.41261-1.17963 1.00116-1.51891 1.69923-.29225.58995-.44438 1.24035-.44438 1.89975s.15213 1.3098.44438 1.8997v.0059c.33937.6977.86561 1.2857 1.51921 1.6976.65361.4119 1.4085.6312 2.1793.6331 1.11567 0 2.05935-.3764 2.74315-1.0235.7837-.7352 1.2308-1.8231 1.2308-3.1172.0005-.2882-.0224-.576-.0685-.8604H8.21015Zm15.25995-.158c-.3969-.3706-.9377-.5586-1.6219-.5586-.8802 0-1.5417.3295-1.979.982l.8171.5239c.2991-.4477.7074-.6716 1.225-.6716.3295.0008.647.1245.8915.3472.1191.1043.2146.2331.2801.3778.0655.1447.0995.3019.0996.4609v.2177c-.3566-.2003-.8053-.3062-1.3575-.3062-.6442 0-1.1619.1533-1.5475.465-.3856.3117-.5807.7233-.5807 1.2467-.0061.2339.0399.4662.1344.68.0945.2137.2352.4034.4118.5553.3625.3294.823.4942 1.3634.4942.6383 0 1.1446-.2884 1.5283-.8648h.0392v.7h.886v-3.1089c.0027-.6538-.1928-1.1717-.5898-1.5406Zm-.7535 3.5276c-.1359.1394-.298.2502-.4767.3259-.1788.0756-.3707.1147-.5646.115-.2606.0044-.5146-.0829-.7183-.2469-.095-.0718-.1721-.1651-.2249-.2723-.0529-.1072-.0801-.2254-.0795-.3451 0-.2766.1261-.5061.3738-.6882.2477-.1821.5694-.2765.9432-.2765.5158-.0063.9194.1122 1.207.3468 0 .4002-.1552.747-.46 1.0413Zm-3.6699-5.60946c-.208-.20957-.4558-.37463-.7286-.48528-.2728-.11065-.5649-.1646-.8589-.15863h-2.4559v7.37687h.926v-2.988h1.5283c.627 0 1.156-.2118 1.5875-.6293.0345-.0352.069-.0707.1038-.1059.3776-.4154.5785-.9636.5593-1.5267-.0191-.56315-.2566-1.09622-.6615-1.48464v.00158Zm-.6498 2.45826c-.1167.1257-.2587.2247-.4164.2907-.1577.0659-.3276.0972-.4982.0917h-1.553V9.01381h1.553c.3314-.00121.6498.12988.8856.36462.2399.24084.3772.56651.3826.90777.0054.3413-.1214.6712-.3536.9197v.0015Zm9.7436-.7715-1.4319 3.6225h-.0177l-1.4663-3.6225h-1.0068l2.0295 4.7227-1.1501 2.5408h.9542l3.0958-7.2635h-1.0067Z" fill="#231F20"/>
</svg>
