<svg viewBox="0 0 723 707" fill="none" xmlns="http://www.w3.org/2000/svg">
  <g clip-path="url(#a)">
    <path fill="#F9A31D" d="M0 0h722.21v706.071H0z"/>
    <path d="M251.953 576C193.63 487.233 136.456 411.334 81.9387 320 54.097 273.098 26.9047 226.295.367859 179.5-207.185-186.495-374.641-551.965-499.095-960l276.451-192C-94.5584-713.001 99.29-385.43 330.5-.0891113 343.208 21.0901 356.028 42.4437 368.957 64l958.873-448 3.62 320-805.649 512C1013.56 1167.89 1655.89 1767.69 2400.02 2200.81L3485.91 2688c-380.06-124.14-743.74-288.04-1085.89-487.19L1203.54 1664C843.681 1336.54 524.288 979.314 251.953 576Z" fill="#000"/>
  </g>
  <defs>
    <clipPath id="a">
      <path fill="#fff" d="M0 0h722.21v706.071H0z"/>
    </clipPath>
  </defs>
</svg>
