<svg viewBox="0 0 114 83" fill="none" xmlns="http://www.w3.org/2000/svg">
  <path d="M87.5372 55.8094c-.878.9875-2.0853 2.305-3.5121 3.5121l7.6818 12.6201H21.471l7.6818-12.5107c-1.4269-1.3167-2.634-2.5239-3.5122-3.5122L15.1049 73.2582c-.4387.7686-.4387 1.6458 0 2.4143.4386.7686 1.2072 1.2073 2.0853 1.2073h78.9057c.878 0 1.6458-.4387 2.0853-1.2073.4386-.7685.4386-1.6458 0-2.4143l-10.644-17.4488ZM56.59 13.9969l8.3403 13.718c2.5239.5489 4.9383 1.3167 7.0236 2.305L58.6745 8.07117c-.4386-.76858-1.2072-1.20722-2.0853-1.20722-.878 0-1.6458.43864-2.0853 1.20722L41.2261 30.0199c2.1947-.9875 4.4997-1.7561 7.0236-2.305l8.3403-13.718Z" fill="currentColor"/>
  <path d="M56.5898 31.2266c-16.352 0-26.4482 11.413-29.1918 14.9252-1.0977 1.4269-1.0977 3.5122 0 5.0486 2.7436 3.4018 12.84 14.815 29.1918 14.815s26.4483-11.413 29.1919-14.9252c1.0977-1.4269 1.0977-3.5122 0-5.0486-2.7436-3.401-12.8401-14.815-29.1919-14.815ZM31.239 48.6757c1.5364-1.8656 5.0486-5.8164 10.4255-8.8891-1.5364 2.6341-2.4144 5.5968-2.4144 8.8891 0 3.2923.8781 6.2558 2.4144 8.889-5.3776-3.0728-8.889-7.0236-10.4255-8.889Zm25.3508 12.84c-7.1329 0-12.84-5.8164-12.84-12.84s5.7069-12.84 12.84-12.84c7.1332 0 12.84 5.8164 12.84 12.84s-5.7068 12.84-12.84 12.84Zm14.9252-4.0603c1.5364-2.6341 2.4143-5.5968 2.4143-8.8891 0-3.2925-.878-6.2558-2.4143-8.889 5.3776 2.9633 8.889 6.914 10.4254 8.889-1.5363 1.975-5.0478 5.9258-10.4254 8.8891Z" fill="currentColor"/>
  <path d="M56.5896 39.8964c-1.2072 0-2.4143.2197-3.4018.6583 1.5363.4387 2.5239 1.8656 2.5239 3.5122 0 2.0853-1.6459 3.7311-3.7311 3.7311-1.6459 0-3.0728-1.0978-3.5122-2.5239-.4386 1.0977-.6583 2.1947-.6583 3.4018 0 4.829 3.9507 8.7797 8.7796 8.7797 4.829 0 8.7797-3.9507 8.7797-8.7797 0-4.8296-3.9507-8.7796-8.7797-8.7796l-.0001.0001ZM16.6432 49.883c.2197-1.3166-.6584-2.5239-1.975-2.7435l-7.35286-1.2073c-1.31669-.2197-2.52391.6584-2.74359 1.975-.21968 1.3167.65835 2.5239 1.975 2.7436l7.35285 1.2072h.4386c1.0978.0008 2.0853-.8772 2.305-1.975ZM29.154 23.6544c.4387.6583 1.2073.9875 1.975.9875.4387 0 .9875-.1095 1.4269-.4386 1.0978-.7686 1.3167-2.305.5489-3.4019l-4.3894-6.1454c-.7685-1.0978-2.305-1.3167-3.4018-.5489-1.0978.7686-1.3167 2.305-.5489 3.4018l4.3893 6.1455ZM12.3632 32.3241l6.3652 3.9508c.4386.2197.878.3292 1.3166.3292.7686 0 1.6459-.4387 2.0854-1.0978.6583-1.0977.3291-2.634-.7686-3.2925l-6.4747-4.0603c-1.0977-.6584-2.634-.3292-3.2925.7686-.6583 1.0969-.3292 2.6334.7686 3.4018v.0002ZM108.718 47.798c-.22-1.3167-1.427-2.1946-2.743-1.975l-7.3533 1.2073c-1.3167.2197-2.1947 1.4269-1.975 2.7436.2197 1.2072 1.2072 1.9749 2.4144 1.9749h.4386l7.3533-1.2072c1.207-.1094 2.085-1.4261 1.865-2.7436ZM80.6236 24.2031c.4387.3292.8781.4387 1.4269.4387.7686 0 1.5364-.3292 1.975-.9876l4.3894-6.1454c.7685-1.0978.5488-2.634-.5489-3.4019-1.0978-.7685-2.6341-.5488-3.4019.5489l-4.3893 6.1455c-.7678 1.2072-.5489 2.634.5489 3.4018h-.0001ZM93.1346 36.6041c.4387 0 .8781-.1095 1.3167-.3292l6.3647-3.9508c1.098-.6583 1.427-2.1946.769-3.2925-.658-1.0977-2.1947-1.4269-3.2925-.7685l-6.3651 3.9507c-1.0978.6584-1.4269 2.1947-.7686 3.2925.4394.6584 1.2072 1.0978 1.9758 1.0978Z" fill="currentColor"/>
</svg>
