<svg viewBox="0 0 53 63" fill="none" xmlns="http://www.w3.org/2000/svg">
  <path d="M11.4762 17.4902c-1.1647-.2323-2.32937.4662-2.56166 1.6308-.23228 1.1647.4662 2.3294 1.63086 2.5617l28.1778 5.5892c.9307-.9308 2.3293-2.3294 3.7262-3.7263l-30.9732-6.0554ZM15.1065 60.5704c.2322.9307 1.1646 1.8631 2.0954 1.8631h.4662l25.8483-5.1231-2.4323-4.623-24.3487 5.3216c-1.163.2323-1.8629 1.3967-1.6289 2.5614ZM37.724 38.5263H2.09533c-1.164674 0-2.09543681.9308-2.09543681 2.0954 0 1.1647.93076281 2.0955 2.09543681 2.0955H38.4222c-.4646-1.397-.6985-2.7939-.6985-4.1908l.0003-.0001ZM16.7496 4.13704l31.331 12.70456c1.1647-.9308 2.5616-2.0954 3.9586-3.0278L18.3795.17863c-1.1647-.466192-2.3294-.000001-2.794 1.16467-.4661 1.16305-.0006 2.55979 1.1641 2.79374Z" fill="currentColor"/>
</svg>
