<svg viewBox="0 0 210 70" fill="none" xmlns="http://www.w3.org/2000/svg">
  <g clip-path="url(#a)">
    <path d="M91.0001 45.9667c-1.89.3966-4.445.7933-7.665.7933-3.99 0-10.0216-1.89-10.0216-10.885v-3.4883c0-9.1 5.88-10.92 10.4883-10.92 3.4533 0 5.915.5366 7.2683.8983.4667.1283.63.1983.63.63v4.1883c0 .3967-.1633.5367-.4666.5367h-.105c-1.26-.105-3.955-.3033-6.405-.3033-3.15 0-4.585.9683-4.585 4.9816v3.5234c0 4.445 1.89 5.075 3.185 5.075.63 0 1.26-.035 1.82-.105V34.09c0-.3617.2683-.665.63-.665h5.25c.3616 0 .665.3033.665.665v11.1183c.0116.49-.1517.6534-.6884.7584ZM112.117 46.4684H107.1c-.361 0-.7-.3267-.7-.7V34.3117c0-1.5283-.595-2.1583-2.391-2.1583-.759 0-1.494.07-2.159.2333v13.3467c0 .3616-.303.735-.665.735h-5.0164c-.3617 0-.735-.3617-.735-.735V21.4667c0-.3617.3033-.665.665-.665h5.0754c.361 0 .665.3033.665.665v5.915c.828-.1983 2.053-.5367 3.581-.5367 4.877 0 7.339 2.66 7.339 7.4084V45.78c.023.35-.269.6884-.642.6884ZM132.568 38.5934h-10.325v.07c0 1.7616.735 2.8583 3.15 2.8583 1.762 0 5.052-.1283 6.312-.2683h.128c.362 0 .595.1633.595.56V44.8c0 .5367-.128.7584-.665.9334-2.123.7-4.421 1.0266-7.21 1.0266-4.48 0-8.633-2.3566-8.633-8.7033v-2.1933c0-5.845 3.383-9.03 8.832-9.03 5.81 0 8.505 3.6866 8.505 9.03v1.995c.011.4433-.292.735-.689.735Zm-5.413-3.6167c0-1.995-.793-3.185-2.462-3.185-1.598 0-2.461 1.19-2.461 3.185v.105h4.911v-.105h.012ZM152.997 46.4683h-4.982c-.396 0-.7-.3616-.7-.735v-11.55c0-1.26-.105-2.1583-1.656-2.1583h-1.26c-1.564 0-1.657.8983-1.657 2.1583v11.55c0 .3617-.303.735-.7.735h-4.982c-.396 0-.7-.3616-.7-.735v-11.55c0-5.11 2.789-7.3033 8.039-7.3033h1.26c5.25 0 8.038 2.1933 8.038 7.3033v11.55c-.012.3617-.303.735-.7.735ZM165.48 53.235c-2.916 0-5.308-.595-6.475-.9916-.466-.1634-.665-.3967-.665-.9334v-2.7183c0-.3617.234-.63.595-.63h.07c1.494.1283 4.819.3967 6.475.3967 1.89 0 2.427-.4317 2.427-1.96v-.56c-.537.105-1.657.2333-2.392.2333-5.88 0-8.726-3.3833-8.726-8.6683v-1.89c0-5.5767 3.29-8.6684 8.726-8.6684 2.987 0 5.81.3267 7.444.7584.991.2683 1.166.4316 1.166.9916v17.7917c-.011 4.8883-2.765 6.8483-8.645 6.8483Zm2.427-20.9533c-.63-.07-1.4-.1633-2.392-.1633-1.855 0-2.391 1.4-2.391 3.3833v1.89c0 1.925.536 3.4183 2.391 3.4183.794 0 1.727-.0933 2.392-.1633v-8.365ZM183.739 25.3167h-5.238c-.362 0-.759-.3033-.759-.665v-3.255c0-.3617.397-.665.759-.665h5.25c.361 0 .735.3033.735.665v3.255c-.012.3617-.374.665-.747.665Zm-.163 21.1517h-4.947c-.362 0-.735-.3617-.735-.735V27.8367c0-.3617.362-.7.735-.7h4.947c.361 0 .735.3267.735.7v17.8967c0 .3616-.374.735-.735.735ZM194.472 46.76c-2.357 0-4.62-.3616-6.137-.7933-.396-.105-.63-.3383-.63-.735v-3.4183c0-.3967.234-.7.7-.7h.129c1.96.2683 4.62.5366 5.716.5366 1.26 0 1.564-.3383 1.564-.9683 0-.3617-.199-.665-.992-1.0967l-4.048-2.1933c-2.089-1.1317-3.15-2.8233-3.15-5.25 0-3.3833 2.356-5.3083 7.303-5.3083 2.52 0 4.515.3966 6.113.8283.397.105.665.3267.665.735V31.92c0 .3967-.198.665-.56.665h-.105c-.968-.1283-4.211-.5366-5.705-.5366-.863 0-1.225.1983-1.225.735 0 .2683.234.5016.735.7583l3.885 2.0883c2.719 1.4584 3.489 3.325 3.489 5.18-.047 3.36-2.38 5.95-7.747 5.95ZM77.1167 54.775v-5.3783H80.99v.98h-2.8583v1.47h2.695v.9333h-2.695v1.995h-1.015ZM85.6099 54.775v-5.3783h1.0033v5.3783h-1.0033ZM96.1916 54.775H94.99l-1.5634-1.7967h-.98v1.7967h-1.015v-5.39c.8517 0 1.7034.0117 2.555.0117 1.2717.0116 1.9367.8516 1.9367 1.785 0 .735-.3383 1.4816-1.365 1.6916l1.6333 1.8434v.0583Zm-3.7566-4.4333v1.7266h1.54c.6416 0 .9216-.4316.9216-.8633s-.28-.8633-.9216-.8633h-1.54ZM104.463 54.775h-4.025v-5.3783h4.025v.98h-3.021v1.2366h2.916v.945h-2.916v1.2134h3.021v1.0033ZM114.987 54.775h-.864l-.665-1.6917-.571-1.7033-.56 1.715-.654 1.68h-.863l-1.972-5.3783h1.144l1.271 3.885 1.307-3.885h.665l1.342 3.885 1.225-3.885h1.143l-1.948 5.3783ZM126.676 52.115c-.011 1.3883-.875 2.7883-2.765 2.7883-1.89 0-2.765-1.365-2.765-2.7767 0-1.4116.91-2.835 2.765-2.835 1.855-.0116 2.777 1.4117 2.765 2.8234Zm-4.526.0233c.023.8867.501 1.8317 1.773 1.8317 1.272 0 1.75-.9567 1.762-1.8434.011-.91-.49-1.925-1.762-1.925-1.283 0-1.797 1.0267-1.773 1.9367ZM136.045 54.775h-1.201l-1.564-1.7967h-.98v1.7967h-1.015v-5.39c.852 0 1.703.0117 2.567.0117 1.272.0116 1.937.8516 1.937 1.785 0 .735-.339 1.4816-1.365 1.6916l1.633 1.8434v.0583h-.012Zm-3.757-4.4333v1.7266h1.552c.642 0 .922-.4316.922-.8633s-.28-.8633-.922-.8633h-1.552ZM144.62 49.42l-2.392 2.5783 2.59 2.7184v.0583h-1.26l-2.251-2.38v2.38h-1.015v-5.3783h1.015v2.275l2.041-2.275h1.26v.0233h.012ZM152.495 50.6917c-.187-.3033-.688-.595-1.272-.595-.758 0-1.12.315-1.12.7117 0 .4666.549.595 1.202.6766 1.12.14 2.17.4317 2.17 1.715 0 1.2017-1.062 1.715-2.263 1.715-1.097 0-1.949-.3383-2.345-1.3183l.851-.4433c.234.595.864.8516 1.517.8516.642 0 1.237-.2216 1.237-.805 0-.5016-.537-.7116-1.249-.7933-1.096-.1283-2.111-.42-2.111-1.6333 0-1.1084 1.096-1.5634 2.088-1.5634.84 0 1.703.2334 2.112 1.0734l-.817.4083Z" fill="#000"/>
    <path d="M51.6831 28.8284c-.0817-.035-.1517-.07-.2217-.105.07.035.14.07.2217.105ZM52.0565 29.0033c-.0467-.0234-.0933-.0467-.14-.0584.0467.0117.0933.035.14.0584ZM50.8786 28.4317c-.14-.0817-.2801-.1517-.4084-.2333.1283.07.2684.1516.4084.2333ZM50.3532 28.1283c-.0933-.0583-.1983-.1166-.2917-.1866.0934.0583.1984.1283.2917.1866ZM51.2747 28.6417c-.1284-.07-.2567-.1283-.3851-.1983.1284.0583.2567.1283.3851.1983ZM49.9218 27.8484c-.0817-.0583-.1633-.105-.2333-.1633.07.0583.1516.1166.2333.1633ZM49.5134 27.5683c-.0584-.0466-.1167-.0816-.175-.1283.0583.0467.1166.0933.175.1283ZM20.5102 27.7084c-.0817.0583-.1517.105-.2333.1516.0816-.0466.1516-.105.2333-.1516ZM19.7282 28.1984c-.14.0816-.2684.1516-.4084.2333.14-.07.28-.1517.4084-.2333ZM19.215 28.49c-.105.0583-.1984.105-.3034.1517.105-.0467.21-.0934.3034-.1517ZM20.8601 27.4517c-.0584.0466-.1167.0816-.175.1283.0583-.035.1166-.0817.175-.1283ZM18.7369 28.735l-.21.105.21-.105ZM18.2817 28.945c-.0467.0233-.0817.035-.1284.0583.0467-.0233.0817-.035.1284-.0583ZM20.1251 27.9533c-.105.07-.1983.1283-.3033.1867.105-.0584.21-.1167.3033-.1867Z" fill="#BE1E2D"/>
    <path d="m55.1131 43.995-.0467.0233-1.4116 1.54 1.6566-.8166c-.0816-.245-.1516-.49-.1983-.7467ZM55.3232 44.7883c.0584.595.1284 1.19.2217 1.7734l-4.4917 2.2166c.0817.2684.1517.5134.2217.735l5.285-2.6133c-.56-.6067-.98-1.33-1.2367-2.1117Z" fill="#96121F"/>
    <path d="M55.3233 44.7883c0-.0117-.0117-.0233-.0117-.0467l-1.6566.8167-2.695 2.94c.0233.0933.0583.1867.0816.28l4.4917-2.2167c-.0817-.595-.1633-1.1783-.21-1.7733Z" fill="#B93128"/>
    <path d="M58.0533 46.0366c0-.1983-.035-.3266-.1284-.4083l-.735.945c.175.1867.3734.35.5717.5133l.7817-1.5633c-.35 0-.49.1517-.49.5133ZM58.5431 45.5117l.91-1.82-1.3066 1.6566c.0817.105.21.1517.3966.1634ZM59.4654 43.6567l-3.3834 1.2017c.0817.21.1867.42.2917.6183l3.0917-1.82ZM59.4531 43.645l-3.4417-.665-.28.315c.0234.3033.07.6066.14.8983l3.5817-.5483Z" fill="#96121F"/>
    <path d="M59.4649 43.6567h-.0116l-3.5817.5483c.0583.2217.1283.4433.21.665l3.3833-1.2133Z" fill="#B93128"/>
    <path d="M57.5281 45.5117c.385 0 .5367-.1517.5367-.5367 0 .1634.035.28.0933.3617l1.3067-1.6567.0116-.035-3.0916 1.82c.2216.3967.49.7584.8166 1.085l.735-.945c-.0933-.0583-.2216-.0933-.4083-.0933Z" fill="#B93128"/>
    <path d="m59.5117 29.12-3.0566 2.9517 1.3883-.21 2.66-2.5783c-.63-.3617-1.1783-.84-1.6333-1.4.175.4433.385.8516.6416 1.2366ZM58.6949 27.65c-.1634-.2217-.315-.455-.4434-.7l-.9683.9333.1167 1.015 1.295-1.2483ZM55.1015 30.5667l-.77 1.3066 1.2834-1.2367c-.175-.0233-.35-.0349-.5134-.0699Z" fill="#858585"/>
    <path d="M57.6332 30.73h-.3967c-.5367 0-1.0733-.035-1.6217-.0934l-1.2833 1.2367-.3383.5717 2.4733-.3734 3.0567-2.9516c-.2567-.385-.4784-.7934-.63-1.225-.0584-.0817-.1284-.1517-.1867-.2334l-1.2833 1.2367.21 1.8317Z" fill="#BDBDBD"/>
    <path d="m62.1249 25.3283-3.6283.4317c.0583.1983.14.385.2217.5716l3.4066-1.0033ZM62.2648 25.3051h-.0234c-.595.2566-2.7766 1.1433-3.3366 1.3766.0467.0934.105.175.1516.2567.5834-.28 2.555-1.2833 3.2084-1.6333ZM61.3548 27.2417c.385 0 .5367-.1516.5367-.5366 0 .07.0116.1283.0116.175l.35-1.3417.035-.2333c-.595.35-2.625 1.4466-3.1616 1.7383.5483.8167 1.3183 1.4817 2.2283 1.8783l.42-1.5633c-.0817-.0817-.2217-.1167-.42-.1167Z" fill="#96121F"/>
    <path d="m44.0536 17.0217.8983-2.52c-1.0267-.0467-2.03-.2917-2.9517-.7234-.0233.0117-.035.0234-.0583.035.28.3734.5483.7817.7817 1.225.4316.77.875 1.4234 1.33 1.9834ZM41.4751 18.8417c.07.105.1517.21.2217.315-.07-.105-.14-.21-.2217-.315Z" fill="#858585"/>
    <path d="M43.9483 10.0217c-.0233-.05838-.07-.10505-.1166-.14005L42 12.7983l.2567.3384c.0583.0233.1166.0583.175.0816l1.5166-3.1966ZM40.7515 11.165l.5133.6767 3.1033-3.03335-3.6166 2.35665ZM44.2513 9.75331c.0817.035.175.04667.2917.04667-.14 0-.2567.02333-.3384.07L42.793 13.37c.7933.3033 1.645.4666 2.5083.4666.21 0 .42-.0116.63-.0233l-1.295-4.95832-.385.89833ZM44.1232 9.66l.4317-.91-.5017.79333c.0117.04667.035.09334.07.11667Z" fill="#B93128"/>
    <path d="m47.2381 22.2367.3967-.1633c-.14.0233-.28.035-.4317.0466l.035.1167ZM51.1349 20.0667c.035-.0117.0817-.0117.1167-.0117l.6417-1.8083c-1.0967-.07-2.1584-.4433-3.0567-1.0967l-.945 2.6484c.2567.0816.5133.1516.7583.21l.84-2.3684c.3617.5134.8284.9334 1.33 1.3184l-.42 1.19c.455-.0117.735-.07.735-.0817Z" fill="#858585"/>
    <path d="m49.4899 17.6517-.84 2.3683c.7.1517 1.3067.175 1.7383.1517l.42-1.19c-.49-.3967-.9566-.8167-1.3183-1.33Z" fill="#BDBDBD"/>
    <path d="M51.4617 15.645h-.0816c.035-.0116.0583-.0116.0816 0l.2684-1.7383v-.0117l-.035.0234-2.6834 2.4966c.63.5134 1.3767.8634 2.17 1.0384l.28-1.8084ZM52.2783 15.6217l-.3384-1.05.1984 1.015c.0466.0116.0933.0233.14.035ZM51.5898 15.61c.14-.035.2334-.1167.28-.245-.0116-.4084-.0116-.7934-.0233-1.085l-.0817-.2567c-.035.3383-.105.9567-.175 1.5867ZM52.535 17.57c.1166 0 .2333-.0117.35-.0233l-.595-1.89c-.0467.0116-.0817.0233-.1284.035l.3734 1.8783ZM51.8816 15.925c-.0466-.14-.14-.2333-.2916-.2683-.07.7233-.1517 1.47-.1867 1.8433.1634.0233.3267.0467.49.0583 0-.35 0-.98-.0117-1.6333ZM44.5667 28.175l1.05-1.785.0583-.1633c-1.1433-.035-2.275-.245-3.3483-.63.9683.805 1.785 1.68 2.24 2.5783Z" fill="#96121F"/>
    <path d="m45.1384 18.1766.0234-.175-.07-.2333-.0234.0233-.0933.2334c.0467.0466.105.0933.1633.1516ZM45.71 22.0034c-.1517.0116-.315.0233-.4784.0233h-.1283l-.0467 1.0967 1.5284-.63-.1167-.385c-.1633-.0117-.3267-.0234-.49-.0584-.0933-.0116-.175-.0233-.2683-.0466ZM44.9751 25.4917c.3267.035.6533.0466.9917.0466h.1633l.1167-.1983c-.4434-.5717-.84-1.1783-1.1784-1.7967l-.0116-.0116-.0817 1.96ZM44.5552 21.9917c-.35-.035-.7234-.0933-1.0967-.1633l-.4317 1.0733c.0817.0583.1984.0817.35.0817-.2333 0-.385.0583-.455.1866l-.0466.1167c-.0117.0583-.0234.14-.0234.2217 0-.0467 0-.0934-.0116-.14l-.5834 1.47c.5717.2216 1.1667.3966 1.785.5133l.5134-3.36ZM45.2543 18.269l-.0111-.0223v.0223h.0111ZM40.4834 20.7667l-.2217.14v2.4616l1.6217-1.9833c-.4667-.175-.945-.385-1.4-.6183Z" fill="#B93128"/>
    <path d="M42.8401 23.3684c-.035-.28-.1867-.3967-.525-.3967.385 0 .5367-.1517.5367-.5367 0 .2334.0583.3734.175.455l.4316-1.0733c-.5133-.105-1.0383-.2567-1.5633-.4433l-1.6217 1.9833V23.8c.6184.42 1.2834.77 1.9834 1.0384l.5833-1.47ZM44.8584 17.92l.105.105.0933-.2333-.1983.1283Z" fill="#C18014"/>
    <path d="m42.875 23.2866.0467-.1166c-.0117.035-.035.07-.0467.1166ZM45.2432 18.27v-.0117l-.0817-.245-.0233.175c.035.0117.07.0467.105.0817ZM44.5548 21.9917l-.5133 3.36c.3033.0583.6183.105.9333.1283l.07-1.96-.1866-.3266.1983-.0817.0467-1.0967c-.175 0-.3617 0-.5484-.0233Z" fill="#C18014"/>
    <path d="M47.3667 38.4416c.0583.1517.1283.2917.1867.4434l3.7683-3.8734c-.245-.5483-.4433-1.12-.595-1.6916l-.105-.3734 2.4967-.3733 1.26-2.135c-1.9834-.42-3.8617-1.2717-5.4834-2.485.6534 1.26 1.6334 2.3567 2.6834 3.36l-2.1467 3.64.3033.525-.5483-.1167-.9217 1.5517.21.63-.4666-.1983-.6417 1.0966ZM48.1368 27.335c-.5133-.4433-.9917-.9217-1.435-1.4233l-1.8317 3.1033c.0234.0933.035.175.0467.2683l1.7383.28-.9566 1.05.4083.1517 2.03-3.43Z" fill="#96121F"/>
    <path d="M48.8948 27.9533c-.2567-.1983-.5134-.3966-.7584-.6066l-2.03 3.43 3.1734 1.225-1.155.7233 1.3066 2.24 2.1467-3.64c-1.05-1.015-2.03-2.1117-2.6833-3.3717ZM42.2798 40.74l.0933.0933c-.035-.0233-.07-.0583-.0933-.0933ZM48.02 37.345l-1.435-.6183c.2683.5367.525 1.12.7816 1.715l.6534-1.0967ZM47.6235 35.0117l.6417 1.9134.9217-1.5634-1.5634-.35Z" fill="#B93128"/>
    <path d="M56.9916 40.88c-1.225-.595-2.345-1.4-3.29-2.3683.42.945.8983 1.8433 1.435 2.73L50.2949 46.41c.1517.4667.2917.9217.4317 1.3417l6.265-6.8717ZM52.4652 37.03c-.3033-.4317-.5833-.8867-.8283-1.3534l-3.7917 3.8967c.21.5133.4084 1.0383.6184 1.5633l4.0016-4.1066Z" fill="#96121F"/>
    <path d="M55.1367 41.23c-.5367-.875-1.015-1.785-1.435-2.73-.455-.455-.8633-.9567-1.2367-1.4817l-4.0016 4.1183c.6766 1.7967 1.3066 3.64 1.8316 5.25l4.8417-5.1566ZM57.1315 38.3016c1.05 0 1.47-.42 1.47-1.47 0 .3617.0467.6534.1633.875l1.4234-5.2266.0233-.2217c-1.365.77-6.1367 3.3367-7.42 4.025 1.2367 1.925 3.045 3.4183 5.1917 4.2817l.455-1.6684c-.21-.42-.63-.595-1.3067-.595ZM59.8616 32.2584l-8.365 1.26c.105.35.2333.7.3733 1.0383l7.9917-2.2983ZM60.1883 32.2117l-.0466.0116c-1.2367.5367-6.4984 2.6367-7.8634 3.185.105.21.2217.4084.35.6184 1.3767-.6884 6.1017-3.0684 7.56-3.815Z" fill="#B93128"/>
    <path d="m55.2651 19.705-9.415 3.85c.2917.49.6067.9684.9567 1.4117l8.4583-5.2617ZM53.0482 21.8984c-.07-.0234-.14-.0234-.2334-.0234.1634 0 .2917-.035.3734-.0933.0116-.0117.035-.0233.0466-.0467.07-.0816.105-.21.105-.385 0 .105.0117.1867.035.2567.91-.84 1.715-1.5867 2.1817-2.0183l-.0467.0233c-1.26 1.0267-6.6733 5.2033-7.9683 6.2067.1867.21.385.4083.5833.595.8167-.7467 3.045-2.7884 4.9234-4.515ZM55.7201 27.895v.14c0-1.4583-.5716-2.0417-2.0416-2.0417 1.26 0 1.8666-.4316 2.0066-1.4933l-.0466-4.865-.0117-.0583c-.42.4316-1.2367 1.2366-2.1817 2.1583.0817.0933.2217.14.42.14-.385 0-.5366.1517-.5366.5367 0-.1984-.0467-.3384-.14-.42-1.8434 1.8083-4.0717 3.955-4.8184 4.6666.3034.28.63.5367.9567.7934.0583.0466.1167.0816.175.1283.0583.035.1167.0817.1633.1167.0817.0583.1517.105.2334.1633.0466.035.0933.0583.14.0933.0933.0584.1983.1167.2916.1867.035.0233.07.0467.105.07.14.0817.2684.1633.4084.2333.0116 0 .0116.0117.0233.0117.1283.07.2567.14.385.1983.0583.0234.1167.0584.175.0817.07.035.1517.07.2217.105.0816.035.1516.07.2333.105.0467.0233.0933.0467.14.0583 1.1667.49 2.4033.8167 3.6867.9567l.0116-2.065Z" fill="#96121F"/>
    <path d="m62.2416 25.3167-.1167.0116-3.4066 1.0034c.0583.1283.1166.245.1866.3616.56-.2333 2.7534-1.12 3.3367-1.3766ZM61.775 27.37l-.42 1.5633c.1166.0467.2333.105.35.14l.2567-1.6683c-.0584.0817-.0817.1983-.0817.3617.0117-.175-.0233-.3034-.105-.3967ZM62.02 27.125l.245-1.575-.35 1.3417c.0117.0933.0467.175.105.2333ZM62.2883 25.3167v-.0117h-.0233c-.6534.3383-2.625 1.3533-3.2084 1.645.0234.035.0467.07.07.105.5484-.2917 2.5667-1.3883 3.1617-1.7383Z" fill="#B93128"/>
    <path d="m60.1418 32.2234-.28.0467-7.98 2.2983c.1167.2917.2567.5717.3967.8517 1.365-.56 6.6267-2.66 7.8633-3.1967ZM59.4651 38.2317l.7117-5.7634-1.4234 5.2267c.14.28.3734.455.7117.5367ZM58.6017 39.7716c0-.3733-.0466-.6649-.1633-.8866l-.455 1.6683c.3733.1517.7583.28 1.155.3967l.315-2.59c-.6067.1633-.8517.595-.8517 1.4116ZM60.2 32.2583v-.0466h-.0233c-1.4467.7466-6.1717 3.1266-7.56 3.815.0467.0816.105.175.1633.2566 1.2834-.6883 6.0667-3.255 7.42-4.025Z" fill="#C18014"/>
    <path d="m55.51 19.6-.245.105-8.4584 5.2616c.2334.2917.4667.5834.7234.8517 1.295-1.015 6.72-5.1917 7.98-6.2183ZM55.7198 23.9634c0 .8283.1867 1.3767.6184 1.6917l-.7-6.0084.0467 4.8534c.0233-.1634.0349-.3384.0349-.5367ZM55.7202 27.895l.0233 2.065c.3617.035.735.07 1.1084.0816l-.4434-3.745c-.455.2917-.665.805-.6883 1.5984ZM53.375 21.595c.0233.0583.0467.0933.0817.14.945-.9217 1.75-1.715 2.1816-2.1583v-.0234l-.07.0234c-.4783.4433-1.2833 1.1783-2.1933 2.0183ZM53.2234 21.735c-.0116.0117-.035.0233-.0466.0467.0233-.0234.035-.035.0466-.0467ZM53.2 21.98c-.0467-.035-.0933-.0584-.1517-.0817-1.8783 1.7267-4.1066 3.7683-4.9233 4.5033.0817.0817.175.1634.2567.245.735-.7 2.9633-2.8583 4.8183-4.6666Z" fill="#B93128"/>
    <path d="m16.6018 45.605-1.4584-1.5867-.0466-.0233c-.0467.2683-.1167.525-.1984.77l1.7034.84ZM19.4016 48.9183l-4.7717-2.3567c.0817-.525.1517-1.0616.1983-1.5866-.2566.7116-.6533 1.365-1.1783 1.9366l5.53 2.73c.07-.2216.1517-.4666.2217-.7233Z" fill="#96121F"/>
    <path d="m14.6299 46.5617 4.7716 2.3567c.0234-.0584.035-.1284.0584-.1867l-2.8584-3.1267-1.7033-.84c-.0233.07-.0467.14-.07.21-.0467.525-.1167 1.0617-.1983 1.5867Z" fill="#B93128"/>
    <path d="M13.8252 45.5c.1166-.1983.21-.4083.3033-.63l-3.3717-1.2017.0117.0234L13.8252 45.5ZM12.4367 46.0367c0-.07-.0117-.1284-.0233-.1867l-.2334-.3033c-.07-.0234-.1633-.0467-.28-.0467.0817 0 .1634-.0117.2217-.0233l-1.2833-1.6334 1.61 3.22c.1983-.1516.3733-.315.5483-.4783l-.5483-.7c-.0117.0467-.0117.105-.0117.1517ZM14.3385 44.205c.07-.2916.1283-.595.1517-.91l-.28-.3033-3.4534.665 3.5817.5483Z" fill="#96121F"/>
    <path d="M12.1336 45.4884c.2216-.0584.3033-.21.3033-.5017 0 .385.1517.5367.5367.5367-.3267 0-.4784.105-.525.385l.5483.7c.3267-.3267.6067-.7.8283-1.0967l-3.0566-1.8083.0816.1516 1.2834 1.6334ZM14.1285 44.87c.0933-.2216.1633-.4433.2217-.6766l-3.5934-.5484.0117.0117 3.36 1.2133Z" fill="#B93128"/>
    <path d="m12.1802 45.5583.2333.3034c-.0233-.1633-.105-.2567-.2333-.3034Z" fill="#B93128"/>
    <path d="m13.697 32.0717-3.045-2.94c.2334-.35.4317-.7233.595-1.12-.4316.5134-.9566.945-1.53997 1.2834l2.67167 2.5783 1.3183.1983ZM15.1201 30.5667c-.1867.0233-.3733.0583-.5483.0699l1.3883 1.3417-.84-1.4116ZM12.9268 27.8717l-.9567-.9217c-.14.2567-.2917.5017-.4667.7233l1.295 1.2484.1284-1.05Z" fill="#858585"/>
    <path d="m10.6519 29.12 3.045 2.94 2.52.3733-.2684-.4666-1.3883-1.3417c-.525.0583-1.0617.0933-1.575.0933h-.3967l.21-1.7966-1.295-1.2484c-.0816.1167-.175.2217-.2566.3267-.1517.3967-.3617.77-.595 1.12Z" fill="#BDBDBD"/>
    <path d="M11.4913 26.3433c.0817-.1866.1633-.385.2217-.5833l-3.69835-.4433 3.47665 1.0266ZM8.60977 26.705c0 .385.15167.5367.53667.5367-.385 0-.53667.1516-.53667.5366 0-.2566-.07-.4083-.23333-.4783l.44333 1.6683c.92167-.3966 1.70333-1.0616 2.26333-1.8783-.4667-.2566-2.47333-1.3533-3.14999-1.7383l.09333.63.32667 1.225c.175-.07.25666-.2217.25666-.5017ZM11.1418 26.9734c.0584-.0817.105-.175.1517-.2683-.5017-.21-2.78834-1.1434-3.38334-1.4v.0116c.7.3617 2.70664 1.3884 3.23164 1.6567Z" fill="#96121F"/>
    <path d="M28.21 13.79c-.9216.4316-1.9133.6766-2.94.7233l1.1784 3.29 3.5583 2.3217-.0117-5.4834c-.6183-.245-1.2133-.525-1.785-.8516Z" fill="#858585"/>
    <path d="m25.7251 8.85498.4317.92167c.0466-.01167.0816-.02334.1166-.035l-.5483-.88667ZM26.005 9.80003h-.0467.0467l-.35-.85167-1.2717 4.85334c.175.0117.3617.0233.5367.0233.875 0 1.7266-.1633 2.52-.4666l-1.435-3.55837ZM25.7017 8.71503l.77.74666c.0116-.05833.0233-.11666.0233-.19833 0 .09333.0117.175.035.245l.2683.25667c.07.02333.14.02333.2334.02333-.07 0-.1284.01167-.1867.02333l2.1233 2.07671.5367-.7-3.8033-2.47337ZM26.5068 10.1034c-.0116.0583-.0233.14-.0233.2216 0-.2916-.0933-.4433-.3033-.50164l1.61 3.38334c.0816-.035.1633-.07.245-.1167l.1983-.2566-1.7267-2.73Z" fill="#B93128"/>
    <path d="m20.1015 21.0583-.7467-2.0883c.5017-.385.9567-.805 1.33-1.3184l1.5283 4.27.7817.315.0933-.315-1.7033-4.76c-.8983.6417-1.96 1.0267-3.0567 1.0967l.8634 2.4383.91.3617Z" fill="#858585"/>
    <path d="m19.355 18.97.7466 2.0883 2.1.8517-1.5283-4.27c-.3617.525-.8283.945-1.3183 1.33Z" fill="#BDBDBD"/>
    <path d="M18.3984 15.5633c.1284-.0816.175-.2216.175-.455 0 .1517.0234.2684.07.35-.07-.6883-.14-1.295-.175-1.5166l-.0466.245c0 .315-.0117.8283-.0234 1.3766Z" fill="#96121F"/>
    <path d="m17.7685 17.57.3734-1.925h-.0934.0934l.28-1.4583c0-.0467 0-.0934.0116-.1284l-1.1083 3.4884c.1517.0117.2917.0233.4433.0233ZM18.69 15.7733c-.07.0817-.105.21-.105.385 0-.2333-.0583-.3733-.1867-.455-.0116.6883-.0116 1.4117-.0233 1.8433.1633-.0116.3267-.035.4783-.07-.035-.385-.105-1.05-.1633-1.7033ZM18.7836 15.575c.0816.0467.1866.0584.3266.0584-.1283 0-.2216.0233-.3033.0583l.2683 1.75c.7584-.175 1.4817-.5133 2.1-1.0033l-2.6366-2.4617.245 1.5983ZM18.4799 13.9417v-.0467l-.0116.035.0116.0117ZM28.4319 25.3983c-1.225.5133-2.555.7933-3.885.8283l.0583.1634 1.2133 2.0416c.4317-1.05 1.4234-2.1 2.6134-3.0333Z" fill="#96121F"/>
    <path d="M25.1302 23.6133c-.3384.595-.7117 1.1783-1.1434 1.7266l.1167.1984h.1517c.315 0 .63-.0117.945-.0467l-.07-1.8783ZM27.1716 22.9833h-.0584.0584l-2.0534-5.18-.0933.3034 1.1083 7.2683c.6067-.1167 1.2134-.28 1.785-.5017l-.7466-1.89ZM24.9317 18.3867l-1.3067 4.1066 1.4817.6067-.175-4.7133ZM30.0065 23.5083v-2.555l-4.4567-2.905 4.4567 5.46Z" fill="#B93128"/>
    <path d="m25.1064 17.8033 2.0534 5.18c.3383-.0116.4783-.1633.4783-.525 0 .385.1517.5367.5367.5367-.385 0-.5367.1517-.5367.5367 0-.3617-.14-.5134-.4667-.525l.7467 1.8783c.735-.28 1.435-.6533 2.0883-1.0967v-.245l-4.4566-5.46-.4317-.28h-.0117ZM25.0133 18.095l-.0934.28.175 4.725.245.105-.1866.3383c-.0117.0233-.0234.0467-.035.07l.07 1.89c.315-.0233.6183-.07.9333-.1283l-1.1083-7.28Z" fill="#C18014"/>
    <path d="m22.9832 38.7683-.77-1.3066-.21.0933.0934-.28-1.085-1.8433-.2567.0583.1517-.245-1.3184-2.24-.0933.3267c-.1517.5716-.3617 1.1433-.595 1.6916l3.955 4.0717c.0467-.1167.0817-.2217.1283-.3267ZM21.2449 28.0117c-1.5983 1.1783-3.4416 2.0183-5.4016 2.4266l1.26 2.1467 2.4383.3617-.9683-1.6334c1.05-.9916 2.0183-2.065 2.6716-3.3016ZM24.1148 30.87l.6767-.2567-.9567-1.05 1.6683-.2683-1.995-3.3834c-.455.525-.945 1.0034-1.4583 1.4584l2.065 3.5Z" fill="#96121F"/>
    <path d="M22.9834 38.7683c.3033-.7233.6183-1.3999.9216-2.0416l-1.6916.735.77 1.3066ZM29.4351 41.685c-1.295-.0934-1.3067-.8517-1.3067-.8517s.0117.7583 1.3067.8517ZM20.9067 35.2333l1.47-2.5083-1.155-.7233 2.905-1.12-2.065-3.5117c-.2567.2217-.525.4317-.805.6417-.6534 1.2366-1.6217 2.31-2.66 3.3016l.9683 1.6334.035.0116-.0117.0467 1.3184 2.2283ZM22.8784 35.0117l-1.855.42 1.085 1.8316.77-2.2516Z" fill="#B93128"/>
    <path d="m20.1133 46.655-5.0867-5.425c.525-.8517.9917-1.7267 1.4-2.6367-.9333.9334-2.0183 1.7034-3.2083 2.2867l6.475 7.0933c.1283-.42.2683-.8516.42-1.3183ZM21.9451 41.3933c.1983-.5367.4083-1.0733.6183-1.61l-3.99-4.1067c-.245.4784-.5367.9334-.84 1.3767l4.2117 4.34Z" fill="#96121F"/>
    <path d="m15.0269 41.23 5.0866 5.425c.5134-1.5983 1.1434-3.4533 1.8317-5.2733l-4.2117-4.3284c-.385.5484-.8283 1.0617-1.295 1.54-.42.91-.8866 1.7967-1.4116 2.6367ZM11.7368 38.9083l.14.5017c-.0233-.1983-.07-.3617-.14-.5017Z" fill="#B93128"/>
    <path d="M11.8998 36.8316c0 1.05.42 1.47 1.47 1.47-.9683 0-1.3883.35-1.4583 1.2134l.2917 1.0616c2.1699-.8516 3.9783-2.3566 5.2266-4.2816-1.2133-.6534-5.9616-3.1967-7.4083-4.0134l.0583.5134 1.4234 5.215c.2683-.2334.3966-.6067.3966-1.1784ZM17.5814 36.0383c.1167-.1983.2334-.4083.35-.6183-1.3066-.525-6.7083-2.695-7.9216-3.22v.0116c1.4933.7817 6.2416 3.1734 7.5716 3.8267ZM18.3282 34.5683c.14-.3383.2684-.6883.385-1.05l-8.4583-1.2717 8.0733 2.3217Z" fill="#B93128"/>
    <path d="M17.6052 22.3417c.105-.0584.1867-.14.2683-.2217-1.435-1.12-2.7533-2.1467-3.255-2.555l-.0233-.0117v.0117c.5833.5483 1.75 1.6217 3.01 2.7767ZM18.1302 21.7117c.07-.1867.1284-.3967.1517-.6417l-3.465-1.4117 3.3133 2.0534ZM19.4831 22.5399c.245.0584.525.0934.8634.0934-.2334 0-.4434.0116-.63.0466l3.6866 2.2867c.35-.455.6767-.9333.9684-1.435l-6.0434-2.4617c.0467.3967.1517.7117.3267.9567l.8283.5133ZM18.515 23.485c-.14.3034-.21.7-.21 1.19 0-1.4583-.5716-2.0416-2.0416-2.0416.49 0 .875-.07 1.1783-.1984-1.2017-1.1666-2.31-2.2516-2.8467-2.8116l-.0583.455-.0583 5.7866c.0233-.07.035-.1516.035-.2566 0 .385.1516.5366.5366.5366-.385 0-.5366.1517-.5366.5367 0-.105-.0117-.1983-.035-.2683l-.035 3.5466c1.3066-.14 2.555-.4666 3.7333-.9683.0467-.0233.0817-.035.1283-.0583.0817-.035.1634-.07.245-.105l.21-.105c.0584-.035.1284-.0584.1867-.0934.105-.0466.1983-.105.3033-.1516.035-.0234.07-.035.105-.0584.14-.07.2684-.1516.4084-.2333.035-.0233.0583-.035.0933-.0583.105-.0584.21-.1284.3033-.1867.0467-.035.0934-.07.1517-.0933.0817-.0467.1517-.105.2333-.1517.0584-.0467.1167-.0817.175-.1283.0584-.035.1167-.0817.175-.1284.3267-.245.6417-.5016.9567-.7816-.5717-.49-1.9133-1.7967-3.3367-3.1734ZM18.9585 22.96c-.1283.0933-.2333.1983-.3267.3266 1.4584 1.3417 2.8467 2.6134 3.4417 3.15.1983-.1983.3967-.3966.595-.595-.595-.4666-2.1233-1.645-3.71-2.8816Z" fill="#96121F"/>
    <path d="M11.3052 26.7051c.07-.1167.1283-.245.1867-.3617l-3.47669-1.0267-.09333-.0116c.595.2683 2.88162 1.2016 3.38332 1.4ZM8.02686 25.97l.19833 1.26c.04667-.0117.09333-.0234.12833-.035l-.32666-1.225ZM8.36505 27.2884c-.04667-.0234-.09334-.035-.15167-.0467l.28 1.8317c.105-.035.21-.0817.315-.1284l-.44333-1.6566ZM11.0719 27.0784c.0233-.035.0466-.07.07-.105-.525-.2567-2.53169-1.295-3.22002-1.645v.0233c.67666.385 2.68332 1.47 3.15002 1.7267Z" fill="#B93128"/>
    <path d="M17.9315 35.4317c.1516-.28.28-.56.4083-.8516l-8.0733-2.3217-.245-.035c1.2017.5133 6.5916 2.6717 7.91 3.2083ZM11.4917 38.01l-1.4233-5.215.6766 5.4833c.3267-.0233.5717-.1167.7467-.2683ZM11.9002 39.7716c0-.1283-.0117-.2566-.0234-.3616l-.14-.5017c-.175-.35-.49-.5367-.98-.5833l.3267 2.625c.385-.105.7583-.2334 1.12-.3734l-.2917-1.0616c-.0116.0816-.0116.1633-.0116.2566ZM17.4181 36.2951c.0583-.0817.105-.175.1633-.2567-1.33-.6533-6.0783-3.045-7.5716-3.815l.0116.0583c1.435.8167 6.1834 3.3717 7.3967 4.0134Z" fill="#C18014"/>
    <path d="M18.6548 22.0266c.1867.2567.4667.42.8283.5133l-.8283-.5133ZM17.8732 22.12c.105-.1167.1866-.2567.2566-.42l-3.3133-2.065-.1983-.0817c.5016.42 1.8083 1.4467 3.255 2.5667ZM19.7052 22.6917c-.3034.0466-.5484.14-.7467.28 1.5867 1.2366 3.115 2.4149 3.71 2.8699.2567-.2683.5017-.5599.7233-.8516l-3.6866-2.2983ZM14.4668 26.4133c-.07-.1867-.2217-.2683-.49-.2683.28 0 .4317-.0817.5017-.28l.0583-5.7867-1.1667 9.9517c.3617-.0117.7117-.035 1.0617-.07l.035-3.5467ZM18.6313 23.2866c-.0467.0584-.0817.1284-.1167.1984 1.4234 1.3766 2.7767 2.6833 3.29 3.1966.0934-.0816.175-.1633.2684-.245-.595-.5366-1.995-1.82-3.4417-3.15ZM17.4301 22.435c.0583-.0233.1167-.0583.1633-.0933-1.26-1.155-2.4266-2.24-3.01-2.7884l-.0116.07c.56.56 1.6683 1.645 2.8583 2.8117Z" fill="#B93128"/>
    <path d="M44.205 9.87c-.14.08166-.1984.2217-.1984.4667 0-.1284-.0233-.2334-.0583-.315l-1.5167 3.1966c.1167.0467.2334.105.35.1517l1.4234-3.5Z" fill="#C18014"/>
    <path d="M44.368 8.8083 41.2646 11.83l.735.9683 1.8434-2.91667c-.0933-.05833-.21-.08166-.3617-.08166.385 0 .5367-.15167.5367-.53667 0 .11667.0116.21.0466.28l.5017-.79333-.4316.91c.035.035.0816.07.1283.08166l.3733-.91 1.295 4.95837c.105-.0117.2217-.0234.3267-.035l-1.6217-5.1217-.2683.175Z" fill="#C18014"/>
    <path d="M51.9168 16.1701c0-.0934-.0116-.175-.035-.245.0117.6533.0117 1.2833.0117 1.6333.1283.0117.2567.0117.385.0117.0817 0 .1633 0 .2567-.0117l-.3734-1.8783c-.175.07-.245.2216-.245.49ZM51.5898 15.61c.07-.63.1283-1.2483.175-1.5983l-.035-.1167-.2684 1.7384c.0467 0 .0934-.0117.1284-.0234ZM51.59 15.6567c-.035-.0117-.0817-.0117-.1284-.0233l-.28 1.8083c.0817.0117.1517.035.2334.0467.035-.3617.105-1.1084.175-1.8317ZM48.5332 15.9833c.1517.1517.315.3034.4783.4317l2.6834-2.4967-3.1617 2.065ZM51.8817 15.365c.0234-.07.035-.1633.035-.2683 0 .2567.07.4083.2334.4783l-.1984-1.015-.0933-.28c0 .2917.0117.6767.0233 1.085Z" fill="#B93128"/>
    <path d="M26.1799 9.82332c-.0467-.01167-.1167-.02333-.175-.02333l1.4466 3.55831c.1167-.0466.2334-.0933.35-.14l-1.6216-3.39498Z" fill="#C18014"/>
    <path d="M26.005 9.80002c.0584 0 .105-.01167.1517-.02333l-.4317-.92167.5484.875c.105-.04667.1633-.14.1866-.26833l-.77-.74667-.105-.07-1.6216 5.12168c.14.0233.28.035.42.0467l1.2716-4.85338.35.84ZM26.7752 9.77669l-.2684-.25667c.0467.12833.1284.21.2684.25667ZM26.5068 10.1033l1.7267 2.73.7117-.945-2.1234-2.07665c-.175.035-.2683.12833-.315.29165Z" fill="#C18014"/>
    <path d="M18.3986 15.715c-.07-.035-.1517-.0583-.2567-.07l-.3733 1.925h.175c.1516 0 .2916-.0116.4433-.0233-.0117-.42 0-1.1433.0117-1.8317ZM18.8066 15.6917c-.0467.0233-.0817.0466-.1167.0816.07.6534.1284 1.3184.175 1.715.07-.0117.1517-.0233.2217-.0467l-.28-1.7499ZM18.4331 14.175l.0467-.245v-.0117l-.035.1284c-.0117.0466-.0117.0816-.0117.1283ZM18.48 13.9417c.035.21.105.8283.175 1.5166.035.0584.0816.0934.1283.1284L18.5383 14l2.6367 2.4617c.175-.14.35-.2917.5133-.455l-3.1967-2.0884-.0116.0234ZM18.3983 15.5633c.0117-.5483.0234-1.0617.035-1.3767l-.28 1.4584c.0934-.0234.175-.0467.245-.0817Z" fill="#B93128"/>
    <path d="m57.6333 25.165.0933.3733c.0583.245.14.5017.2333.7467l-.7583.735-.1167-.9567c-.2683.0467-.49.1284-.665.245l.4434 3.745c-.3734-.0116-.7467-.035-1.1084-.0816-1.2833-.14-2.52-.4667-3.6866-.9567-.0467-.0233-.0934-.0467-.14-.0583-.0817-.035-.1517-.07-.2334-.105-.0816-.035-.1516-.07-.2216-.105-.0584-.0234-.1167-.0584-.175-.0817-.1284-.07-.2567-.1283-.385-.1983-.0117 0-.0117-.0117-.0234-.0117-.14-.0817-.28-.1517-.4083-.2333-.035-.0234-.07-.0467-.105-.07-.0933-.0584-.1983-.1167-.2917-.1867-.0466-.035-.0933-.0583-.14-.0933-.0816-.0584-.1633-.105-.2333-.1634-.0583-.035-.1167-.0816-.1633-.1166-.0584-.0467-.1167-.0817-.175-.1284-.3267-.245-.6534-.5133-.9567-.7933-.0933-.0817-.175-.1633-.2567-.245-.1983-.1983-.3966-.3967-.5833-.595-.2567-.2683-.49-.56-.7233-.8517-.35-.4433-.665-.9216-.9567-1.4116l9.415-3.85.245-.105.0467-.0234.07-.0233v.0233l.0116.0584.7 6.0083c.1984.14.4317.2333.735.2917l-.8633-7.3734-4.3167 1.7617.7467-2.0767c.2683-.0116.525-.0466.77-.0933l.385-.07-1.6683-5.2733-4.6317 3.0216.245.3034c.1633.1866.3383.385.5367.56l-1.015 2.8583c-.3384-.1517-.6884-.3383-1.05-.56l-.7234-2.2983-.7466.49.9566-2.6717c.3617-.0233.7234-.0583 1.085-.1283l.385-.07-2.135-6.73171-4.7483 3.02171-5.2267-6.86005-5.2033 6.87165-4.7017-3.05665-2.135 6.73165.385.07c.35.07.7234.1167 1.085.1284l.9567 2.6716-.7583-.49-1.3184 4.1534-1.4816-4.1417c.1983-.1867.3733-.3733.5366-.56l.245-.3033-4.6316-3.0217-1.6684 5.2733.385.07c.245.0467.5017.0817.77.0934l.7467 2.0766-4.3167-1.7616-.9916 8.4466-.7584-.735c.0934-.245.175-.49.2334-.7466l.0933-.3734L7.09326 24.5l.84 5.46.37333-.105c.245-.07.49-.1517.735-.2567l2.14671 2.0767-1.98337-.3033L10.4883 41.79l.3733-.0933c.5717-.14 1.1317-.3267 1.6917-.5484l1.1083 1.2134-3.93167.7583 2.46167 4.9467.3267-.21c.21-.14.42-.2917.6183-.4667l5.8567 2.8933c-.1634.5483-.2567.875-.2567.8867l-.07.245 2.695 2.1466-.9217 1.33 11.4217 9.1117.9217.8867.0116-.14 1.1317.8983v.0117l1.3183 1.3533 1.3184-1.3533-.035-.1167 1.155-.9217.0233.2801 1.54-1.4817-.0233-.0234 10.6516-8.4933-.8633-1.2483 2.8117-2.24-.0584-.21c0-.0234-.105-.385-.2916-1.015l5.6116-2.7767c.1984.1633.4084.3267.6184.4667l.3266.21 2.4617-4.9467-3.9317-.7583 1.1084-1.2133c.5483.2216 1.12.4083 1.6916.5483l.3734.0933 1.2833-10.4183-1.9833.3033 2.1466-2.0766c.2334.105.49.1866.735.2566l.3734.105.84-5.46-5.495.6417ZM37.6249 63.8167l-1.3066 1.0383-1.0734-3.4884-1.1083 3.605-1.2833-1.0266.1983-2.5784-1.4117 1.61-10.29-8.2016.5484-.7817 6.5916 5.25-.42-3.4883c-.14-1.7967-.175-2.8467.3267-4.5967.245 3.22 2.065 5.2967 2.4033 5.915.3734.6767.0234 2.5433.0234 2.5433 1.3533-1.6683 1.0266-2.8116 1.0266-2.8116-1.7266-2.5784-2.0183-4.76-2.065-5.3783-.0116-.1167-.0116-.175-.0116-.175.0816-.2684.1633-.525.245-.77l.3266 2.1349 2.45 1.5867 1.0384 2.4034.1633-.5834 1.2483 1.925 1.2484-1.925.1633.5834 1.0383-2.4267 2.45-1.5867.3267-2.135c.0817.245.1633.5017.245.77 0 0 0 .0584-.0117.175-.0466.6184-.35 2.8-2.065 5.3783 0 0-.3266 1.1551 1.0267 2.8117 0 0-.35-1.8666.0233-2.5433.35-.6183 2.1584-2.695 2.4034-5.915.5133 1.75.4666 2.8.3266 4.5967l-.42 3.4883 6.475-5.1567.4784.6884-10.185 8.1199-1.3417-1.5283.1983 2.4734ZM22.5283 53.0133c0-.1867.1516-.3383.3383-.3383.1867 0 .3383.1516.3383.3383 0 .1867-.1516.3383-.3383.3383-.1867-.0116-.3383-.1633-.3383-.3383Zm14.2216-31.745h.4784V22.47h-3.99v-1.2017h3.5116Zm2.2984-1.4233c.175.14.3616.2683.5483.3967l.0117 3.4533c-.56-.3383-1.12-.6533-1.6217-.9333V20.615h-.315c.035-.3733.1283-.7467.385-.8983.315-.175.805.0233.9917.1283Zm9.6016.1633c-.245-.0466-.49-.1166-.7583-.21l.945-2.6483c.8983.6417 1.96 1.0267 3.0567 1.0967l-.6417 1.8083c-.035 0-.0817 0-.1167.0117-.0116 0-.2916.07-.7466.0933-.4317.0233-1.0384 0-1.7384-.1517Zm.6184 30.2167c-1.2717-5.1334-2.975-10.3717-4.4917-13.8017l-.0467.0234.105-.4784.7934.3384c1.925 3.6283 3.9083 9.765 4.8766 12.9733l-1.2366.945Zm-.5834.4433-1.4583 1.1084c-.6417-5.285-2.3217-9.7184-2.66-10.5817l.3617-.6417-1.8317-4.27 1.1783.6767c1.4817 3.4183 3.185 8.7267 4.41 13.7083Zm-2.8816 3.4883c.1866 0 .3383.1517.3383.3384 0 .1866-.1517.3383-.3383.3383-.1867 0-.3384-.1517-.3384-.3383 0-.1867.1517-.3384.3384-.3384Zm-1.505 1.8317c0 .1867-.1517.3383-.3384.3383-.1866 0-.3383-.1516-.3383-.3383 0-.1866.1517-.3383.3383-.3383.1984 0 .3384.1517.3384.3383Zm-7.9217-3.3133-.035.8166-1.0967-1.1666-1.0966 1.1666-.035-.8166-1.2134.8166-2.1233-1.4116-.35-2.7183c.4317-1.0267.8167-1.61.8167-1.61l1.5283.315-1.3767.6533.5017.3383 2.205-.3967 1.12.3967 1.12-.3967 2.205.3967.5017-.3383-1.3767-.6533 1.5283-.315s.3734.5833.8167 1.61l-.35 2.7183-2.1233 1.4116-1.1667-.8166Zm-9.1 2.1467-1.575-1.2017c.0233-.5834.1633-2.6717.7933-5.3084l.7817 6.5101ZM8.21326 27.23l-.19833-1.26-.09334-.63v-.035l.09334.0117 3.69837.4433c-.0584.1983-.14.3967-.2217.5833-.0583.1284-.1167.245-.1867.3617-.0466.0933-.105.175-.1516.2683-.0234.035-.0467.07-.07.105-.56.8284-1.34171 1.4817-2.26337 1.8784-.105.0466-.21.0816-.315.1283l-.28-1.8317c-.04667-.0116-.09334-.0116-.14-.0116.035 0 .08166 0 .12833-.0117ZM21.3733 17.1617l1.7033 4.76-.0933.315-.7817-.315-2.1-.8517-.91-.3733-.8633-2.4384c1.085-.0816 2.1466-.455 3.045-1.0966Zm-2.94-3.115.035-.1284.0116-.035 3.1967 2.0884c-.1633.1633-.3267.315-.5133.455-.6184.49-1.33.8283-2.1 1.0033-.07.0117-.1517.035-.2217.0467-.1633.0233-.315.0466-.4783.07-.1517.0116-.2917.0233-.4434.0233h-.175c-.14 0-.2916-.0117-.4316-.035l1.12-3.4883Zm7.1166 4.0016 4.4567 2.905V23.7533c-.6533.4434-1.3533.8167-2.0883 1.0967-.5834.2217-1.1784.3967-1.785.5017-.3034.0583-.6184.105-.9334.1283-.315.0233-.63.0467-.945.0467h-.1516l-.1167-.1984c.4317-.5483.805-1.1316 1.1433-1.7266.0117-.0234.0234-.0467.035-.07l.1867-.3384-.245-.105-1.4817-.6066 1.3067-4.1184.0933-.28.0934-.3033.0116-.035.42.3033Zm11.7017 5.0867c2.8 1.4817 6.545 3.8967 6.9767 6.0433l-1.5167-.245.42-.8633-3.2083.2917c-.2567-1.5284-1.8667-3.745-3.08-5.2267h.4083Zm20.0433 4.7483.9684-.9333c.1283.245.28.4783.4433.7.0583.0817.1283.1633.1867.2333.455.56 1.0033 1.0384 1.6333 1.4l-2.66 2.5784-1.3883.21-2.4734.3733.3384-.5717.77-1.3066c.175.0233.3383.0466.5133.07.5367.0583 1.085.0933 1.6217.0933h.3966l-.2216-1.8433-.1284-1.0034ZM50.7266 47.74c-.1283-.42-.28-.875-.4317-1.3417-.525-1.61-1.155-3.4533-1.8316-5.25-.1984-.525-.4084-1.05-.6184-1.5633l3.7917-3.8967c.245.4667.525.9217.8283 1.3534.3734.525.7817 1.015 1.2367 1.4816.9567.9684 2.065 1.7734 3.29 2.3684l-6.265 6.8483Zm-4.13 4.515-1.1667.8866c-.0816-1.1316-.35-3.6516-1.225-6.6149l.2334-1.9834.035-.035-.665-1.995.3266-.5716c.56 1.54 1.9484 5.6116 2.4617 10.3133Zm-5.32-4.76-.7817-1.12 1.0734-1.4817 2.03-.2917-2.3217 2.8934Zm2.7183.8283c.63 2.6367.77 4.7134.7934 5.3084l-1.575 1.2016.7816-6.51Zm-.8166-5.915.6416 1.855-2.6833.1984-1.0383 1.3066-.7934-.3266.7934-1.5051-2.065-1.2599.5016-.5134-.3033-.595 2.0533.5483-.63-.5366c.595.105 1.05.14 1.4234.1167 1.2716-.105 1.2833-.8634 1.2833-.8634-.0233-.035-.0583-.0583-.0933-.0933-.035-.035-.07-.0583-.105-.0933-.2684-.2334-.5484-.3967-.8284-.5017-.3616-.175-.77-.3267-1.19-.455.945-.3733 1.8084-.455 1.8084-.455 1.12.4433 2.0883 1.5283 2.0883 1.5283l-.8633 1.645Zm-5.0517-1.505c.175-.3616.8167-.7.8167-.7s1.47.0234 2.52.7c-.7467.6067-3.3367 0-3.3367 0Zm4.585-2.6016c-.0233-.0234-.0467-.035-.07-.0584-.0467-.035-.0933-.07-.14-.105-.0933-.0583-.1983-.1166-.2917-.1633l-.035.0117-5.2383.9566 1.1083-1.2133-1.54.7817-.7-.4317 1.4117 2.4733-1.155.455 1.7383.945-1.19.7-.0933.0584.3267.1633 2.5083 1.26-.595 1.2133h-1.0383l-.735.91-1.7267.385-1.7267-.385-.735-.91h-1.0383l-.595-1.2133 2.5083-1.26.3267-.1633-.0933-.0584-1.19-.7.4433-.245 1.295-.7-1.155-.455 1.4117-2.4733-.7.4317-1.54-.7817 1.1083 1.2133-5.2733-.9683c-.0934.035-.1867.0933-.2917.1633-.0467.035-.0933.07-.14.105-.0233.0234-.0467.035-.07.0584-.595.4783-1.1317 1.2133-1.1317 1.2133l1.3767-3.2667.3733.3267 2.695-1.4 1.7384.4783 2.415-.49 2.415.49 1.7383-.4783 2.695 1.4.3733-.3267 1.3767 3.2667c-.0233 0-.56-.735-1.155-1.2133ZM23.8933 52.255c.5133-4.69 1.9016-8.7734 2.4733-10.3017l.3267.5717-.665 1.995.035.035.2333 1.9833c-.875 2.9633-1.1433 5.4717-1.225 6.615l-1.1783-.8983Zm2.3216-15.295 1.1784-.6767-1.8317 4.27.3617.6417c-.3384.8633-2.0184 5.2967-2.66 10.5817l-1.4584-1.1084c1.225-4.9816 2.9284-10.29 4.41-13.7083Zm2.31 2.275s.875.0817 1.8084.455c-.42.14-.8284.2917-1.19.455-.28.105-.56.2683-.8284.5017-.035.035-.07.0583-.105.0933l-.0933.0933s.0117.7584 1.3067.84c.3616.0234.8283 0 1.4233-.1167l-.63.5367 2.0533-.5483-.3033.595.5017.5133-2.065 1.26.7933 1.505-.7933.3267-1.0384-1.3067-2.6833-.1983.6417-1.855-.8867-1.645c0 .0233.9683-1.0617 2.0883-1.505Zm3.8384 1.6683s-2.59.6184-3.3367 0c1.0383-.6766 2.52-.7 2.52-.7s.6417.3267.8167.7Zm-3.1384 6.5917-2.3216-2.8817 2.03.2917 1.0733 1.4816-.7817 1.1084Zm13.3817-12.2617-.6183.5484-2.52-1.3067-1.8317.5017-2.3917-.49-2.3916.49-1.8317-.5017-2.52 1.3067-.6183-.5484-1.505.8634-.2217-1.0734-3.0217 1.3067.7584-2.2283-1.785.3966 1.1666-1.995-.5716-.3616 3.2433-1.2484-.7817-.8633 3.6284-.5833-.3034-.6067 5.0634.455 1.6916-.49 1.6917.49 5.0633-.4667-.3033.6067 3.6283.5833-.7816.8634 3.2433 1.2483-.5717.3617 1.1667 1.995-1.785-.3967.7583 2.2283-3.0216-1.3066-.2217 1.0733-1.505-.8517ZM13.2183 40.88c1.19-.5717 2.275-1.3533 3.2083-2.2867.4783-.4783.91-.9916 1.295-1.54.315-.4433.595-.8983.84-1.3766l3.99 4.1066c-.21.525-.42 1.0617-.6183 1.61-.6884 1.82-1.3067 3.675-1.8317 5.2733-.1517.455-.2917.8984-.42 1.3067L13.2183 40.88ZM11.2466 28c.0933-.105.175-.21.2567-.315.175-.2333.3266-.4783.4666-.7233l.9567.9216-.1283 1.0617-.21 1.7967h.3966c.525 0 1.05-.035 1.575-.0934.1867-.0233.3734-.0466.5484-.07l.84 1.4117.2683.4667-2.52-.3734-1.33-.1983-2.66001-2.6017c.58331-.3383 1.10831-.77 1.54001-1.2833Zm7.6417 7.0117c.245-.5484.4433-1.12.595-1.6917l.0933-.3267.0117-.0466-.035-.0117-2.4384-.3617-1.26-2.1466c1.96-.4084 3.8034-1.2484 5.4017-2.4267.28-.1983.5483-.42.805-.6417.525-.4433 1.015-.9333 1.4583-1.4583l1.995 3.3833-1.6683.2684.9567 1.05-.6767.2566-2.905 1.12 1.155.7234-1.47 2.5083-.1517.245.2567-.0583 1.855-.4084-.77 2.2517-.0933.28.21-.0933 1.6916-.735c-.315.63-.6183 1.3183-.9216 2.0416-.0467.105-.0934.21-.14.3267l-3.955-4.0483ZM29.9949 20.125l-3.5583-2.3217-1.1783-3.29c1.0266-.0466 2.0183-.2916 2.94-.7233.5833.3267 1.1783.6183 1.785.8517l.0116 5.4833Zm-5.39 6.265-.0583-.1633c1.33-.035 2.6483-.3267 3.885-.8284-1.1783.945-2.1817 1.9834-2.6133 3.045L24.6049 26.39Zm21.07-.1633-.0583.1633-1.05 1.785c-.4433-.8867-1.2717-1.7617-2.24-2.5667 1.0733.3734 2.205.5834 3.3483.6184Zm2.345 11.1183.4667.1983-.21-.63-.6533-1.9016 1.5633.35.5483.1166-.3033-.525-1.3067-2.24 1.155-.7233-3.1733-1.225-.4083-.1517.9566-1.05-1.7383-.28c-.0117-.0933-.0233-.175-.0467-.2683l1.8317-3.1033c.4433.5133.9217.9916 1.435 1.4233.245.21.5017.42.7583.6067 1.6217 1.2133 3.4884 2.065 5.4834 2.485l-1.26 2.135-2.4967.3733.105.3733c.1517.5717.3617 1.1434.595 1.6917l-3.7683 3.8733c-.0584-.1516-.1284-.2916-.1867-.4433-.2567-.6067-.525-1.1783-.7817-1.715l1.435.63Zm-8.7733-8.9367-.2917.0234c-.1516-1.3184-1.225-2.7417-2.2516-4.13-.3034-.4084-.595-.7934-.84-1.1667h.1166c1.2834 1.54 3.0217 3.8617 3.2667 5.2733Zm-3.08-3.71c.9333 1.2484 1.9717 2.66 2.1233 3.7917l-1.295.1167-1.7616-.5134-1.7617.5134-1.295-.1167c.1517-1.1433 1.19-2.5433 2.1233-3.7917.3267-.4433.6534-.875.9217-1.2833.3033.4083.6183.84.945 1.2833Zm-2.38-.3966c-1.0267 1.3883-2.0883 2.8233-2.2517 4.13l-.2916-.0234c.2566-1.4816 2.1116-3.8733 3.2783-5.2733h.105c-.2567.3617-.5367.7583-.84 1.1667Zm-3.2083 4.0366-3.2084-.2916.42.8633-1.5166.2567c.4316-2.135 4.1766-4.5617 6.9766-6.0434h.3967c-1.2133 1.4934-2.8233 3.71-3.0683 5.215Zm1.89-7.7233v2.17c-.56.3033-1.1784.6533-1.7967 1.0383l-.0117-8.9366c.105.035.21.07.3267.105 0 .9916.3033 1.96.7233 2.7416.0584.1167.1167.2217.175.3384.4784.8866.8634 1.5983.945 2.555h-.3616v-.0117Zm-3.5117-8.7267-.7233.945-.1984.2684c-.0816.035-.1633.0816-.245.1166-.1166.0467-.2333.105-.35.14-.7933.3034-1.6566.4667-2.52.4667-.175 0-.3616-.0117-.5366-.0233-.14-.0117-.28-.0234-.42-.0467l1.6216-5.12168.105.07 3.7917 2.47338-.525.7116ZM10.7683 43.6917l-.0117-.0234-.0117-.0117 3.4534-.665.28.3034c-.0234.315-.07.6183-.1517.91-.0583.2333-.1283.455-.2217.6767-.0816.21-.1866.4199-.3033.6299-.2217.3967-.5017.7701-.8283 1.0967-.175.175-.35.3384-.5484.4784l-1.575-3.2317-.0816-.1633Zm4.06 1.2833c.0233-.07.0466-.14.07-.21.0816-.2567.1516-.5134.1983-.77l.0467.0233 1.4583 1.5867 2.8583 3.1267c-.0233.0583-.035.1283-.0583.1866-.0817.2567-.1517.5017-.2217.7117l-5.53-2.73c.525-.56.9217-1.2134 1.1784-1.925Zm5.1683 4.3166c.98-3.2083 2.9633-9.3449 4.8767-12.9733l.7933-.35.105.4784-.0467-.0234c-1.5166 3.4184-3.22 8.6683-4.4916 13.8017l-1.2367-.9334Zm4.69 4.865c.1867 0 .3383.1517.3383.3384 0 .1866-.1516.3383-.3383.3383-.1867 0-.3383-.1517-.3383-.3383.0116-.1867.1633-.3384.3383-.3384Zm1.505 1.8317c0-.1866.1517-.3383.3383-.3383.1867 0 .3384.1517.3384.3383 0 .1867-.1517.3383-.3384.3383-.1866 0-.3383-.1633-.3383-.3383Zm24.85-7.21c-.0233-.0933-.0583-.1867-.0817-.28l2.695-2.94 1.4117-1.54.0467-.0233c.0466.2566.105.5017.1866.7583 0 .0117.0117.0234.0117.0467.2567.7817.6767 1.505 1.2367 2.1233l-5.285 2.6133c-.0584-.245-.14-.4899-.2217-.7583Zm1.2483-33.1333.595 1.89c-.1166.0117-.2333.0233-.35.0233-.0816 0-.1633.0117-.2566.0117-.1284 0-.2567-.0117-.385-.0117-.1634-.0116-.3267-.035-.49-.0583-.0817-.0117-.1517-.0233-.2334-.0467-.7933-.175-1.54-.525-2.17-1.0383-.1633-.14-.3266-.28-.4783-.4317l3.1617-2.065.035-.0233v.0117l.035.1166.0816.2567.0934.28.3383 1.05c.0467.0117.105.0117.1633.0117-.0466.0116-.0933.0233-.14.0233Zm-5.0516 6.5917-.035-.105c.14-.0117.2916-.035.4316-.0467l-.3966.1517Zm-.6417.2566-1.5283.63-.1984.0817.1867.3267.0117.0116c.3383.6184.735 1.225 1.1783 1.7967l-.1167.1983h-.1633c-.3267 0-.665-.0116-.9917-.0466-.315-.035-.6183-.07-.9333-.1284-.6067-.1166-1.2017-.2916-1.785-.5133-.7-.2683-1.365-.6183-1.9833-1.0383v-2.905l.2216-.14c.455.2333.9334.4433 1.4117.6066.525.1867 1.05.3384 1.5633.4434.385.0816.7467.14 1.0967.1633.1867.0233.3733.0233.5483.035h.1284c.1633 0 .3266-.0117.4783-.0233.0933.0233.1867.035.28.0583.1633.0233.3267.0467.49.0583l.105.385Zm-35.84 15.785-.6767-5.4833-.0583-.5133-.0117-.0584v-.0116l.245.035 8.4584 1.2716c-.1167.3617-.245.7117-.385 1.05-.1284.2917-.2567.5717-.4084.8517-.105.21-.2216.42-.35.6183-.0466.0817-.105.175-.1633.2567-1.2483 1.925-3.0567 3.4183-5.2267 4.2817-.3616.14-.735.2683-1.12.3733l-.3266-2.6367c-.105-.0116-.21-.0116-.3267-.0116.14 0 .245-.0117.35-.0234ZM47.6349 53.34c-.1866 0-.3383-.1517-.3383-.3383 0-.1867.1517-.3384.3383-.3384.1867 0 .3384.1517.3384.3384-.0117.1866-.1517.3383-.3384.3383Zm10.1267-6.265c-.21-.1517-.3967-.3267-.5717-.5134-.315-.3266-.595-.6883-.8166-1.085-.1167-.1983-.21-.4083-.2917-.6183-.0817-.2216-.1633-.4433-.21-.665-.07-.2916-.1283-.595-.14-.8983l.28-.315 3.4417.665h.0116l-.0116.035-.91 1.82h.0466-.0466l-.7817 1.575Zm-9.6833-26.5067c.5833.1634 1.1083.2334 1.575.2567-.3967.1633-.875.3267-1.4.4433-.07.0117-.1517.035-.2217.0467-.035.0117-.0583.0117-.0933.0233-.0584.0117-.1284.0234-.1984.035-.0583.0117-.105.0234-.1633.0234-.0467.0116-.0933.0116-.1517.0233-.105.0117-.2216.0233-.3383.035-.175.0117-.3617.0233-.5367.035-.245.0117-.4783.0117-.7233-.0117-.9217-.0816-1.82-.42-2.59-.91-.4083-.2566-.77-.56-1.0967-.91-.105-.105-.1983-.21-.2916-.3266-.0467-.0584-.0934-.1167-.14-.1867-.0817-.105-.1517-.1983-.2217-.3033.21.3966.455.7583.7467 1.1083.4083.49.8983.8983 1.4466 1.2367-1.435-.2917-3.0683-.945-4.2116-1.8784-.0117-.0116-.0234-.0233-.0467-.035-.035-.0233-.9683-.5483-1.6917-.1283-.4316.245-.665.7467-.7233 1.4817h-.4783c-.035-.8984-.0467-1.855.2916-2.695.07-.175.1634-.3384.2684-.4784.105-.14.245-.2683.385-.3616.14-.0934.3033-.1634.455-.21.4783-.1284.9566-.105 1.435-.035-.4784-.1284-.98-.1984-1.47-.1167-.175.035-.35.0933-.525.175-.175.0933-.3384.2217-.49.3733-.14.1517-.2684.3267-.3617.5134-.455.8633-.56 1.8783-.63 2.8466h-1.26c-.0583-.42-.105-.84-.1167-1.26-.0116-.5716.0234-1.1316.1634-1.6916.0816-.315.1983-.6534.3733-.9334.3033-.4783.6767-.84 1.1783-1.1083.4084-.2217.84-.315 1.2834-.4083-.5484.0583-1.0967.14-1.575.4083-.4784.2567-.9217.63-1.2017 1.1083-.1983.3384-.35.6767-.4667 1.05-.3033.91-.3033 1.9017-.2566 2.8584h-.49c-.07-1.12-.5134-1.9367-1.0267-2.87-.0583-.105-.1167-.2217-.175-.3267-.63-1.1783-1.015-3.0217-.0467-4.3633.945-1.295 2.485-2.0184 4.6084-2.17l-.0467.0466c-.0933.0934-.1167.2217-.0817.3384.035.1166.14.21.2684.2333 1.3183.2217 2.59.8283 3.4883 1.6683.6417.595 1.2017 1.3417 1.6683 2.1934.07.1283.14.2566.21.3733.0234.035.0467.07.0584.105.0583.0933.105.175.1633.2683.0233.035.0467.07.0583.105.07.105.1284.1984.1984.3034.0116.0116.0116.0233.0233.035.0817.1166.1517.2216.2333.3383.0117.0117.0117.0233.0234.035.07.0933.14.1983.21.2917.0116.0116.0233.035.035.0466.0816.0934.1516.1984.2333.2917.1633.1983.3383.385.5017.5717 1.3766 1.4 2.8233 2.0883 3.955 2.3916Zm-2.9867-2.8.07.2334.0817.245.0116.0233-.0116-.0117c-.035-.035-.07-.0583-.105-.0933-.0584-.0467-.1167-.105-.175-.1517l-.105-.105.1983-.1283.035-.0117Zm-.4667-9.12331 1.6217 5.12171c-.105.0116-.2217.0233-.3267.035-.21.0233-.42.0233-.63.0233-.8633 0-1.715-.1633-2.5083-.4667-.1167-.0466-.2333-.0933-.35-.1516-.0583-.0234-.1167-.0584-.175-.0817l-.2567-.3267-.735-.9566-.5133-.665 3.6167-2.35671.2566-.175Zm-2.625 5.13331c.9217.4317 1.9134.6767 2.9517.7234l-.8983 2.52c-.455-.56-.8984-1.2134-1.3184-1.9834-.2333-.4316-.5016-.84-.7816-1.225.0116-.0116.0233-.0233.0466-.035Zm-4.4566-5.71665 3.99 5.22665h-.0117c-.1867-.2216-.385-.42-.595-.6183-.84-.7817-1.9833-1.3883-3.2083-1.7033l.2216-.21c.0934-.0934.1284-.245.07-.3617-.0466-.1283-.175-.21-.315-.21s-.2916 0-.4316.0117c-2.1467.07-3.815.665-4.9584 1.7733-.2216.21-.42.4433-.6066.6883-.3734.5134-.5834 1.0734-.6767 1.645-.7933-.2566-1.575-.595-2.31-1.0033l5.9967-7.92168.3966-.51333.3967.51333 1.085 1.42333c.0117-.08166.0117-.175.0117-.26833 0 .105 0 .21.0116.30333l.84 1.09667c.175.04667.3734.07.6184.07-.1984.01167-.3734.02333-.525.05833ZM18.3283 21.0817l6.0433 2.4616c-.2917.5017-.6183.98-.9683 1.435-.2334.2917-.4784.5834-.7234.8517-.1866.21-.385.4083-.595.595-.0816.0817-.175.1633-.2683.245-.3033.28-.6183.5367-.9567.7817-.0583.0466-.1166.0816-.175.1283-.0583.0467-.1166.0817-.175.1283-.0816.0584-.1516.105-.2333.1517-.0467.035-.0933.07-.1517.0933-.105.07-.1983.1284-.3033.1867-.035.0233-.0583.035-.0933.0583-.14.0817-.2684.1634-.4084.2334-.035.0233-.07.035-.105.0583-.105.0583-.1983.105-.3033.1517-.0583.035-.1283.0583-.1867.0933l-.21.105c-.0816.035-.1633.07-.245.105-.0466.0233-.0816.035-.1283.0583-1.1783.5017-2.4267.8284-3.7333.9684-.35.035-.7.0583-1.0617.07l1.1667-9.9517.0583-.455.0117-.07v-.0117l.0233.0117.1983.0817 3.465 1.4116c.0117-.14.0234-.2916.0234-.455.0116.175.0116.3267.035.4784Zm2.695 30.7766c-.1867 0-.3384-.1517-.3384-.3383 0-.1867.1517-.3384.3384-.3384.1866 0 .3383.1517.3383.3384 0 .1866-.1517.3383-.3383.3383Zm28.4433-.6767c.1867 0 .3383.1517.3383.3384 0 .1866-.1516.3383-.3383.3383-.1867 0-.3383-.1517-.3383-.3383 0-.1867.1516-.3384.3383-.3384ZM59.4533 38.36l-.315 2.59c-.3967-.105-.7817-.245-1.155-.3967-2.1584-.8633-3.955-2.3566-5.1917-4.2816-.0583-.0817-.105-.1634-.1633-.2567-.1167-.1983-.2334-.4083-.35-.6183-.14-.28-.28-.56-.3967-.8517-.14-.3383-.2683-.6883-.3733-1.0383l8.365-1.26.28-.0467.0466-.0117h.0234v.0467l-.0234.2217-.7116 5.7633c.175.0467.3733.0583.595.0583-.2567.0234-.455.0467-.63.0817Zm2.52-10.9433-.2567 1.6683c-.1167-.0467-.2333-.0933-.35-.14-.91-.4083-1.68-1.0617-2.2283-1.8783-.0234-.035-.0467-.07-.07-.105-.0584-.0817-.105-.175-.1517-.2567-.07-.1167-.1283-.2333-.1867-.3617-.0816-.1866-.1633-.3733-.2216-.5716l3.6283-.4317.1167-.0117h.0466v.0117l-.035.2333-.245 1.575c.0817.0817.2217.1167.4084.1167-.2334-.0233-.3734.0233-.455.1517Z" fill="#231F20"/>
    <path d="M31.6984 17.7333c-.42-.7816-.7233-1.75-.7233-2.7416-.105-.035-.21-.07-.3267-.105l.0117 8.9366c.6183-.385 1.2367-.735 1.7967-1.0383v-2.17h.35c-.07-.9567-.4667-1.6683-.945-2.555-.035-.105-.0934-.21-.1634-.3267ZM37.6719 20.615h.315v2.1467c.5133.28 1.0616.595 1.6216.9333l-.0116-3.4533c-.1867-.1284-.3734-.2567-.5484-.3967-.1866-.105-.6883-.3033-1.0033-.1167-.245.14-.3383.5134-.3733.8867ZM32.3981 10.185c.385 0 .5367-.1517.5367-.5367 0 .16333.035.28.0933.3617l1.6917-4.6317L28.7231 13.3c.7467.4083 1.5167.7466 2.31 1.0033.0934-.5717.3034-1.1317.6767-1.645.1867-.245.385-.4783.6067-.6883l.5716-1.5517c-.0816-.1633-.2333-.2333-.49-.2333ZM36.5865 6.81335l-1.085-1.42334.8166 2.21667c.1634-.18667.245-.455.2684-.79333ZM37.4504 7.94506l-.84-1.09667c.07.61833.3266.96833.84 1.09667ZM36.7266 8.69165l.5483 1.49335c.14 0 .28-.0117.4317-.0117.14 0 .2566.0817.315.21.0466.1283.0233.2683-.07.3617l-.2334.2216c1.2134.315 2.3567.91 3.2084 1.7034.21.1866.3966.3966.595.6183h.0116l-3.99-5.22665c-.42.08166-.6766.28-.8166.63Z" fill="#96121F"/>
    <path d="M36.5985 9.48498c0-1.05-.42-1.47-1.47-1.47.5716 0 .9566-.12833 1.19-.40833l-.8167-2.21667-.3967-.51333-.3966.51333-1.6917 4.63162c.0817.1167.2217.1634.4433.1634-.385 0-.5366.1516-.5366.5366 0-.1283-.0234-.2216-.0584-.3033l-.5716 1.5517c1.155-1.1084 2.8116-1.7034 4.9583-1.7734l-.5483-1.49328c-.0584.19833-.105.455-.105.78166Z" fill="#942319"/>
    <path d="m38.7801 62.8833 10.185-8.12-.4783-.6883-6.475 5.1566.42-3.4883c.14-1.7967.175-2.8467-.3267-4.5967-.245 3.22-2.065 5.2967-2.4033 5.915-.385.6767-.035 2.5434-.035 2.5434-1.3534-1.6684-1.0267-2.8117-1.0267-2.8117 1.7267-2.5783 2.0183-4.76 2.065-5.3783.0117-.1167.0117-.175.0117-.175-.0817-.2684-.1634-.525-.245-.77l-.3267 2.135-2.45 1.5866-1.0383 2.4267-.1634-.5833-1.2483 1.925-1.2483-1.925-.1634.5716-1.0383-2.4266-2.45-1.5867-.3267-2.135c-.0816.245-.1633.5017-.245.77 0 0 0 .0583.0117.175.0467.6183.35 2.8 2.065 5.3783 0 0 .3267 1.155-1.0267 2.8117 0 0 .35-1.8667-.0233-2.5433-.35-.6184-2.1583-2.695-2.4033-5.915-.5134 1.75-.4667 2.8-.3267 4.5966l.42 3.4884-6.5917-5.25-.5483.7816 10.29 8.2017 1.4117-1.61-.1984 2.5783 1.2834 1.0267 1.1083-3.605 1.0733 3.4883 1.3067-1.0383-.1867-2.45 1.3417 1.54Z" fill="#4D4D4D"/>
    <path d="M50.4933 49.2916c-.98-3.2083-2.9634-9.345-4.8767-12.9733l-.7933-.3383-.105.4783.0466-.0233c1.5167 3.4183 3.22 8.6683 4.4917 13.8016l1.2367-.945ZM43.2134 54.8217l1.575-1.2017c-.0234-.595-.1634-2.6717-.7934-5.3084l-.7816 6.5101ZM33.2501 23.135c-2.8 1.4817-6.545 3.8967-6.9767 6.0433l1.5167-.245-.42-.8633 3.2083.2917c.245-1.505 1.8667-3.7217 3.08-5.215h-.4083v-.0117ZM39.9233 28.3384l3.2083-.2917-.42.8633 1.505.2567c-.4317-2.135-4.1767-4.5617-6.9767-6.0433h-.3966c1.2133 1.4933 2.8233 3.71 3.08 5.215Z" fill="#999"/>
    <path d="M34.3235 24.6984c-.9333 1.2483-1.9716 2.66-2.1233 3.7916l1.295.1167 1.7617-.5133 1.7616.5133 1.295-.1167c-.1516-1.1433-1.19-2.5433-2.1233-3.7916-.3267-.4434-.6533-.875-.9217-1.2834-.3033.4084-.6183.84-.945 1.2834Z" fill="#CCC"/>
    <path d="m31.2432 28.4083.2916.0234c.1517-1.3184 1.225-2.7417 2.2517-4.13.3033-.4084.595-.7934.84-1.1667h-.105c-1.1783 1.3883-3.0217 3.78-3.2783 5.2733Z" fill="#F9A31D"/>
    <path d="m41.2765 36.8199-1.82-.7933-1.3767.7817-2.835-.6534-2.835.6534-1.3766-.7817-1.82.7933s-.7117.6884-.8867 1.1667l-.035-.0117 5.2733.9684-1.1083-1.2134 1.54.7817.7-.4317-1.4117 2.4734.2217-.3967.8633.8283-1.085-.4316 1.155.455-1.295.7c.2334.315.7467.9333.7467.9333l.0933.0583-.3266.1634-1.855 1.33-.105 1.05-.56-1.1317.595 1.2133h1.0266l.2334-.9333.7233 1.3067 1.5167.35 1.5166-.35.7234-1.3067.2333.9333h1.0267l.595-1.2133-.56 1.1317-.105-1.05-1.855-1.33-.3267-.1634.0933-.0583s.5017-.6183.7467-.9333l.4433.245-1.7383-.945 1.155-.455-1.085.4316.8633-.8283.2217.3967-1.4117-2.4734.7.4317 1.54-.7817-1.1083 1.2134 5.2383-.9567c-.1633-.4667-.8633-1.1667-.8633-1.1667Zm-4.515 7.5134H33.7282l1.5166-.2684 1.5167.2684ZM42.4666 36.26l-.3733.3267.3733-.3267 1.3767 3.255-1.3767-3.255Z" fill="#C3996B"/>
    <path d="m31.7099 45.2433.105-1.05 1.8433-1.33-2.5083 1.26.56 1.12ZM33.145 41.7083l-.4433.245 1.19.7s-.5017-.6183-.7467-.945ZM33.5068 40.1566l-.2216.3967 1.0966.4317-.875-.8284ZM38.6865 44.1933l.105 1.05.5484-1.12-2.5084-1.26 1.855 1.33ZM42.4665 36.26l-.3733.3267-2.695-1.4-1.7384.4783-2.415-.49-2.415.49-1.7383-.4783-2.695 1.4-.3733-.3267-1.3767 3.2667s.5367-.735 1.1317-1.2133c.0233-.0234.0466-.035.07-.0583.0466-.035.0933-.07.14-.105.0933-.0584.1983-.1167.2916-.1634l.035.0117c.1867-.4784.8867-1.1667.8867-1.1667l1.82-.7933 1.3767.7816 2.835-.6533 2.835.6533 1.3766-.7816 1.82.7933s.7117.6883.8867 1.1667l.035-.0117c.0933.035.1867.0934.2917.1634.0466.035.0933.07.1399.105.0234.0233.0467.0349.0701.0583.595.4783 1.1316 1.2133 1.1316 1.2133L42.4665 36.26ZM37.4848 44.3917l-.7233 1.3067-1.5167.35-1.5166-.35-.7234-1.3067-.2333.9334h.0117l.735.9216 1.7266.385 1.7267-.385.735-.9216h.0233l-.245-.9334ZM37.3448 41.7084c-.2333.315-.7467.9333-.7467.9333l1.19-.7-.4433-.2333ZM36.9835 40.1567l-.8634.8283 1.085-.4317-.2216-.3966Z" fill="#A87C4F"/>
    <path d="M26.495 48.3233c-.63 2.6367-.77 4.725-.7933 5.3083l1.575 1.2017-.7817-6.51ZM44.1348 41.9534l-.3267.5716.665 1.995-.035.035-.2333 1.9834c.875 2.9633 1.1433 5.4716 1.225 6.615l1.1666-.8867c-.5133-4.7133-1.9016-8.785-2.4616-10.3133ZM26.2852 46.5267l-.2334-1.9834-.035-.035.665-1.995-.3266-.5716c-.5717 1.5283-1.9484 5.6116-2.4734 10.3016l1.1667.8867c.0933-1.1317.3617-3.64 1.2367-6.6033ZM44.275 36.96l-1.1783-.6767 1.8316 4.27-.3616.6417c.3383.8633 2.0183 5.2967 2.66 10.5817l1.4583-1.1084c-1.225-4.9816-2.9283-10.29-4.41-13.7083ZM23.2752 51.7767c.6417-5.285 2.3217-9.7184 2.66-10.5817l-.3616-.6417 1.8316-4.27-1.1783.6767c-1.4817 3.4183-3.185 8.7267-4.41 13.7083l1.4583 1.1084Z" fill="#999"/>
    <path d="M35.9799 23.135h-.1166c.2566.3733.5483.7583.84 1.1667 1.0266 1.3883 2.0883 2.8233 2.2516 4.13l.2917-.0234c-.245-1.4116-1.9833-3.7333-3.2667-5.2733Z" fill="#F9A31D"/>
    <path d="m26.4365 40.7633.8867 1.645-.6417 1.855 2.6834.1984 1.0383 1.3066.7933-.3266-.7933-1.505 2.065-1.26-.5017-.5134.3034-.595-2.0534.5483.63-.5366c-.595.105-1.05.14-1.4233.1167-1.2833-.105-1.295-.8634-1.295-.8634.0233-.035.0583-.0583.0933-.0933.035-.035.07-.0583.105-.0933.2684-.2334.5484-.3967.8284-.5017.3616-.175.77-.3267 1.19-.455-.945-.3733-1.8084-.455-1.8084-.455-1.1316.4433-2.1 1.5283-2.1 1.5283Z" fill="#A87C4F"/>
    <path d="m26.9033 44.6133 2.3217 2.8817.7817-1.12-1.0734-1.4817-2.03-.28Z" fill="#8A5D3B"/>
    <path d="m39.7014 52.08.35-2.7183c-.4316-1.0267-.8166-1.61-.8166-1.61l-1.5284.315 1.3767.6533-.5017.3384-2.205-.3967-1.12.3967-1.12-.3967-2.205.3967-.5016-.3384 1.3766-.6533-1.5283-.315s-.3733.5833-.8167 1.61l.35 2.7183 2.1234 1.4117 1.2133-.8167.035.8167 1.0967-1.1667 1.0966 1.1667.035-.8167 1.2134.8167 2.0766-1.4117Zm-4.4566-1.8666 2.9866-.4317-1.4933 1.3767-1.4933.14-1.4934-.14-1.4933-1.3767 2.9867.4317ZM41.9648 39.235s-.875.0817-1.8083.455c.42.14.8283.2917 1.19.455.28.105.56.2683.8283.5017.035.035.07.0583.105.0933l.0933.0933s-.0116.7584-1.3066.84c-.3617.0234-.8284 0-1.4234-.1167l.6301.5367-2.0534-.5483.3034.595-.5017.5133 2.065 1.26-.7933 1.505.7933.3267 1.0383-1.3067 2.6833-.1983-.6416-1.855.8866-1.645c.0117.0233-.9683-1.0617-2.0883-1.505Z" fill="#A87C4F"/>
    <path d="m41.5567 44.8933-1.0733 1.4817.7933 1.12 2.31-2.8817-2.03.28Z" fill="#8A5D3B"/>
    <path d="m27.0667 33.565.21.7117.9217-.5717.6417.455 1.9366-1.12 2.1117.3383 2.3567-.5016 2.3566.5016 2.1117-.3383 1.9367 1.12.6533-.455.91.5717.21-.7117 3.1733.5367 1.785.3966-1.1666-1.995.5716-.3616-3.2433-1.2484.7817-.8633-3.6167-.595.2917-.6067-5.0634.455-1.6916-.49-1.6917.49-5.0633-.455.3033.6067-3.6283.595.7816.8633-3.2433 1.2484.5717.3616-1.1667 1.995 1.785-.3966 3.1733-.5367Z" fill="#fff"/>
    <path d="m44.3448 35.0233 3.01 1.3066-.7584-2.2283-3.1733-.5367 2.66 1.435-2.415-.9566-.1633.9566-1.0734-.6883-.5133.525-2.345-1.1667-1.9483.5367-2.38-.4667-2.38.4667-1.9484-.5367-2.345 1.1667-.5133-.525-1.0733.6883-.1634-.9566-2.415.9566 2.66-1.435-3.1733.5367-.7583 2.2283 3.0216-1.3066.2217 1.0733 1.505-.8633.6183.5483 2.52-1.3067 1.8317.5017 2.3917-.49 2.3916.49 1.8317-.5017 2.52 1.3067.6183-.5483 1.505.8633.2334-1.0733Z" fill="#BDBDBD"/>
    <path d="m25.7133 36.4233.0466.0234-.0933-.4784-.7934.3384c-1.925 3.6283-3.9083 9.765-4.8766 12.9733l1.2367.945c1.26-5.1333 2.9633-10.3717 4.48-13.8017Z" fill="#999"/>
    <path d="m42.3034 33.705-.6533.455-1.9367-1.12-2.1117.3383-2.3566-.5017-2.3567.5017-2.1117-.3383-1.9366 1.12-.6417-.455-.9217.5716-.21-.7116-2.66 1.435 2.415-.9567.1634.9567 1.0733-.6884.5133.525 2.345-1.1666 1.9484.5366 2.38-.4666 2.38.4666 1.9483-.5366 2.345 1.1666.5133-.525L43.5051 35l.1633-.9567 2.415.9567-2.66-1.435-.21.7116-.91-.5716ZM32.2583 49.7817l1.4933 1.3766 1.4934.14 1.4933-.14 1.4933-1.3766-2.9866.4316-2.9867-.4316Z" fill="#231F20"/>
    <path d="M29.0269 40.9034c.7466.6183 3.3366 0 3.3366 0-.175-.3617-.8166-.7-.8166-.7s-1.47.0233-2.52.7ZM41.4631 40.9034c-1.0383-.6767-2.52-.7-2.52-.7s-.6416.3383-.8166.7c0 0 2.59.6066 3.3366 0Z" fill="#fff"/>
    <path d="M33.7285 44.3333h3.0334l-1.5167-.28-1.5167.28Z" fill="#A87C4F"/>
    <path d="M36.225 12.3083h-.0234c-.14-.0233-.28-.035-.42-.035h-.245c-.07 0-.1283.0117-.1983.0117h-.0467c-.07.0116-.14.0116-.1983.0233-.07.0117-.1283.0233-.1983.035-.0117 0-.035.0117-.0467.0117-.07.0116-.1283.035-.1983.0583-.2217.07-.455.1633-.6767.2917-.2217.1283-.4317.28-.6183.4666-.1867.1867-.35.3967-.4667.6184-.1283.2216-.21.4666-.2567.7-.0466.2333-.07.4666-.0583.6883 0 .07.0117.1283.0117.1983 0 .0234 0 .035.0116.0584.0117.0466.0117.105.0234.1516 0 .0234.0116.0467.0116.0817.0117.0467.0234.0933.035.14.0117.035.0234.07.035.105.0117.0233.0117.0467.0234.07.0466.1283.105.2567.1633.385.0933.175.1983.3383.315.5017-.14-.735-.245-1.47 0-2.205.0583-.1867.14-.3617.2567-.5367.105-.1633.2333-.3267.3733-.4667.4317-.4433 1.05-.7233 1.645-.8866.525-.14 1.05-.1867 1.5867-.2684-.1984-.07-.4084-.1166-.6067-.1633-.0933-.0117-.1633-.0233-.2333-.035Z" fill="#231F20"/>
    <path d="M42.8398 16.5083c.0121.012.0121.0241.0242.0361-.0121-.0241-.0242-.0241-.0242-.0361ZM42.5718 16.1c.0233.035.0466.07.0583.105-.0117-.035-.035-.07-.0583-.105ZM43.3301 17.185c.0116.0117.0233.035.035.0467-.0117-.0117-.0234-.0234-.035-.0467ZM43.085 16.87c.0121.012.0121.0241.0242.0361 0-.012-.0121-.0241-.0242-.0361ZM42.3501 15.7383c.0233.035.0467.07.0583.105-.0116-.035-.035-.07-.0583-.105ZM47.5652 21.4083c-.0466.0117-.0933.0117-.1516.0234.0466-.0117.105-.0234.1516-.0234ZM47.9151 21.3384c-.0583.0116-.1283.0233-.1983.035.0817-.0117.14-.0234.1983-.035ZM48.0083 21.3267c.0817-.0117.1517-.035.2217-.0467-.07.0117-.14.0234-.2217.0467Z" fill="#fff"/>
    <path d="M44.0885 18.0951c-2.1817-1.085-3.815-5.7167-7.665-5.7517.21.035.4083.0933.6067.1633-.5367.07-1.0617.1284-1.5867.2684-.595.1516-1.2133.4316-1.645.8866-.14.14-.2683.3034-.3733.4667-.105.1633-.1867.35-.2567.5367-.245.735-.1517 1.47 0 2.205-.1167-.1517-.2217-.3267-.315-.5017.6417 1.5867 1.0967 3.7683 1.12 4.2583-.0466-.9566-.035-1.9366.2567-2.8583.1166-.3733.2683-.7117.4666-1.05.28-.4783.7234-.8517 1.2017-1.1083.49-.2567 1.0383-.35 1.575-.4084-.4433.0817-.8867.1867-1.2833.4084-.5017.2683-.875.63-1.1784 1.1083-.175.28-.2916.6183-.3733.9333-.14.56-.175 1.12-.1633 1.6917.0116.42.0583.84.1166 1.26h1.26c.0584-.9683.1634-1.9833.63-2.8467.105-.1866.2217-.3616.3617-.5133s.315-.28.49-.3733c.175-.0934.3617-.1517.525-.175.5017-.0817.9917-.0117 1.47.1166 1.2833.14 3.5817 2.0884 4.0717 2.4734 1.0383.7933 2.2516 1.3416 3.5116 1.68.42.1166.8517.21 1.2834.2916.525-.1283 1.0033-.28 1.4-.4433-.455-.0233-.9917-.105-1.575-.2567-1.0734-.2916-2.52-.98-3.9317-2.4616ZM32.6434 15.8083c-.0117-.0466-.0233-.0933-.035-.14.0117.0584.0233.0934.035.14ZM32.5966 15.5983c-.0117-.0466-.0234-.105-.0234-.1516 0 .0466.0117.105.0234.1516ZM32.7016 15.9833c-.0117-.0233-.0117-.0466-.0234-.07 0 .0234.0117.0467.0234.07ZM34.8135 12.3666c.0116 0 .035-.0116.0466-.0116-.0116.0116-.0233.0116-.0466.0116ZM35.2686 12.2967h.0466c-.0116-.0117-.035-.0117-.0466 0ZM32.5498 15.1899c0 .07.0117.1284.0117.1984-.0117-.07-.0117-.14-.0117-.1984Z" fill="#fff"/>
    <path d="M32.865 16.3567c-.0583-.1284-.1167-.245-.1633-.385-.0117-.0234-.0117-.0467-.0234-.07-.0116-.035-.0233-.07-.035-.105-.0116-.0467-.0233-.0934-.035-.14-.0116-.0234-.0116-.0467-.0116-.0817-.0117-.0467-.0234-.105-.0234-.1517 0-.0233 0-.035-.0116-.0583-.0117-.07-.0117-.1283-.0117-.1983-.0117-.2217.0117-.455.0583-.6884.0467-.2333.14-.4783.2567-.7.1283-.2216.28-.4316.4667-.6183.1866-.1867.3966-.3383.6183-.4667.2217-.1283.4433-.2216.6767-.2916.07-.0234.1283-.035.1983-.0584.0117 0 .035-.0116.0467-.0116.0583-.0117.1283-.0234.1983-.035.07-.0117.14-.0234.1983-.0234h.0467c.07-.0116.1283-.0116.1983-.0116h.245c.14 0 .28.0116.42.035h.0234c.07.0116.14.0233.21.035 3.85.0233 5.4833 4.6666 7.665 5.7516-.1634-.175-.3384-.3616-.5017-.5716-.0817-.0934-.1517-.1867-.2333-.2917-.0117-.0117-.0234-.035-.035-.0467-.07-.0933-.14-.1866-.21-.2916-.0117-.0117-.0117-.0234-.0234-.035-.0816-.105-.1516-.2217-.2333-.3384-.0117-.0116-.0117-.0233-.0233-.035-.07-.0933-.1284-.1983-.1984-.3033-.0233-.035-.0466-.07-.0583-.105-.0583-.0817-.105-.175-.1633-.2683-.0234-.035-.0467-.07-.0584-.105-.07-.1167-.14-.245-.21-.3734-.4666-.8516-1.0266-1.5983-1.6683-2.1933-.8983-.8283-2.1583-1.435-3.4883-1.6683-.1284-.0234-.2217-.105-.2684-.2334-.035-.1166 0-.2566.0817-.3383l.0467-.0467c-2.1117.1517-3.6634.875-4.6084 2.17-.98 1.3417-.5833 3.185.0467 4.3634.0583.1166.1167.2216.175.3266.5017.9334.945 1.75 1.0267 2.87h.49c0-.4433-.455-2.625-1.0967-4.2116Z" fill="#BDBDBD"/>
    <path d="M46.9583 20.9883c-1.26-.35-2.4734-.8866-3.5117-1.68-.49-.3733-2.7883-2.3216-4.0717-2.4733-.4783-.07-.9683-.0933-1.435.035-.1516.0467-.315.1167-.455.21s-.28.2217-.385.3617c-.105.14-.1983.3033-.2683.4783-.3383.84-.3383 1.7967-.2917 2.695h.4784c.0583-.735.3033-1.225.7233-1.4817.7233-.42 1.645.105 1.6917.1284.0116.0116.035.0233.0466.035 1.1434.9333 2.7767 1.5866 4.2117 1.8783-.5367-.3383-1.0383-.7583-1.4467-1.2367-.2916-.35-.525-.7116-.7466-1.1083.07.105.1516.21.2216.315.0467.0583.0934.1167.14.1867.0934.1166.1867.2216.2917.3266.3267.35.6883.6534 1.0967.91.7816.49 1.6683.84 2.59.91.245.0234.4783.0234.7233.0117.175-.0117.3617-.0233.5367-.035.1166-.0117.2216-.0233.3383-.035.0467-.0117.0933-.0117.1517-.0233.0583-.0117.1166-.0117.1633-.0234.07-.0116.1283-.0233.1983-.035.035-.0116.0584-.0116.0934-.0233.0816-.0117.1516-.035.2216-.0467-.455-.07-.8866-.1633-1.3066-.28Z" fill="#BDBDBD"/>
    <path d="M43.9716 55.65c-.1866 0-.3383.1517-.3383.3384 0 .1866.1517.3383.3383.3383.1867 0 .3384-.1517.3384-.3383-.0117-.1867-.1517-.3384-.3384-.3384ZM45.4648 54.495c0 .1866.1517.3383.3384.3383.1866 0 .3383-.1517.3383-.3383 0-.1867-.1517-.3384-.3383-.3384-.1867 0-.3384.1517-.3384.3384ZM47.6352 52.675c-.1867 0-.3383.1517-.3383.3384 0 .1866.1516.3383.3383.3383.1867 0 .3383-.1517.3383-.3383-.0116-.1867-.1516-.3384-.3383-.3384ZM49.4668 51.8583c.1868 0 .3383-.1515.3383-.3383 0-.1869-.1515-.3384-.3383-.3384-.1869 0-.3384.1515-.3384.3384 0 .1868.1515.3383.3384.3383ZM26.5185 56.315c.1867 0 .3383-.1517.3383-.3384 0-.1866-.1516-.3383-.3383-.3383-.1867 0-.3383.1517-.3383.3383.0116.1867.1633.3384.3383.3384ZM24.6865 54.8333c.1866 0 .3383-.1517.3383-.3383 0-.1867-.1517-.3384-.3383-.3384-.1867 0-.3384.1517-.3384.3384.0117.1866.1634.3383.3384.3383ZM22.8549 53.34c.1867 0 .3384-.1517.3384-.3383 0-.1867-.1517-.3384-.3384-.3384-.1866 0-.3383.1517-.3383.3384.0117.1866.1633.3383.3383.3383ZM21.0234 51.8583c.1869 0 .3383-.1515.3383-.3383 0-.1869-.1514-.3384-.3383-.3384-.1869 0-.3383.1515-.3383.3384 0 .1868.1514.3383.3383.3383Z" fill="#fff"/>
    <path d="M33.7049 21.2683h-.4783V22.47h.4783v-1.2017ZM37.2283 21.2683H36.75V22.47h.4783v-1.2017Z" fill="#F05A28"/>
    <path d="M36.7384 21.2683h-3.0333V22.47h3.0333v-1.2017Z" fill="#F9A31D"/>
    <path d="M62.02 27.125c-.0583-.0583-.0933-.1283-.1167-.2333-.0116-.0584-.0117-.1167-.0117-.175 0 .385-.1516.5366-.5366.5366.1983 0 .3383.0467.42.14.0817.0817.1166.21.1166.3967 0-.1517.0234-.2683.0817-.3617.0817-.1166.2217-.175.4434-.175-.1867-.0116-.315-.0466-.3967-.1283ZM53.3749 21.595c-.0233-.07-.035-.1517-.035-.2567 0 .175-.035.3034-.105.385-.0116.0117-.035.035-.0466.0467-.0817.07-.21.0933-.3734.0933.0934 0 .175.0117.2334.0234.0583.0116.105.0466.1516.0816.0934.0817.14.2217.14.42 0-.385.1517-.5367.5367-.5367-.1983 0-.3383-.0466-.42-.1399-.035-.0117-.07-.0584-.0817-.1167ZM52.2782 15.6217c-.0466-.0117-.0933-.0234-.14-.035-.1633-.07-.2333-.2217-.2333-.4784 0 .105-.0117.1867-.035.2684-.0467.1283-.14.21-.28.245-.035.0116-.0817.0116-.1284.0233h-.0816.0816c.0467 0 .0934.0117.1284.0233.1517.035.245.1167.2917.2684.0233.07.0349.1516.0349.245 0-.2684.07-.42.245-.49.035-.0117.0817-.0234.1284-.035.0467-.0117.105-.0117.1633-.0117-.07-.0117-.1283-.0117-.175-.0233ZM42.8516 22.4467c0 .385-.1517.5366-.5367.5366.3267 0 .49.1167.525.3967 0 .0467.0117.0933.0117.14 0-.0817.0117-.1633.0233-.2217.0117-.0466.0234-.0816.0467-.1166.0817-.1284.2217-.1867.455-.1867-.1517 0-.2683-.0233-.35-.0817-.1167-.0933-.175-.2333-.175-.4666ZM43.9485 10.0217c.035.0817.0584.175.0584.315 0-.2333.0583-.38501.1983-.46668.0817-.04666.1984-.07.3384-.07-.1167 0-.21-.01166-.2917-.04666-.0467-.02334-.0933-.04667-.1283-.08167-.0234-.035-.0467-.07-.0701-.11667-.0233-.07-.0466-.16333-.0466-.28 0 .385-.1517.53667-.5367.53667.1633 0 .28.02333.3617.08167.0583.02333.0933.07.1166.12834ZM32.3984 10.185c.2567 0 .4084.07.4784.2333.035.0817.0583.175.0583.3033 0-.385.1517-.5366.5367-.5366-.2217 0-.3617-.0467-.4434-.1634-.0583-.08163-.0933-.19829-.0933-.36163 0 .37333-.1517.52503-.5367.52503ZM58.5899 45.5117h-.0466c-.1867-.0117-.315-.0583-.3967-.1633-.0583-.0817-.0933-.1984-.0933-.3617 0 .385-.1517.5367-.5367.5367.1867 0 .315.035.3967.1166.0933.0817.1283.2217.1283.4084 0-.3617.14-.5134.4783-.525.035-.0117.0467-.0117.07-.0117ZM56.3382 25.655c-.4316-.315-.6183-.8633-.6183-1.6917 0 .1984-.0117.3734-.035.5367-.14 1.0616-.735 1.4933-2.0067 1.4933 1.4584 0 2.0417.5717 2.0417 2.0417v-.14c.0233-.7934.2333-1.3183.6883-1.5983.1867-.1167.4084-.1984.665-.2451.1984-.035.42-.0583.6767-.0583-.2567 0-.49-.0233-.6883-.0583-.2917-.0467-.5367-.14-.7234-.28ZM37.4501 7.94498c-.525-.12833-.7817-.47833-.84-1.09666-.0117-.09334-.0117-.19834-.0117-.30334 0 .09334 0 .18667-.0116.26834-.0234.33833-.1167.60666-.2684.79333-.2333.28-.6183.40833-1.19.40833 1.05 0 1.47.42 1.47 1.47 0-.315.035-.58333.1167-.78166.14-.35.3967-.54834.8167-.63.1516-.035.3266-.04667.525-.04667-.2217-.01167-.4317-.035-.6067-.08167ZM59.4651 38.2317c-.35-.0817-.5716-.2567-.7116-.5367-.105-.2217-.1634-.5017-.1634-.875 0 1.05-.42 1.47-1.47 1.47.6884 0 1.0967.175 1.3067.5833.1167.2217.1633.5134.1633.8867 0-.8167.2567-1.2483.8517-1.4.175-.0467.3733-.07.6183-.07-.2216.0117-.42-.0117-.595-.0583ZM8.21324 27.2534c.05834.0116.105.0233.15167.0466.16333.07.23333.2217.23333.4784 0-.385.15167-.5367.53667-.5367-.385 0-.53667-.1517-.53667-.5367 0 .2684-.08166.42-.25666.49-.035.0117-.08167.0234-.12834.035-.04666 0-.09333.0117-.14.0117.05834 0 .105 0 .14.0117ZM13.9648 26.1449c.28 0 .4317.0817.49.2684.0234.07.035.1633.035.2683 0-.385.1517-.5367.5367-.5367-.385 0-.5367-.1516-.5367-.5366 0 .105-.0116.1866-.035.2566-.0466.1984-.1983.28-.49.28ZM18.3984 15.715c.1283.0817.1867.2217.1867.455 0-.175.035-.3033.105-.385.035-.035.07-.07.1166-.0817.0817-.035.175-.0583.3034-.0583-.14 0-.245-.0233-.3267-.0583-.0583-.035-.105-.07-.1283-.1284-.0467-.0816-.07-.1983-.07-.35 0 .2334-.0584.3734-.175.455-.07.0467-.1517.07-.2567.07h-.0933.0933c.0933.0234.175.0467.245.0817ZM27.1716 22.9833c.3383.0117.4667.1634.4667.525 0-.385.1516-.5366.5366-.5366-.385 0-.5366-.1517-.5366-.5367 0 .3733-.14.525-.4667.5483h-.0583.0583ZM26.2735 9.74164c-.035.02333-.07.035-.1167.035-.0466.01167-.0933.01167-.1516.02333h-.0467.0467c.07 0 .1283.01167.175.02334.21.05833.3033.20999.3033.50169 0-.0817.0117-.1634.0233-.2217.0467-.16333.14-.25666.315-.29166.0584-.01167.1167-.02333.1867-.02333-.0933 0-.175-.01167-.2333-.02334-.14-.035-.2217-.11666-.2684-.25666-.0233-.07-.035-.15167-.035-.245 0 .07-.0116.14-.0233.19833-.0117.12833-.07.22167-.175.28ZM11.8999 45.5116c.1167 0 .1983.0117.28.0467.1283.0467.21.1517.2333.3033.0117.0584.0234.1167.0234.1867 0-.0583 0-.105.0116-.1517.035-.2683.1984-.385.525-.385-.385 0-.5366-.1516-.5366-.5366 0 .2916-.0934.455-.3034.5016-.07.0234-.14.035-.2333.035ZM18.2815 21.0583c-.0233.245-.07.4667-.1516.6417-.07.1633-.1517.3033-.2567.42-.0817.0817-.1633.1633-.2683.2217-.0584.035-.105.0583-.1634.0933-.3033.14-.6883.1983-1.1783.1983 1.4583 0 2.0416.5717 2.0416 2.0417 0-.5017.0701-.8867.2101-1.19.035-.07.07-.14.1166-.1983.0934-.1284.1984-.2334.3267-.3267.1983-.14.4433-.2217.7466-.28.1867-.035.3967-.0467.6301-.0467-.3267 0-.6184-.035-.8634-.0933-.3616-.0933-.6417-.2567-.8283-.5133-.175-.2334-.28-.5484-.3267-.9567-.0116-.1517-.0233-.3033-.0233-.4783.0117.175 0 .3266-.0117.4666ZM10.7568 38.3133c.5017.0466.8167.2333.98.5833.07.14.1167.3034.14.5017.0117.1167.0234.2333.0234.3617 0-.0934 0-.175.0116-.2567.07-.8634.49-1.2134 1.4584-1.2134-1.05 0-1.47-.42-1.47-1.47 0 .5717-.1167.945-.3967 1.1784-.175.1516-.42.2333-.7467.2683-.105.0117-.21.0117-.3266.0117.1166.0233.2216.0233.3266.035Z" fill="#fff"/>
  </g>
  <defs>
    <clipPath id="a">
      <path fill="#fff" d="M0 0h210v70H0z"/>
    </clipPath>
  </defs>
</svg>
