<svg viewBox="0 0 53 63" fill="none" xmlns="http://www.w3.org/2000/svg">
  <path d="M40.5631 17.4902c1.1646-.2323 2.3293.4662 2.5616 1.6308.2323 1.1647-.4662 2.3294-1.6309 2.5617L13.316 27.2719c-.9307-.9308-2.3293-2.3294-3.72622-3.7263l30.97332-6.0554ZM36.9329 60.5704c-.2323.9307-1.1647 1.8631-2.0955 1.8631h-.4662L8.52297 57.3104l2.43223-4.623 24.3487 5.3216c1.163.2323 1.8629 1.3967 1.629 2.5614ZM14.3152 38.5263h35.6287c1.1647 0 2.0954.9308 2.0954 2.0954 0 1.1647-.9307 2.0955-2.0954 2.0955H13.617c.4646-1.397.6985-2.7939.6985-4.1908l-.0003-.0001ZM35.2895 4.13707 3.95849 16.8416c-1.16467-.9307-2.56163-2.0954-3.9585396-3.0278L33.6596.178661c1.1647-.466192 2.3294-.000002 2.794 1.164669.4662 1.16305.0006 2.55979-1.1641 2.79374Z" fill="currentColor"/>
</svg>
