<svg viewBox="0 0 188 531" fill="none" xmlns="http://www.w3.org/2000/svg">
  <path d="m151.305 251.826 36.047-73.061c.77-1.546.672-3.378-.233-4.844-.913-1.467-2.515-2.358-4.242-2.358h-72.09c-1.727 0-3.329.891-4.242 2.358-.498.804-.752 1.72-.752 2.636 0 .752.171 1.512.516 2.208l36.043 73.061c.839 1.703 2.574 2.783 4.475 2.783 1.905 0 3.643-1.08 4.479-2.783h-.001Zm-32.488-70.278h56.031l-28.015 56.783-28.016-56.783ZM4.99746 171.566c-1.72745 0-3.32956.891-4.24201 2.357-.498032.805-.75227704 1.721-.75227708 2.637-3e-8 .752.17066308 1.511.51544908 2.208L36.5655 251.829c.8393 1.703 2.5737 2.783 4.4753 2.783 1.9016 0 3.636-1.08 4.4753-2.783l36.0434-73.061c.7662-1.546.6721-3.378-.2334-4.845-.9124-1.466-2.5145-2.357-4.242-2.357H4.99746Zm64.05874 9.985-28.0119 56.783-28.0154-56.783h56.0273ZM81.3347 356.445c.902-1.46.9996-3.295.2334-4.845l-36.0433-73.061c-.8394-1.703-2.5738-2.783-4.4754-2.783-1.9015 0-3.6359 1.08-4.4753 2.783L.527227 351.6c-.348272.697-.51893184 1.452-.51893187 2.208-4e-8 .916.25424487 1.832.75227687 2.637.912448 1.466 2.514558 2.357 4.242008 2.357H77.0919c1.7274 0 3.3295-.891 4.242-2.357h.0008Zm-68.3-7.628 28.0154-56.786 28.0119 56.786H13.0347ZM77.091 146.601c1.7275 0 3.3296-.892 4.242-2.358.902-1.463.9996-3.298.2334-4.845L45.5231 66.3373c-.8394-1.7031-2.5738-2.7828-4.4754-2.7828-1.9015 0-3.636 1.0797-4.4753 2.7828L.525523 139.398c-.344794.697-.5154486 1.453-.5154486 2.208 0 .916.2542446 1.832.7522766 2.637.912449 1.466 2.514559 2.358 4.242009 2.358H77.091Zm-64.0588-9.985 28.0155-56.7836 28.0119 56.7836H13.0322ZM187.119 144.247c.902-1.463 1-3.298.233-4.844l-36.047-73.065c-.839-1.7031-2.573-2.7827-4.475-2.7827-1.901 0-3.636 1.0796-4.475 2.7827l-36.043 73.061c-.345.697-.516 1.452-.516 2.208 0 .916.254 1.832.752 2.637.913 1.466 2.515 2.357 4.242 2.357h72.087c1.727 0 3.333-.891 4.242-2.354Zm-68.3-7.631 28.012-56.7829 28.015 56.7829h-56.027ZM93.746 318.16c1.8528-.003 3.5594-1.031 4.4162-2.678l25.1378-48.01c.76-1.456.767-3.183-.003-4.639l-25.2052-47.968c-.8637-1.644-2.5633-2.672-4.4231-2.672-1.8528.004-3.5594 1.031-4.4161 2.678l-25.1383 48.011c-.3796.728-.5712 1.522-.5712 2.316 0 .797.1916 1.595.5747 2.323l25.2052 47.968c.8637 1.644 2.5668 2.671 4.423 2.671Zm-19.573-52.965 19.5142-37.255 19.5558 37.223-19.5139 37.255-19.5561-37.223ZM123.293 50.6396 98.088 2.67128c-.8638-1.64391-2.5634-2.67128124-4.4231-2.67128132C91.8121.00348114 90.1055 1.03084 89.2488 2.67823L64.1105 50.6884c-.3797.7279-.5712 1.522-.5712 2.3161 0 .7976.1915 1.5951.5747 2.323l25.2051 47.9685c.8637 1.644 2.5633 2.671 4.4231 2.671 1.8528-.003 3.5594-1.031 4.4161-2.678l25.1387-48.0103c.762-1.4523.769-3.1798-.004-4.639v-.0001Zm-49.1245 2.3647 19.5141-37.2549 19.5564 37.2237-19.5145 37.255-19.556-37.2238ZM182.872 359.236c1.727 0 3.33-.891 4.242-2.358.498-.801.752-1.717.752-2.633 0-.752-.17-1.511-.515-2.208l-36.047-73.061c-.839-1.703-2.574-2.782-4.475-2.782-1.902 0-3.636 1.079-4.476 2.782l-36.043 73.061c-.77 1.547-.672 3.379.233 4.845.913 1.466 2.515 2.358 4.242 2.358l72.087-.004Zm-64.059-9.985 28.012-56.783 28.016 56.783h-56.028Z" fill="currentColor"/>
  <path d="M.755933 174.357c-.905496 1.459-.999584 3.295-.233372 4.845L36.5695 252.263c.8393 1.703 2.5737 2.783 4.4753 2.783 1.9016 0 3.636-1.08 4.4753-2.783l36.0433-73.061c.3483-.697.5189-1.453.5189-2.208 0-.916-.2542-1.832-.7522-2.637-.9125-1.466-2.5146-2.358-4.242-2.358H4.99878c-1.72745 0-3.32955.892-4.242003 2.358H.755933ZM69.056 181.984l-28.0119 56.787-28.0155-56.787H69.056ZM106.543 386.555c-.905 1.462-.996 3.298-.233 4.844l36.043 73.061c.84 1.703 2.574 2.783 4.475 2.783 1.902 0 3.636-1.08 4.476-2.783l36.047-73.061c.348-.696.519-1.452.519-2.208 0-.916-.255-1.832-.753-2.636-.912-1.466-2.514-2.358-4.242-2.358l-72.089.003c-1.724 0-3.33.892-4.242 2.355h-.001Zm68.304 7.63-28.016 56.784-28.012-56.784h56.028ZM4.99158 384.201c-1.72745 0-3.32956.892-4.24201 2.358-.905496 1.463-.999558 3.298-.233345 4.844L36.5631 464.465c.8393 1.703 2.5737 2.782 4.4753 2.782 1.9016 0 3.636-1.079 4.4753-2.782l36.0434-73.062c.3448-.696.5154-1.452.5154-2.208 0-.916-.2542-1.832-.7523-2.636-.9124-1.466-2.5145-2.358-4.242-2.358H4.99158Zm64.05872 9.985-28.0118 56.783-28.0155-56.783h56.0273ZM98.6884 528.121l25.1346-48.01c.38-.728.571-1.522.571-2.316 0-.798-.191-1.596-.571-2.32l-25.1979-47.968c-.8672-1.644-2.5703-2.675-4.4266-2.672-1.8528.004-3.5594 1.031-4.4161 2.679l-25.1383 48.01c-.7592 1.452-.7662 3.18.0035 4.639l25.2052 47.968c.8637 1.644 2.5633 2.671 4.423 2.671 1.8494-.007 3.556-1.037 4.4127-2.681h-.0001Zm-23.9891-50.288 19.5071-37.254 19.5556 37.223-19.5066 37.255-19.5561-37.224Z" fill="currentColor"/>
</svg>
